<svg xmlns="http://www.w3.org/2000/svg" viewBox="0 0 829.39 750.08"><defs><style>.cls-1{fill:#00364c;}.cls-2{fill:#05ccc2;}</style></defs><title>Work Environment</title><g id="Layer_2" data-name="Layer 2"><g id="Layer_1-2" data-name="Layer 1"><path class="cls-1" d="M790.53,273.62c18.7.59,31.88-5.49,38.86-23.23V23.61C822.86,6,810-.08,791.59,0,688.22.46,584.85.22,481.47.24a106.51,106.51,0,0,0-12.12.48c-13.9,1.62-25.2,13-25.56,27-.54,20.23-.64,40.5.13,60.71.15,4,4.15,9.5,7.88,11.5,7.8,4.16,15.82-2.71,16-13.13.23-17,0-34,.08-51,0-10.45.63-11.11,10.92-11.11q157.5,0,315,0c10.72,0,11.35.67,11.35,11.62q0,76.92,0,153.84c0,2.61-.24,5.22-.37,7.92l.31,25.15c0,6.52.52,13.19-.3,19.7-.27,2.22-3.65,4.61-6.14,5.81-2,1-4.77.23-7.2.23H481.2c-13.36,0-13.36,0-13.37-13.52V188.88c0-13.77.17-27.54-.08-41.3-.16-9.34-6.26-15.18-14.09-13.67-7.67,1.48-10.22,6.85-10.19,14.25.1,30.5,0,61,0,91.5.05,22.29,11.54,33.65,34.1,33.69q48.18.09,96.36,0h9.8c-2.28,10.71-4.88,20.32-6.23,30.1-1,7.07-3.78,9.11-10.9,9.06-43.45-.35-86.9-.17-130.36-.19-2.64,0-5.28-.22-8.12-.35a69.33,69.33,0,0,1-2.57,27.9c.33-1.3,2.33-2.61,3.82-3.08,1.73-.54,3.74-.16,5.63-.16q179.69,0,359.36-.19c8.15,0,11.18,1.9,10.3,10.26-.74,6.9-.15,13.93-.15,21.82H419l-5.7,25.37H527V405q0,157.11,0,314.22c0,19.46,9.54,30.56,27.65,30.64q102,.4,204.07,0c17.32,0,27.46-10.71,27.88-28,.23-9.44.1-18.9,0-28.34,0-6.21.25-12.47-.5-18.59-.84-6.86-5.42-10.45-12.38-10.13-6.59.3-10.45,4.07-11.15,10.61a106.7,106.7,0,0,0-.27,11.32c0,12.62,0,25.24,0,38.06H552V571.34H762.37c0,14.26,0,28.23,0,42.19,0,12.59,3.73,18.34,11.88,18.46,8.42.13,12.44-5.94,12.44-18.89q0-104.46,0-208.93v-9.63c10-1.31,19.07-1.35,27.34-3.9,9.21-2.85,12.89-11.56,15.36-20.37V334.63c-7.7-18.67-13.27-22.28-34.37-22.28H697.29c-2.76-13-5.4-25.47-8.26-39h10C729.55,273.37,760.07,272.67,790.53,273.62Zm-28.79,272.5h-210V393.87h210Zm-89.47-234.2H600.58c2.55-12.08,4.85-23.61,7.56-35,.34-1.44,2.9-3.32,4.46-3.34,16.94-.24,33.89-.15,51.34-.15,2.81,13,5.51,25.5,8.33,38.53Z"/><path class="cls-2" d="M805,223.23l-.31-25.15H467.83v25.15Z"/><path d="M135.21,346.52c-.13-.88-.32-2-.6-3.24.08.37.16.71.22,1.11C134.94,345.1,135.09,345.81,135.21,346.52Z"/><path d="M133,337.93c.39,1.35.78,2.59,1.16,3.67C133.71,339.75,133.22,338.42,133,337.93Z"/><path d="M131.06,312.35H131a69.58,69.58,0,0,0-.42,8.07A73.31,73.31,0,0,1,131.06,312.35Z"/><path d="M130.79,326.26c.11,1.12.26,2.23.42,3.31-.57-4.48-.65-8.51-.66-8.9a2.09,2.09,0,0,0,0-.25C130.54,322.32,130.61,324.29,130.79,326.26Z"/><path class="cls-1" d="M24.87,368.49v-31.4c2.44-.14,5-.42,7.61-.42,31,0,62,.16,93-.17,5.2-.06,7.62,1.39,8.79,5.35,0-.09-.05-.16-.07-.25-.38-1.08-.77-2.32-1.16-3.67l0-.07a40.61,40.61,0,0,1-1.81-8.29c-.16-1.08-.31-2.19-.42-3.31-.18-2-.25-3.94-.24-5.84a69.58,69.58,0,0,1,.42-8.07h-9c-29.42,0-58.85.52-88.25-.2C18,311.76,6.42,316.51,0,331.39v43.74c7.94,17.87,23.61,19.68,40.88,18V717.56c0,3-.14,6,.11,8.91,1.11,13.4,10.11,22.47,23.49,23.33,6.72.44,13.49.23,20.24.22,21.92,0,30.46-8.51,30.46-30.22q0-158.32,0-316.64v-9.53h30.39c.23.88.45,1.69.67,2.52l-6.17-27.66ZM90.38,725.15H65.73V393.75H90.38Z"/><path class="cls-2" d="M428.17,312c-.54-3-1-5.63-1.47-8.23-8.34-44.17-41.95-73.81-86.79-74.68-41.55-.81-83.13-.41-124.68.16-21.64.29-40.24,9.18-56,24-16.84,15.82-25.59,35.66-28.21,59.15h0a73.31,73.31,0,0,0-.51,8.07,2.09,2.09,0,0,1,0,.25c0,.39.09,4.42.66,8.9a70.81,70.81,0,0,0,1.83,8.36c.18.49.67,1.82,1.16,3.67.05.14.1.29.14.42,0-.13-.09-.28-.14-.42,0,.09.05.16.07.25.13.44.24.92.34,1.43.28,1.26.47,2.36.6,3.24,1.19,7,3,14,4.74,21.42l-.21-.94.21.94c0,.19.08.37.13.55h0l6.17,27.66c.44,1.63.87,3.21,1.22,4.77,4.85,21.28,9.48,42.62,14.55,63.85,6,25,25.26,42.59,50.63,45.87,7.13.92,14.49.14,22.48.14.74,6.87,1.39,12.83,2.13,19.68-13.81,0-26.45-.17-39.08,0-24,.38-43.32,16.43-48.39,40-4.83,22.45,8.54,39.25,31.48,39.34,23.21.09,46.43,0,69.64,0h16.46v81.32c-9.31,0-18.17-.4-27,.08-27.66,1.49-48.06,14.49-60.48,39.39-4,8-1.92,15,4.66,18.09s13,.41,17.1-7.47c9.13-17.54,23.63-25.88,43.28-25.81,22.94.08,45.89.29,68.83-.06,20.95-.32,36.27,8,46,26.87,1.62,3.14,5.63,6.51,8.91,6.93,3.63.47,9.62-1.29,11.07-4,2.08-3.83,2.73-10.22.92-14.09-11.75-25.28-32.33-38.22-60-39.85-9.28-.55-18.62-.09-27.84-.09V609.81c28.77,0,56.83.07,84.88,0,22.93-.07,36.48-16.77,31.48-39.27a54.53,54.53,0,0,0-7-17.06c-9.31-14.65-23-22.52-40.44-22.92-13.1-.3-26.2-.06-40.09-.06.86-7.15,1.55-12.94,2.32-19.28,5.09,0,9.65,0,14.2,0,28.92-.26,51.69-18.14,58.8-46.26,1.72-6.79,3.17-13.65,4.73-20.49,3.88-17,7.75-34,11.52-50.53l5.7-25.37c2.24-10,4.24-19.34,6.61-28.65a69.33,69.33,0,0,0,2.57-27.9ZM362,554.9c10.79,0,20.21,8.13,23.1,18.42,2.5,8.92.2,12.16-9,12.17q-48.6.07-97.19,0-47.39,0-94.76,0c-11,0-13.52-3.62-9.33-14.08,4.07-10.14,11.6-16.5,22.74-16.54Q279.76,554.6,362,554.9ZM259.84,511.67H299c-1.42,18.77-1.42,18.77-19.28,18.77h-17.6C261.38,524.16,260.66,518.35,259.84,511.67ZM402.24,331c-9.06,42.44-18.76,84.75-28.42,127.06C369.64,476.38,356,486.8,337,486.88s-38.34,0-57.51,0-38.34.07-57.5,0c-19-.09-32.44-10.49-36.69-29.05-9.67-42.31-19.43-84.6-28.37-127.07-8.2-38.93,20.7-76.28,60.41-77.23q62.32-1.5,124.71,0C381.68,254.53,410.53,292.17,402.24,331Z"/><path d="M133,337.93a70.81,70.81,0,0,1-1.83-8.36,40.61,40.61,0,0,0,1.81,8.29Z"/><path class="cls-2" d="M656.91,660.34c-6.47,0-12.94.14-19.39,0-7.82-.21-12.64-4.66-12.9-11.52s4.51-12.36,12-12.56q20.19-.56,40.39,0c7.5.19,12.26,5.6,12.08,12.44s-5,11.43-12.75,11.66C669.84,660.49,663.37,660.34,656.91,660.34Z"/><path class="cls-2" d="M658,458.81c6.45,0,12.93-.32,19.36.09,7.35.46,11.65,5.17,11.67,11.85s-4.34,11.75-11.58,12q-20.57.6-41.16,0c-7.25-.2-11.64-5.26-11.68-11.89s4.32-11.15,11.6-12a14.36,14.36,0,0,1,1.61-.13H658Z"/></g></g></svg>