<svg xmlns="http://www.w3.org/2000/svg" xmlns:xlink="http://www.w3.org/1999/xlink" viewBox="0 0 563.47 591.92"><defs><style>.cls-1{isolation:isolate;}.cls-10,.cls-11,.cls-12,.cls-2,.cls-3,.cls-4,.cls-42,.cls-5,.cls-51,.cls-52,.cls-6,.cls-7,.cls-8,.cls-9{mix-blend-mode:multiply;}.cls-2{fill:url(#radial-gradient);}.cls-3{fill:url(#radial-gradient-2);}.cls-4{fill:url(#radial-gradient-3);}.cls-5{fill:url(#radial-gradient-4);}.cls-6{fill:url(#radial-gradient-5);}.cls-7{fill:url(#radial-gradient-6);}.cls-8{fill:url(#radial-gradient-7);}.cls-9{fill:url(#radial-gradient-8);}.cls-10{fill:url(#radial-gradient-9);}.cls-11{fill:url(#radial-gradient-10);}.cls-12{fill:url(#radial-gradient-11);}.cls-13{fill:#12b2b2;}.cls-14{fill:#177a91;}.cls-15{fill:#46f2e6;}.cls-16{fill:#03283a;}.cls-17{fill:#144656;}.cls-18{fill:#053649;}.cls-19{fill:#021f2b;}.cls-20{fill:#cbd1dc;}.cls-21{fill:#cbd2de;}.cls-22{fill:#fefffc;}.cls-23{fill:#07cac3;}.cls-24{fill:#0e7f7c;}.cls-25{fill:#b26abf;}.cls-26{fill:#cc75db;}.cls-27{fill:#da8ce5;}.cls-28{fill:#096863;}.cls-29{fill:#0b544f;}.cls-30{fill:#2e4759;}.cls-31{fill:#40b5b5;}.cls-32{fill:#2f6faf;}.cls-33{fill:#08171c;}.cls-34{fill:#ffbf9d;}.cls-35{fill:#dfecf2;}.cls-36{fill:#2b2b2b;}.cls-37{fill:#7a8389;}.cls-38{fill:#000202;}.cls-39{fill:#02d1af;}.cls-40{fill:#6e777f;}.cls-41{fill:#03f4d1;}.cls-42{fill:#e2e2e2;}.cls-43{fill:#7f8993;}.cls-44{fill:url(#linear-gradient);}.cls-45{fill:#a7aeb7;}.cls-46{fill:#020d13;}.cls-47{opacity:0.4;}.cls-48{fill:#a3a3a3;}.cls-49{fill:#041e28;}.cls-50{fill:#24c1d1;}.cls-51{fill:url(#radial-gradient-12);}.cls-52{fill:url(#radial-gradient-13);}</style><radialGradient id="radial-gradient" cx="2716.94" cy="359" r="75.48" gradientTransform="matrix(-0.97, 0, 0, 0.58, 2930.5, 311.19)" gradientUnits="userSpaceOnUse"><stop offset="0" stop-color="#7c969e"/><stop offset="1" stop-color="#fff" stop-opacity="0"/></radialGradient><radialGradient id="radial-gradient-2" cx="2526.13" cy="320.13" r="75.48" gradientTransform="matrix(-0.97, 0, 0, 0.58, 2930.5, 306.39)" xlink:href="#radial-gradient"/><radialGradient id="radial-gradient-3" cx="2653.6" cy="249.76" r="47.77" gradientTransform="matrix(-0.97, 0, 0, 0.58, 2930.5, 297.69)" xlink:href="#radial-gradient"/><radialGradient id="radial-gradient-4" cx="2818.06" cy="339.24" r="54.6" gradientTransform="matrix(-0.97, 0, 0, 0.58, 2930.5, 308.75)" xlink:href="#radial-gradient"/><radialGradient id="radial-gradient-5" cx="2939.24" cy="315.17" r="80.58" gradientTransform="matrix(-0.97, 0, 0, 0.58, 2930.5, 305.78)" xlink:href="#radial-gradient"/><radialGradient id="radial-gradient-6" cx="2894.11" cy="329.67" r="80.58" gradientTransform="matrix(-0.97, 0, 0, 0.58, 2930.5, 307.57)" xlink:href="#radial-gradient"/><radialGradient id="radial-gradient-7" cx="2894.11" cy="341.66" r="80.58" gradientTransform="matrix(-0.97, 0, 0, 0.58, 2930.5, 309.05)" xlink:href="#radial-gradient"/><radialGradient id="radial-gradient-8" cx="2865.73" cy="308.98" r="80.58" gradientTransform="matrix(-0.97, 0, 0, 0.58, 2930.5, 305.01)" xlink:href="#radial-gradient"/><radialGradient id="radial-gradient-9" cx="2786.98" cy="321.64" r="54.6" gradientTransform="matrix(-0.97, 0, 0, 0.58, 2930.5, 306.58)" xlink:href="#radial-gradient"/><radialGradient id="radial-gradient-10" cx="2704.92" cy="256.97" r="54.59" gradientTransform="matrix(-0.97, 0, 0, 0.58, 2930.5, 298.58)" xlink:href="#radial-gradient"/><radialGradient id="radial-gradient-11" cx="2689.46" cy="238.79" r="54.6" gradientTransform="matrix(-0.97, 0, 0, 0.58, 2930.5, 296.33)" xlink:href="#radial-gradient"/><linearGradient id="linear-gradient" x1="239.25" y1="312.35" x2="283.9" y2="312.35" gradientTransform="translate(185.12)" gradientUnits="userSpaceOnUse"><stop offset="0" stop-color="#ffe2c4"/><stop offset="1" stop-color="#ffb870"/></linearGradient><radialGradient id="radial-gradient-12" cx="142.9" cy="424.78" r="48.28" gradientTransform="translate(37.24 319.33) scale(0.97 0.58)" xlink:href="#radial-gradient"/><radialGradient id="radial-gradient-13" cx="176.64" cy="393.41" r="48.28" gradientTransform="translate(37.24 315.45) scale(0.97 0.58)" xlink:href="#radial-gradient"/></defs><title>ADVERTISING SOLUTIONS</title><g class="cls-1"><g id="Layer_2" data-name="Layer 2"><g id="Layer_1-2" data-name="Layer 1"><path class="cls-2" d="M220.65,517.73c0,24.37,33.81,44.13,75.51,44.13s75.51-19.76,75.51-44.13-33.81-44.16-75.51-44.16S220.65,493.34,220.65,517.73Z"/><path class="cls-3" d="M405.66,490.56c0,24.37,33.81,44.13,75.51,44.13s75.5-19.76,75.5-44.13-33.8-44.15-75.5-44.15S405.66,466.17,405.66,490.56Z"/><path class="cls-4" d="M309.79,441.38c0,15.42,21.39,27.93,47.78,27.93s47.79-12.51,47.79-27.93S384,413.43,357.57,413.43,309.79,425.94,309.79,441.38Z"/><path class="cls-5" d="M143.49,503.9c0,17.64,24.46,31.93,54.62,31.93s54.62-14.29,54.62-31.93S228.28,472,198.11,472,143.49,486.27,143.49,503.9Z"/><path class="cls-6" d="M0,487.09c0,26,36.09,47.12,80.61,47.12s80.61-21.1,80.61-47.12S125.13,440,80.61,440,0,461.06,0,487.09Z"/><path class="cls-7" d="M43.76,497.22c0,26,36.09,47.12,80.61,47.12S205,523.24,205,497.22s-36.09-47.13-80.61-47.13S43.76,471.19,43.76,497.22Z"/><path class="cls-8" d="M43.76,505.61c0,26,36.09,47.11,80.61,47.11S205,531.63,205,505.61s-36.09-47.13-80.61-47.13S43.76,479.58,43.76,505.61Z"/><path class="cls-9" d="M71.28,482.77c0,26,36.09,47.12,80.61,47.12s80.6-21.1,80.6-47.12-36.08-47.14-80.6-47.14S71.28,456.74,71.28,482.77Z"/><path class="cls-10" d="M173.62,491.61c0,17.63,24.46,31.93,54.62,31.93s54.62-14.3,54.62-31.93-24.45-31.93-54.62-31.93S173.62,474,173.62,491.61Z"/><path class="cls-11" d="M253.19,446.41c0,17.63,24.45,31.93,54.62,31.93s54.61-14.3,54.61-31.93S338,414.48,307.81,414.48,253.19,428.77,253.19,446.41Z"/><path class="cls-12" d="M268.18,433.7c0,17.63,24.46,31.93,54.62,31.93s54.62-14.3,54.62-31.93S353,401.77,322.8,401.77,268.18,416.07,268.18,433.7Z"/><polygon class="cls-13" points="109.23 513.11 40.25 473.28 40.25 260.39 109.23 300.21 109.23 513.11"/><polygon class="cls-14" points="308.79 397.4 109.23 512.62 109.24 300.23 309.95 184.95 308.79 397.4"/><polygon class="cls-15" points="240.95 145.11 40.25 260.4 109.26 300.24 309.95 184.95 240.95 145.11"/><polygon class="cls-16" points="104.91 325.19 44.58 290.36 44.58 300.31 104.91 335.14 104.91 325.19"/><polygon class="cls-16" points="104.91 340.5 44.58 305.68 44.58 315.62 104.91 350.46 104.91 340.5"/><polygon class="cls-16" points="104.91 465.29 44.58 430.45 44.58 440.4 104.91 475.23 104.91 465.29"/><polygon class="cls-16" points="104.91 480.61 44.58 445.78 44.58 455.73 104.91 490.55 104.91 480.61"/><path class="cls-17" d="M350.76,425.11h0V414.7l-7.47,3.76-13.14-7.59a17.18,17.18,0,0,0-15.49,0l-132,76.23-7.52-3.67v10.29h0c-.17,1.73.89,3.5,3.18,4.82l17.43,10.07a17.12,17.12,0,0,0,15.49,0l136.35-78.72C349.85,428.57,350.9,426.83,350.76,425.11Z"/><path class="cls-18" d="M182.65,487.1l-7.52-3.67v10.29h0c-.17,1.73.89,3.5,3.18,4.82l17.43,10.07a15.86,15.86,0,0,0,7.53,1.84V475.19Z"/><path class="cls-14" d="M195.74,497.61a17.09,17.09,0,0,0,15.49,0L347.58,418.9c4.27-2.48,4.27-6.48,0-8.95l-17.43-10.06a17.12,17.12,0,0,0-15.49,0L178.31,478.61c-4.28,2.47-4.28,6.47,0,8.94Z"/><path class="cls-17" d="M394.73,168.1,385.81,163a2,2,0,0,0-.6-.35h0a3.77,3.77,0,0,0-3.18.52L125.42,311.32a11,11,0,0,0-5,8.64V517a3.48,3.48,0,0,0,1.45,3.23,2.6,2.6,0,0,0,.42.19l8.87,5.1,1.85-9.6-2.65,1.1L382,371.74a11,11,0,0,0,5-8.64V173.48Z"/><path class="cls-17" d="M385.81,163a2,2,0,0,0-.6-.35h0a3.77,3.77,0,0,0-3.18.52L125.42,311.32a9.9,9.9,0,0,0-3.14,3.14l171.53,108.2L382,371.74a11,11,0,0,0,5-8.64V173.48l7.72-5.38Z"/><path class="cls-19" d="M396.23,368.37a11,11,0,0,1-5,8.63L134.64,525.15c-2.75,1.59-5,.3-5-2.87V325.22a11,11,0,0,1,5-8.63L391.25,168.44c2.75-1.59,5-.3,5,2.88Z"/><polygon class="cls-20" points="391.38 353.94 134.5 502.25 134.5 324.87 391.38 176.56 391.38 353.94"/><polygon class="cls-21" points="388.87 178.01 388.87 351.98 134.5 498.84 134.5 502.25 391.38 353.94 391.38 176.56 388.87 178.01"/><polygon class="cls-17" points="361.55 448.47 343.64 438.24 343.64 364 361.55 364 361.55 448.47"/><polygon class="cls-19" points="361.55 448.47 371.96 442.19 371.96 364 361.55 364 361.55 448.47"/><path class="cls-14" d="M366.35,304.3h0c-5.24-3-12.47-2.57-20.45,2C329.91,315.57,317,338,317,356.48c0,9,3.09,15.41,8.12,18.52.44.27.91.48,1.38.71v0l43.42,22.68,44.95-71Z"/><path class="cls-17" d="M408.53,324.71h0c-7.41-1.84-14.58-2.61-22,1.89-15.79,9.56-28.95,31.67-28.95,50.14,0,8.44,2.74,14.56,7.22,17.86v0c41,29.34,83.14,89,83.14,89a1646,1646,0,0,1,89.78-142.4C472.21,341.19,408.53,324.71,408.53,324.71Z"/><path class="cls-19" d="M499.22,350C463.73,370.46,435,420.29,435,461.26s28.77,57.59,64.26,37.11,64.25-70.32,64.25-111.3S534.7,329.49,499.22,350Z"/><path class="cls-20" d="M451.45,423.24l44.92,22.88,25.88-43-44.66-26.07A155.74,155.74,0,0,0,451.45,423.24Z"/><path class="cls-22" d="M490.8,434.43c0,11.35,8,15.94,17.79,10.27s17.78-19.46,17.78-30.8-8-15.93-17.78-10.26S490.8,423.1,490.8,434.43Z"/><polygon class="cls-23" points="239.01 432.76 249.78 426.55 249.78 339.76 239.01 345.99 239.01 432.76"/><polygon class="cls-13" points="228.24 426.55 239.01 432.76 239.01 345.99 228.24 339.76 228.24 426.55"/><polygon class="cls-23" points="239.01 345.99 249.78 339.76 239.01 333.54 228.23 339.76 239.01 345.99"/><polygon class="cls-13" points="214.13 447.19 224.9 440.97 224.9 336.33 214.13 342.55 214.13 447.19"/><polygon class="cls-24" points="203.36 440.97 214.14 447.19 214.14 342.55 203.36 336.33 203.36 440.97"/><polygon class="cls-13" points="214.13 342.55 224.9 336.33 214.13 330.11 203.36 336.33 214.13 342.55"/><polygon class="cls-25" points="189.25 461.38 200.03 455.17 200.03 332.18 189.25 338.4 189.25 461.38"/><polygon class="cls-26" points="178.49 455.17 189.26 461.38 189.26 338.4 178.49 332.18 178.49 455.17"/><polygon class="cls-27" points="189.26 338.4 200.03 332.18 189.26 325.96 178.48 332.18 189.26 338.4"/><polygon class="cls-24" points="189.28 461.56 200.05 455.33 200.05 332.35 189.28 338.57 189.28 461.56"/><polygon class="cls-28" points="178.52 455.33 189.29 461.56 189.29 338.57 178.52 332.35 178.52 455.33"/><polygon class="cls-24" points="189.29 338.57 200.06 332.35 189.29 326.13 178.51 332.35 189.29 338.57"/><polygon class="cls-28" points="164.38 475.95 175.15 469.72 175.15 328.03 164.38 334.25 164.38 475.95"/><polygon class="cls-29" points="153.61 469.72 164.38 475.95 164.38 334.25 153.61 328.03 153.61 469.72"/><polygon class="cls-28" points="164.38 334.25 175.15 328.03 164.38 321.81 153.61 328.03 164.38 334.25"/><path class="cls-17" d="M328.75,251.19l1.26-1.93-6.53-5.55c-9.92-5.69-18.68-4.24-31.06,2.9-13,7.51-24.48,20.57-31.47,34.45-4.47,8.89-7.11,18.1-7.11,26.42,0,9.84,1.54,14.56,6.83,19.1l7.72,4.59,5.65-1.42c5.47-.19,11.73-2.12,18.38-6A75.59,75.59,0,0,0,310.35,309c12.28-13.55,20.66-31.26,20.66-46.1A28.39,28.39,0,0,0,328.75,251.19Z"/><path class="cls-30" d="M304.37,272.93c0,9.72-7.89,22.16-17.61,27.78s-17.61,2.28-17.61-7.45,7.88-22.16,17.61-27.77S304.37,263.2,304.37,272.93Z"/><path class="cls-31" d="M293.91,279c0,3.95-3.21,9-7.15,11.27s-7.15.93-7.15-3,3.2-9,7.15-11.27S293.91,275,293.91,279Z"/><path class="cls-19" d="M336.72,267.14c0,21.31-17.28,48.56-38.59,60.86s-38.59,5-38.59-16.31,17.28-48.56,38.59-60.86S336.72,245.82,336.72,267.14Z"/><path class="cls-22" d="M326.38,273.11c0,15.6-12.65,35.54-28.25,44.55s-28.24,3.66-28.24-11.94,12.64-35.54,28.24-44.55S326.38,257.51,326.38,273.11Z"/><path class="cls-19" d="M315.74,279.25c0,9.72-7.88,22.16-17.61,27.78s-17.61,2.28-17.61-7.45,7.89-22.16,17.61-27.78S315.74,269.52,315.74,279.25Z"/><path class="cls-22" d="M305.28,285.29c0,3.95-3.2,9-7.15,11.27s-7.15.93-7.15-3,3.2-9,7.15-11.27S305.28,281.34,305.28,285.29Z"/><polygon class="cls-23" points="349.15 308.47 367.62 319.13 359.9 322.62 340.94 311.68 349.15 308.47"/><polygon class="cls-23" points="349.15 329.84 367.62 340.5 359.9 328.1 340.94 317.15 349.15 329.84"/><path class="cls-19" d="M342.27,312.45l-44-25.39-.1-.05-.05,0h0a1.28,1.28,0,0,0-1.09.16,3.75,3.75,0,0,0-1.69,2.93,1.14,1.14,0,0,0,.58,1.13h0l63.95,36.89,2.41-4.08Z"/><path class="cls-32" d="M362.73,325.07A3.75,3.75,0,0,1,361,328c-.93.54-1.69.11-1.69-1A3.75,3.75,0,0,1,361,324.1C362,323.56,362.73,324,362.73,325.07Z"/><path class="cls-13" d="M110.84,242.12s-1.13,5-.89,6.6,1,4.28,7.54,3.24,16.12-3.8,17.52-6.59-3.15-4.17-9.5-2.21a8.26,8.26,0,0,1-6.84-1.34Z"/><path class="cls-33" d="M84.43,196.82c12.56-7.4,33.25-18.18,36-10.65,3.93,10.91,0,56.14,0,56.14s-5.67,3.44-10.94.58c-.87-18-1.45-39.18-1.45-39.18s-11,13-23.62,17.74Z"/><polygon class="cls-23" points="124.51 220.27 124.51 268.98 118.55 281.81 96.32 285.25 80.05 275.86 80.05 227.15 124.51 220.27"/><polygon class="cls-29" points="106.56 223.05 124.51 220.27 124.51 268.98 118.55 281.81 106.56 283.67 106.56 223.05"/><polygon class="cls-24" points="118.55 233.11 118.55 281.81 96.32 285.25 96.32 236.55 118.55 233.11"/><polygon class="cls-23" points="108.23 210.88 86 214.32 80.05 227.15 96.32 236.55 118.55 233.11 124.51 220.27 108.23 210.88"/><path class="cls-34" d="M77.37,123.62c.69-11.15.85-27.1.89-31.81h0c-.1-1.45-1.94-6.11-2.4-7.84-.19-.77,5.37-3.4,5.37-3.4s1-7.64,1.21-8.89,1.59-1,1.75,2.4a83.51,83.51,0,0,1-.42,9.49,2.41,2.41,0,0,0,.38,1.69,13.54,13.54,0,0,0,.15-4.09c-.34-1.22,1.24-1.31,1.91,1s.3,3.58-.49,6.18a28,28,0,0,0-.8,3.89c-.12,1.37-.34,3.82-.47,5.6-.34,4.66-.37,4.25.2,16.85.07,1.69-1.18,14.66-1.52,17.49l2.49-5.89a141,141,0,0,1-8.89,35.14l-7.61-2.57S74.83,133.9,77.37,123.62Z"/><path class="cls-13" d="M83.13,142.67c-2.07,11.42-4.1,18.77-4.1,18.77l-9.91-2.57s1.55-9.25,3.34-19.12C76,141.24,79.57,141.73,83.13,142.67Z"/><polygon class="cls-35" points="166.79 184.99 123.62 202.48 106 182.37 145.02 164.93 166.79 184.99"/><path class="cls-36" d="M115.49,215s.53,4.86,1.15,6.17,2,3.46,6.78.46,11.48-8.55,11.79-11.48-3.62-2.69-8,1.08a6.1,6.1,0,0,1-5.7,1Z"/><path class="cls-13" d="M130.32,256.38s-1.52,4.95-1.42,6.52.71,4.34,7.26,3.83,16.38-2.51,18-5.18-2.81-4.4-9.3-2.95a8.33,8.33,0,0,1-6.71-1.88Z"/><path class="cls-33" d="M97.49,214.32s43.75-24.14,46.8-12.95-4.41,56-4.41,56-5.93,3-11-.28c.56-18.05,1.68-39.17,1.68-39.17s-17.41,17.54-32.88,16.84S62.94,219.88,74,202C87.06,201,97.49,214.32,97.49,214.32Z"/><path class="cls-24" d="M87.41,155s9.45,3.31,12.93,12.27,7.49,27.6,7.49,27.6l1.19,6.32s3.84,28.69-31.19,21.19c-14.14-3-9.1-10.3-9.43-12.62S69.72,200,68.34,190s-4.6-43.34,13.52-40.52C90.64,152.32,87.41,155,87.41,155Z"/><path class="cls-34" d="M102.45,132.79s0,.08.1.24a10.48,10.48,0,0,1,.91,5.9c-.63,2.89,2.34,4.11,2.34,4.11s.76.77-.64,1.22a12.5,12.5,0,0,0-2.06.81s-1.13,5.5-1.67,6.4-3.05.76-5.15.78-3.86,3.49-4.06,5.34c-6.11-1.39-10.94-6.69-10.94-6.69l2-4.82S90.78,124.52,102.45,132.79Z"/><path class="cls-16" d="M95.84,144.52s3.81-6.11,2.8-9.43,4.21-1.34,4.21-1.34,4.81-4.05,3.38-8.18a3,3,0,0,1-2.43.61l1-1.94a38.31,38.31,0,0,1-6.26.32,5.67,5.67,0,0,0,2-2.08s-5.24.82-7.88.86-8.72-.45-10.52,4.69c-3.23,4.31-5,16.47.35,20,3.2,2.28,5.11,1.38,5.11,1.38a57,57,0,0,0,2.67-7.85c.34-2.19,5.31-3.29,4.4.85a8.73,8.73,0,0,0-.32,3.25Z"/><path class="cls-34" d="M102.28,186.2s6.79,15.79,7.17,18.05c4.61-1.7,24.51-6.43,29.16-7.28l0-.07a22.58,22.58,0,0,1,3.34-4,4.62,4.62,0,0,0,1.76-3.56c.07-.87,2-1.82,2.08.51a7.18,7.18,0,0,1-1,4l7.6-2.9s-2,7.3-11.7,11.07a.2.2,0,0,0,0,.05s-13.28,6.37-22.68,9.51-15.75,5.56-19.27-.21S88.25,186,88.25,186Z"/><path class="cls-13" d="M106,192.71s-4.77-23.3-6.94-26.85-11.24-4.56-14.34,3,4.87,28.53,4.87,28.53Z"/><polygon class="cls-23" points="451.86 86.18 348.35 126.69 392.98 132.01 451.86 86.18"/><polygon class="cls-29" points="392.26 131.92 399.17 151.24 451.86 86.18 392.26 131.92"/><polygon class="cls-24" points="407.06 136.37 399.17 151.24 451.86 86.18 407.06 136.37"/><polygon class="cls-23" points="451.86 86.18 437.93 154.42 407.06 136.37 451.86 86.18"/><polygon class="cls-14" points="412.8 16.93 309.29 57.44 353.92 62.76 412.8 16.93"/><polygon class="cls-19" points="353.19 62.67 360.1 81.99 412.8 16.93 353.19 62.67"/><polygon class="cls-17" points="367.99 67.11 360.1 81.99 412.8 16.93 367.99 67.11"/><polygon class="cls-14" points="412.8 16.93 398.86 85.17 367.99 67.11 412.8 16.93"/><path class="cls-37" d="M353.78,487.74l-5.74,0a39.51,39.51,0,0,0-10.24-8.21c-21.31-12.3-55.85-12.3-77.16,0a40.17,40.17,0,0,0-9.73,7.62l-6.23,0,0,14.66v.06c0,8.05,5.34,16.1,16,22.24,21.31,12.3,55.85,12.3,77.16,0,10.64-6.14,16-14.2,16-22.25,0,0,0-.05,0-.08Z"/><path class="cls-38" d="M247.37,487.1l-2.69,0,0,14.66v.06c0,8.05,5.34,16.1,16,22.24l.15.08V508.49C253.33,504.93,250.54,495,247.37,487.1Z"/><path class="cls-16" d="M261.39,508.76l-.6-.27v15.63c12,6.85,28,9.85,43.6,9V517.63C289.77,518.12,274.39,514.5,261.39,508.76Z"/><path class="cls-24" d="M353.78,487.74l-5.74,0a39.51,39.51,0,0,0-10.24-8.21c-21.31-12.3-55.85-12.3-77.16,0a40.17,40.17,0,0,0-9.73,7.62l-3.54,0c3.17,7.9,6,17.83,13.42,21.39v0l.6.27c13,5.74,28.38,9.36,43,8.87v0c12.21-.41,23.88-3.68,33.2-11v0a46.7,46.7,0,0,0,12.56-15.11,46.7,46.7,0,0,1-12.56,15.11v17.48l.21-.11c10.64-6.14,16-14.2,16-22.25,0,0,0-.05,0-.08Z"/><path class="cls-39" d="M304.39,517.63v15.49c12.11-.66,23.9-3.65,33.2-9V506.67C328.27,514,316.6,517.22,304.39,517.63Z"/><path class="cls-40" d="M337.8,510c-21.31,12.3-55.85,12.3-77.16,0s-21.3-32.25,0-44.55,55.85-12.3,77.16,0S359.1,497.72,337.8,510Z"/><path class="cls-29" d="M337.8,465.47c-21.31-12.3-55.85-12.3-77.16,0l0,0c-21.26,12.3-21.25,32.22,0,44.52l.16.08,38.53-22.24L338,465.56Z"/><path class="cls-33" d="M250.36,473.72c-10.15,11.78-6.73,26.47,10.28,36.3l.16.08,38.53-22.24Z"/><path class="cls-13" d="M337.8,510c21.25-12.27,21.3-32.15.15-44.46l-38.62,22.3L337.75,510Z"/><path class="cls-41" d="M299.33,487.86,260.8,510.1c21.3,12.2,55.69,12.19,76.95-.06Z"/><path class="cls-18" d="M299.33,487.86,260.8,510.1c11.94,6.84,28,9.84,43.52,9Z"/><path class="cls-23" d="M421.83,377.07a13.54,13.54,0,0,0,.94,3.3,16,16,0,0,1,.88,4.25,43.61,43.61,0,0,0-8.22,6.53c-3.74,4-6.54,4.45-9.36,3.77-1.35-.26-1.69-2.89-.68-4S416,383,415.63,379.71C417.25,378.09,421.83,377.07,421.83,377.07Z"/><path class="cls-13" d="M406.07,393.66c2.82.67,5,.29,9.36-4,3.21-3.14,7.41-5.56,8.09-6.23.09.66.13,1.34.13,1.34a36.61,36.61,0,0,0-7.31,5.76c-4.42,4.55-7.45,5-10.27,4.34-1-.19-1.42-1.64-1.2-2.85A1.79,1.79,0,0,0,406.07,393.66Z"/><path class="cls-33" d="M437.24,335s-10,6.88-22.43,13.59c6.14,10,6.92,26.38,6.5,29.31-3.84,3.59-6.62,1.62-6.62,1.62s-12.77-28.3-14.5-32.8,24.65-25.07,24.65-25.07Z"/><path class="cls-13" d="M426.05,404.15s.76,5.22,1.48,10-.41,9.18-3.88,10.81c-3.28.1-6.55-2.86-5.43-8.38s.69-10.24.72-12.84S426.05,404.15,426.05,404.15Z"/><path class="cls-33" d="M455,345.91s-6.13,3.47-20.08,13.3c-4.16,3.06-4.31,27.35-8.33,44.59-3,5.38-8-.36-8-.36s-.65-38.12,2.59-50.15c1.25-4.65,19.6-16.27,19.6-16.27Z"/><path class="cls-42" d="M414.36,318.69a3.07,3.07,0,0,1-1.14-1.18l2.36,1.31A11.2,11.2,0,0,1,414.36,318.69Z"/><path class="cls-23" d="M409.65,312c7.45,2.6,19.47-14.9,21.74-16.79,1.09-.9,1.39-2.48,1.45-4.43h5.55c-1.41,6-3.55,11.76-4.34,12.84-1.45,2-18.1,18.09-22.11,11.91C414.45,314.21,409.17,314.85,409.65,312Z"/><path class="cls-33" d="M439.26,341.39c.5-5.51,1.15-10.93-.2-13.43-1.15-2.14.63-9.7.63-9.7l26,1s3.62,7.48-.41,18.11c-2.31,6.06-5.83,7.68-21.8,15.9C444.33,348.32,445.36,340,439.26,341.39Z"/><path class="cls-13" d="M431.77,316.9s-3.71-41.58,7.68-45.94,21.82,6,26.28,16.07,2.87,31.79,2.91,36.46C453,334.24,431.33,322.06,431.77,316.9Z"/><path class="cls-34" d="M436.24,254.33s-2.84,4.54-.3,14.42c2.07,8,2.32,10.26,5.66,10.6s10.55-1.92,11.54-8.26c1-.22,3.8-4,2.2-7.06s-2.73.28-2.73.28.06-6.6-4.61-9S436.24,254.33,436.24,254.33Z"/><path class="cls-16" d="M447.21,262.26c0-.38-3.56,4.67-9.26,3a3.51,3.51,0,0,0,2.41-2,5,5,0,0,1-5.18,1.68,7.47,7.47,0,0,0,2.07-1.2,5.62,5.62,0,0,1-4.25.32c1.31-.57,1.11-1.43,1.11-1.43s-1.16,1.16-3.41-.81c.92-.12.82-4.33,4.14-7.36s6.76-6,11.2-5.29c-1.09-1.13-.93-1.39-2.5-1.15,1.77-1,5.67-.21,6.77,1.43,3.45-1.32,7.74,3.91,5.6,16.47,0-.31-.33-2.36-1.56-2.74s-2.24,2-2,2.61a27.91,27.91,0,0,1,.41,4.19l-1.58.82s.49-3.11-.63-4.05S447.43,267.05,447.21,262.26Z"/><polygon class="cls-43" points="434.96 347.5 397.52 325.88 397.52 324.29 457.9 332.66 457.9 334.26 434.96 347.5"/><polygon class="cls-20" points="434.96 345.91 397.52 324.29 420.46 311.05 457.9 332.66 434.96 345.91"/><path class="cls-44" d="M424.88,326.23c1.58-.11,3.38.27,6.17.32s2.68-1.51,2.79-3.77c.88.66,1.41,2.41,2.84,3.44s2.09,0,2.09,0l.3.23c10.09-1.78,19.16-9.72,20.75-12.11s-.65-12.64-1-19.33c0,0,1.53-6,6.93-2.94s2.57,24.93,2.57,27.39-20,11.3-29.49,12.16a13.08,13.08,0,0,1-5.45,1.88C425.18,333.34,423.3,326.34,424.88,326.23Z"/><path class="cls-34" d="M424.88,326.23c1.58-.11,3.38.27,6.17.32s2.68-1.51,2.79-3.77c.88.66,1.41,2.41,2.84,3.44s2.09,0,2.09,0l.3.23c10.09-1.78,19.16-9.72,20.75-12.11,1.06-1.59.48-6.4-.17-11.41-.55-4.42-3.67-10-3-17.06,0,0,.49-7.68,5.88-4.62,2.77,1.57,5.19,11.33,6.54,19.49a108.17,108.17,0,0,1,.74,18.56c0,2.45-21.51,11.46-31,12.32a13.08,13.08,0,0,1-5.45,1.88C425.18,333.34,423.3,326.34,424.88,326.23Z"/><path class="cls-23" d="M442.21,324.29c8.24-2.84,16.25-7.91,17.61-10,1.06-1.59.48-6.4-.17-11.41-.55-4.42-3.67-10-3-17.06,0,0,.49-7.68,5.88-4.62,2.77,1.57,5.19,11.33,6.54,19.49a108.17,108.17,0,0,1,.74,18.56c0,2-14.62,9.72-25.06,12.4A11.61,11.61,0,0,0,442.21,324.29Z"/><polygon class="cls-45" points="397.52 297.8 434.96 345.91 436.18 345.26 436.18 318.77 398.74 297.16 397.52 297.8"/><polygon class="cls-20" points="397.52 324.29 434.96 345.91 434.96 319.42 397.52 297.8 397.52 324.29"/><path class="cls-17" d="M193,161.29h0V154.9l4.59,2.31,8.07-4.66a10.49,10.49,0,0,1,9.51,0l81.08,46.81,4.62-2.25v6.32h0a3.23,3.23,0,0,1-1.95,3l-10.71,6.18a10.49,10.49,0,0,1-9.51,0L195,164.22A3.21,3.21,0,0,1,193,161.29Z"/><path class="cls-18" d="M296.26,199.36l4.62-2.25v6.32h0a3.23,3.23,0,0,1-1.95,3l-10.71,6.18a9.66,9.66,0,0,1-4.62,1.13V192.05Z"/><path class="cls-14" d="M288.22,205.82a10.49,10.49,0,0,1-9.51,0L195,157.48c-2.63-1.53-2.63-4,0-5.5l10.7-6.18a10.49,10.49,0,0,1,9.51,0l83.75,48.35c2.62,1.52,2.62,4,0,5.49Z"/><path class="cls-19" d="M166,3.45,171.48.32a1.36,1.36,0,0,1,.37-.21h0a2.3,2.3,0,0,1,1.95.32l157.6,91a6.76,6.76,0,0,1,3.06,5.3v121a2.15,2.15,0,0,1-.89,2,1.51,1.51,0,0,1-.26.12L327.87,223l-1.13-5.9,1.62.68L173.81,128.51a6.77,6.77,0,0,1-3.06-5.3V6.74Z"/><path class="cls-17" d="M171.48.32a1.36,1.36,0,0,1,.37-.21h0a2.3,2.3,0,0,1,1.95.32l157.6,91a6.09,6.09,0,0,1,1.93,1.92L228,159.79l-54.18-31.28a6.77,6.77,0,0,1-3.06-5.3V6.74L166,3.45Z"/><path class="cls-17" d="M165.09,126.44a6.77,6.77,0,0,0,3.06,5.31l157.59,91c1.69,1,3.06.19,3.06-1.76v-121a6.77,6.77,0,0,0-3.06-5.3l-157.59-91c-1.69-1-3.06-.18-3.06,1.77Z"/><polygon class="cls-20" points="168.06 117.58 325.83 208.67 325.83 99.73 168.06 8.64 168.06 117.58"/><polygon class="cls-20" points="169.6 9.53 169.6 116.38 325.83 206.58 325.83 208.67 168.06 117.58 168.06 8.64 169.6 9.53"/><path class="cls-28" d="M326.15,472.06a61.07,61.07,0,0,1,6.62-1.59c1.06,0,3.72-.08,4.1.79s1.15,14.51.31,17.32S327,492.16,325,491.25c-1.37-2.52,3.12-5.64,4.95-6.55s-.46-6.17-3-6.17S326.15,472.06,326.15,472.06Z"/><path class="cls-29" d="M336.9,471.31a.79.79,0,0,0-.35-.35c-1.93-.26-3.34.82-3,1.65s2.39,13.74-.77,17.09c-1.61,1.72-5.89,1.7-6.11,1.91,8.68,0,10.16-1.78,10.53-3C338,485.81,337.28,472.18,336.9,471.31Z"/><path class="cls-28" d="M307.75,394.3s6.22,6.57,7,29.16c-1.23,4.33-11.95,1.85-13.31,0s0-5.8,0-5.8h5.43l-1.64-10.86Z"/><path class="cls-33" d="M328.79,470.41l-30.47,5c-1.74-2.39,3.4-14.11,5.14-17.94,5.51-10.27-2.93-19.82-2.93-19.82l-13.77-4s-7.5,35.89-10.06,43.72c-4.57,14,39.46,6.15,52.51,3.87C328.93,479.41,326.44,472.91,328.79,470.41Z"/><path class="cls-28" d="M309.21,484.36a60.75,60.75,0,0,1,6.62-1.6c1.06,0,3.72-.08,4.1.8s1.14,14.5.31,17.31-10.2,3.58-12.18,2.66c-1.37-2.5,3.12-5.62,4.95-6.54s-.46-6.16-3.05-6.16S309.21,484.36,309.21,484.36Z"/><path class="cls-29" d="M319.93,483.56a.77.77,0,0,0-.35-.34c-1.93-.26-3.35.81-3,1.64s2.39,13.74-.76,17.1c-1.62,1.71-5.9,1.7-6.12,1.9,8.68,0,10.17-1.77,10.53-3C321.07,498.06,320.31,484.43,319.93,483.56Z"/><path class="cls-46" d="M312.2,482.77,281.94,481c-1.74-2.39,7.63-12.36,9.38-16.19,8.17-15.43,6.94-22.4,6.94-22.4l-25.42-1s-7.79,31-9.83,42.38c-2.59,14.48,24.53,4.72,48.42,10C311.15,491.87,309.63,484.94,312.2,482.77Z"/><path class="cls-34" d="M283.56,366.87a6.17,6.17,0,0,0-5.88,4.29,3.36,3.36,0,0,0-.19,2c.32,1.29-.24,3.24-.82,4.66-1.06,2.67.71,7.36,2.43,9.67a3.81,3.81,0,0,0,3.85-.75l1.24,4.89,10.9-2.45a20,20,0,0,1,.28-9.83c1.47-5.92,1.07-8.92-2.77-11s-9-1.51-9-1.51"/><path class="cls-16" d="M279.7,359.49s2.8,2,11.53,2.87,8.87,6.93,7.59,10c2.56,1-3.29,10.37-3.39,14.06a10.94,10.94,0,0,1-8.78-.79,8,8,0,0,1-.5-6.21c1.2-3.23-.76-6.48-2.09-5.63-.28.19-.83,5.36-1.05,5.41a2.33,2.33,0,0,1-.65,0c-.38-.09.15-1.4-.2-3.65-.16-1.08-1.51-3.36-1.42-4a22.91,22.91,0,0,1,1.09-3.14l-1.87-.36s-2.08.15-2-1.83a18.42,18.42,0,0,1,1.74-6.73"/><path class="cls-13" d="M269.58,400.53s4.79-5.66,14.84-9.39a48.3,48.3,0,0,1,10-2.38,15.49,15.49,0,0,1,13.94,6.29c1.65,2.17,3.95,8,.68,16.15s-2.38,18.21-2.95,22.3c-.71,5.18.57,19.28.57,19.28s-.3,1.08-7.6,2.5l-3.82.74c-7.57,1-16.24,1.38-27.09-4.08,1.07-6,3.57-19.16,4.73-24.79s-3.33-26.62-3.33-26.62"/><path class="cls-34" d="M238.7,374.76a19.3,19.3,0,0,1-1.94-5.27,9.86,9.86,0,0,0-2.47-5.75,48.14,48.14,0,0,0-5.64-4.54c-.44-.17-1.78.22-.53,1.38s3.07,2.78,3,3.74c0,.58-3.07,3.94-1.72,6.49s.81.56,4.75,6.67C237.81,380.93,238.7,374.76,238.7,374.76Z"/><path class="cls-28" d="M281.26,399s-2.66-4.14-11.56-.25-18.24.16-18.24.16-9.6-22.6-11.43-24.42c-6.39,2.74-7.54,3.19-7.54,3.19s6.65,23.17,10.3,29.21,18.72,6.62,26.68,5.94S283.46,405,281.26,399Z"/><g class="cls-47"><polygon class="cls-48" points="304.86 186.29 211.74 132.53 211.74 131.76 304.86 185.53 304.86 186.29"/><polygon class="cls-48" points="304.86 177.76 211.74 123.99 211.74 123.22 304.86 176.99 304.86 177.76"/><polygon class="cls-48" points="304.86 169.22 211.74 115.45 211.74 114.69 304.86 168.45 304.86 169.22"/><polygon class="cls-48" points="304.86 160.68 211.74 106.92 211.74 106.15 304.86 159.91 304.86 160.68"/><polygon class="cls-48" points="304.86 152.14 211.74 98.38 211.74 97.61 304.86 151.37 304.86 152.14"/><polygon class="cls-48" points="304.86 143.6 211.74 89.84 211.74 89.07 304.86 142.84 304.86 143.6"/><polygon class="cls-48" points="304.86 135.07 211.74 81.31 211.74 80.53 304.86 134.3 304.86 135.07"/><polygon class="cls-48" points="304.86 126.01 211.74 72.25 211.74 71.48 304.86 125.24 304.86 126.01"/><polygon class="cls-48" points="304.86 117.47 211.74 63.71 211.74 62.94 304.86 116.7 304.86 117.47"/><polygon class="cls-48" points="304.86 108.94 211.74 55.17 211.74 54.4 304.86 108.16 304.86 108.94"/></g><polygon class="cls-17" points="304.28 186.41 291.16 120.87 279.68 135.83 269 111.88 258.7 105.07 248.24 87.26 238.5 124.84 226.18 101.64 214.51 134.01 213.39 133.6 225.97 98.72 238.12 121.59 247.81 84.18 259.58 104.23 269.95 111.08 279.95 133.52 291.81 118.07 305.44 186.18 304.28 186.41"/><polygon class="cls-49" points="304.28 186.42 291.22 125.77 279.74 144.71 269.12 121.56 258.84 122.8 248.08 105.41 238.37 124.39 226.19 105.87 214.5 134.03 213.4 133.58 225.96 103.35 238.24 122.04 247.98 102.99 259.45 121.53 269.84 120.27 279.89 142.18 291.75 122.6 305.44 186.17 304.28 186.42"/><polygon class="cls-24" points="304.31 186.5 291.08 150.8 279.43 151.46 269.29 127.86 259.11 138.85 247.85 124.88 238.17 129.13 226.16 116.9 214.44 134.14 213.46 133.47 225.99 115.03 238.44 127.71 248.2 123.42 259.18 137.04 269.67 125.71 280.19 150.22 291.89 149.56 305.42 186.09 304.31 186.5"/><polygon class="cls-15" points="304.34 186.58 291.11 162.95 279.41 161.59 269.14 138.19 258.97 141.11 247.99 130.4 238.27 138.26 226.01 126.17 214.29 134.29 213.61 133.32 226.14 124.63 238.35 136.67 248.06 128.81 259.31 139.78 269.81 136.77 280.22 160.49 291.85 161.84 305.38 186 304.34 186.58"/><path class="cls-50" d="M215,133.51c0,1-.57,1.74-1.26,1.74s-1.26-.78-1.26-1.74.57-1.74,1.26-1.74S215,132.55,215,133.51Z"/><path class="cls-50" d="M227.28,126c0,1-.56,1.74-1.25,1.74s-1.26-.78-1.26-1.74.56-1.74,1.26-1.74S227.28,125.05,227.28,126Z"/><path class="cls-50" d="M227.28,115.73c0,1-.56,1.74-1.25,1.74s-1.26-.78-1.26-1.74S225.33,114,226,114,227.28,114.77,227.28,115.73Z"/><path class="cls-50" d="M227.28,104.73c0,1-.56,1.74-1.25,1.74s-1.26-.78-1.26-1.74S225.33,103,226,103,227.28,103.77,227.28,104.73Z"/><path class="cls-50" d="M227.28,100.12c0,1-.56,1.74-1.25,1.74s-1.26-.78-1.26-1.74.56-1.73,1.26-1.73S227.28,99.16,227.28,100.12Z"/><ellipse class="cls-50" cx="247.9" cy="85.92" rx="1.26" ry="1.74"/><path class="cls-50" d="M249.63,104.12c0,1-.57,1.74-1.26,1.74s-1.26-.78-1.26-1.74.56-1.74,1.26-1.74S249.63,103.16,249.63,104.12Z"/><path class="cls-50" d="M249.14,124.27c0,1-.56,1.74-1.26,1.74s-1.25-.78-1.25-1.74.56-1.74,1.25-1.74S249.14,123.31,249.14,124.27Z"/><path class="cls-50" d="M249.14,130c0,1-.56,1.74-1.26,1.74s-1.25-.78-1.25-1.74.56-1.74,1.25-1.74S249.14,129.07,249.14,130Z"/><path class="cls-50" d="M260.35,140.51c0,1-.56,1.74-1.25,1.74s-1.26-.78-1.26-1.74.56-1.74,1.26-1.74S260.35,139.55,260.35,140.51Z"/><path class="cls-50" d="M260.35,137.49c0,1-.56,1.74-1.25,1.74s-1.26-.78-1.26-1.74.56-1.74,1.26-1.74S260.35,136.53,260.35,137.49Z"/><path class="cls-50" d="M260.35,122c0,1-.56,1.74-1.25,1.74s-1.26-.78-1.26-1.74.56-1.74,1.26-1.74S260.35,121.08,260.35,122Z"/><path class="cls-50" d="M260.35,104.73c0,1-.56,1.74-1.25,1.74s-1.26-.78-1.26-1.74.56-1.74,1.26-1.74S260.35,103.77,260.35,104.73Z"/><path class="cls-50" d="M270.75,111.67c0,1-.57,1.74-1.26,1.74s-1.26-.78-1.26-1.74.57-1.74,1.26-1.74S270.75,110.71,270.75,111.67Z"/><path class="cls-50" d="M270.75,120.79c0,1-.57,1.74-1.26,1.74s-1.26-.78-1.26-1.74.57-1.74,1.26-1.74S270.75,119.83,270.75,120.79Z"/><path class="cls-50" d="M270.75,126.93c0,1-.57,1.74-1.26,1.74s-1.26-.78-1.26-1.74.57-1.73,1.26-1.73S270.75,126,270.75,126.93Z"/><path class="cls-50" d="M270.75,138c0,1-.57,1.73-1.26,1.73s-1.26-.77-1.26-1.73.57-1.74,1.26-1.74S270.75,137,270.75,138Z"/><path class="cls-50" d="M281.22,161.32c0,1-.57,1.74-1.26,1.74s-1.26-.78-1.26-1.74.56-1.74,1.26-1.74S281.22,160.36,281.22,161.32Z"/><path class="cls-50" d="M281.22,150.77c0,1-.57,1.74-1.26,1.74s-1.26-.78-1.26-1.74S279.26,149,280,149,281.22,149.81,281.22,150.77Z"/><path class="cls-50" d="M281.22,143c0,1-.57,1.74-1.26,1.74s-1.26-.77-1.26-1.74.56-1.73,1.26-1.73S281.22,142,281.22,143Z"/><path class="cls-50" d="M281.22,134.52c0,1-.57,1.74-1.26,1.74s-1.26-.78-1.26-1.74.56-1.74,1.26-1.74S281.22,133.56,281.22,134.52Z"/><path class="cls-50" d="M292.72,119.21c0,1-.56,1.74-1.25,1.74s-1.26-.78-1.26-1.74.56-1.74,1.26-1.74S292.72,118.25,292.72,119.21Z"/><path class="cls-50" d="M292.72,123.78c0,1-.56,1.74-1.25,1.74s-1.26-.78-1.26-1.74.56-1.74,1.26-1.74S292.72,122.82,292.72,123.78Z"/><path class="cls-50" d="M292.72,150.49c0,1-.56,1.74-1.25,1.74s-1.26-.78-1.26-1.74.56-1.74,1.26-1.74S292.72,149.53,292.72,150.49Z"/><path class="cls-50" d="M292.72,162.42c0,1-.56,1.74-1.25,1.74s-1.26-.78-1.26-1.74.56-1.74,1.26-1.74S292.72,161.46,292.72,162.42Z"/><path class="cls-50" d="M306.12,185.88c0,1-.56,1.74-1.26,1.74s-1.26-.78-1.26-1.74.57-1.74,1.26-1.74S306.12,184.92,306.12,185.88Z"/><path class="cls-50" d="M239.76,128.06c0,1-.56,1.74-1.26,1.74s-1.26-.78-1.26-1.74.56-1.74,1.26-1.74S239.76,127.1,239.76,128.06Z"/><path class="cls-50" d="M239.28,123.46c0,1-.57,1.74-1.26,1.74s-1.26-.78-1.26-1.74.56-1.74,1.26-1.74S239.28,122.5,239.28,123.46Z"/><path class="cls-50" d="M239.28,137c0,1-.57,1.73-1.26,1.73s-1.26-.78-1.26-1.73.56-1.74,1.26-1.74S239.28,136.08,239.28,137Z"/><path class="cls-34" d="M234.81,75s2.6-1.14,3.14-2.48a7.25,7.25,0,0,1,1.17-2.4c.7-.89,1.72-2.6,2.73-3.11s1,1.23.43,1.76a4,4,0,0,0-.76,1.71s5.28-3,6.61-3,.25,1.34,0,1.43c1.43-.57,1.87-.25,2-.19s.19.89-.76,1.3c.5-.33,1.63.25-.67,1.94,1.19-.72,1.28.42.46,1.15s-3.82,3.63-7.09,3.92a13.17,13.17,0,0,0-5.39,1.62Z"/><path class="cls-18" d="M235.18,73s-23.92,7.55-25.93,10.12c-1.86,2.22-15.26-25.73-18.32-27s-8,5.45-4.7,13.85C192.8,86.77,207,96,210.07,94.45L238.6,80.18A14.64,14.64,0,0,0,235.18,73Z"/><path class="cls-13" d="M191.89,200s.82,1.55,2,3.25,4.23,1.73,4.95,2.65.63,3.9.63,3.9a12.37,12.37,0,0,1-7.78-1.31c-3.65-2.11-6.77-3.64-6.77-3.64a28.57,28.57,0,0,1,.29-4.7C185.46,199.45,191.89,200,191.89,200Z"/><path class="cls-28" d="M191.64,207.53c-3.6-2.08-6.68-3.59-6.76-3.63,0,.57,0,1,0,1s3.12,1.53,6.77,3.64a12.37,12.37,0,0,0,7.78,1.31s0-.41,0-1A12.36,12.36,0,0,1,191.64,207.53Z"/><path class="cls-16" d="M174.28,121s7.84,26.44,8.63,33.32-1.54,29.46,2,45.71c4.77,2.44,6.53,1.31,6.53,1.31l.83-2.11s3.29-36.63,3.13-45.17-1.65-32.7-1.65-32.7Z"/><path class="cls-13" d="M178.45,205.07s.78,1.56,1.88,3.29,4.32,3,5,3.91.55,3.92.55,3.92-5,.63-8.55-1.57a30.5,30.5,0,0,1-6-4.85,29.19,29.19,0,0,1,.39-4.7C172,204.36,178.45,205.07,178.45,205.07Z"/><path class="cls-28" d="M185.9,214.94s-5,.63-8.55-1.56a30.62,30.62,0,0,1-6-4.82c0,.69,0,1.21,0,1.21a30.5,30.5,0,0,0,6,4.85c3.6,2.2,8.55,1.57,8.55,1.57s0-.59,0-1.33Z"/><path class="cls-49" d="M162.56,125.7s7.28,26.7,7.93,33.59-2.78,30,.36,46.29c4.72,2.54,6.7,2,6.7,2l1.64-2s3.7-37.84,3.72-46.38-.94-32.72-.94-32.72Z"/><path class="cls-16" d="M175.78,51.11s-14.17,4.24-19,14.29,1.41,23,1.27,26.31.57,36.73.57,36.73l25.48.47,2.7-6.11,3.41,4.57,5.47-5.16s-2.1-30-1.68-36.28,3.14-22.7-2.42-30.5C187.35,52.67,177.07,50.67,175.78,51.11Z"/><path class="cls-20" d="M170.38,52.74s-5.48,4.45-4.93,7.42S184.24,78.69,185,83.08c3.25-6.23-.89-24.88-2.78-28.43S170.38,52.74,170.38,52.74Z"/><polygon class="cls-34" points="169.95 44.53 169.03 55 178.02 60.94 179.79 58.54 180.49 52.74 169.95 44.53"/><path class="cls-34" d="M186.51,35.55s2.65,16-5.56,19.81c-3.39.7-10.57-4-10.43-9.2-2.83-.57-2.83-5.94-1.41-7.07s2,1.83,2,1.83-1.35-7.21,2.9-7.28S186.51,35.55,186.51,35.55Z"/><path class="cls-16" d="M173.42,36.11s6.65,3.54,10.19,3,4.66-2.4,5.23-4.31-11.12-17.12-20.66-5.87c-4.31,1.41-3,16,1.53,18.37.08-.41.21-1.32.21-1.32a5.75,5.75,0,0,1-1.34-3.82c.21-2,.7-2.62,1.13-2.66s1.31,1.45,1.45,2.23a8.18,8.18,0,0,1,.07,1.73l1.06.18a11.66,11.66,0,0,1,.28-2.47C172.82,40.53,174.62,37.49,173.42,36.11Z"/><path class="cls-13" d="M178,60.94l-1.6,3.25,2,1.27,2.09,11.26L185,83.08s1.62-2.3,1.21-7.79c-3.23-5.45-5.67-10.19-5.67-10.19l.53-2.61Z"/><path class="cls-34" d="M171.73,128.16,166.21,130s2.68,3.34,2.28,4.88a5.48,5.48,0,0,0,.63,3.9l5.65-7.24A9.79,9.79,0,0,1,171.73,128.16Z"/><path class="cls-49" d="M173.52,129.38s-9.9-25.89-12.82-28.06c-2.52-2,3.46-22.68,4.76-26.13s-3.18-16.46-9.23-8.44-8.86,35.16-7.08,38.54,17.79,28.86,17.79,28.86A28.9,28.9,0,0,0,173.52,129.38Z"/><path class="cls-51" d="M224.09,563.69c0,15.59-21.63,28.23-48.3,28.23s-48.3-12.64-48.3-28.23,21.62-28.23,48.3-28.23S224.09,548.1,224.09,563.69Z"/><path class="cls-52" d="M256.81,541.76c0,15.6-21.63,28.24-48.3,28.24s-48.3-12.64-48.3-28.24,21.62-28.23,48.3-28.23S256.81,526.17,256.81,541.76Z"/><path class="cls-19" d="M192.69,563.9c.82-.39,1.62-.79,2.39-1.24a24.62,24.62,0,0,0,2.14-1.38,22.78,22.78,0,0,0,0-2.48c-1.95-1.94-4.42-1.76-3.72-2.55s5.24-1,9.24-1.26a10.32,10.32,0,0,0,1-3.59c-.07,0,.08-2.46,0-2.48-3.61-.93-7.85.56-8.09-.35s3.22-2.57,6.21-4.13c0-.06,0-2.48,0-2.48-3.93.48-11.14.37-12.33-.32s-.08-3.21.75-5.48v-2.48c-2.69,1.72-11.14,4.58-12.75,4.43s-3.27-2.57-4.91-4.68a49.57,49.57,0,0,0-6.22.56c-.41,2.31-.7,4.9-2.18,5.33s-5.22-1-8.72-2.15c-.82.39-3.76-.3-4.53.14v2.48c2,2,4.45,4.21,3.73,5s-5.95,1.25-9.95,1.5c-.55,1.18-.16,2.15-.26,3.35,3.66,1,7.85,1.9,8.11,2.84s-3.41.2-6.23,1.65v2.48a16.18,16.18,0,0,0,2.84,3.23c3.92-.48,8.3-1.13,9.5-.44s0,.9-.76,3c-.07.19.07,2.29,0,2.48a39.87,39.87,0,0,0,5.6,1.63c2.7-1.72,5.55-3.73,7.16-3.58s3.26,2.56,4.9,4.67a51.33,51.33,0,0,0,6.22-.55c.42-2.31.7-4.91,2.19-5.34S189.2,562.74,192.69,563.9Zm-29-7.39c-5.71-3.3-5.72-8.65,0-12s15-3.3,20.7,0,5.71,8.65,0,12S169.45,559.81,163.73,556.51Z"/><path class="cls-13" d="M192.69,561.42c.82-.38,1.62-.79,2.39-1.24a24.62,24.62,0,0,0,2.14-1.38c-2-2-4.45-4.2-3.72-5s5.24-1,9.24-1.26a10.26,10.26,0,0,0,1-3.59c-3.66-.95-7.84-1.9-8.09-2.83s3.22-2.58,6.21-4.13a16.15,16.15,0,0,0-2.83-3.23c-3.94.48-8.31,1.12-9.5.43s-.08-3.21.75-5.48a41.13,41.13,0,0,0-5.59-1.64c-2.7,1.73-5.55,3.74-7.16,3.59s-3.27-2.56-4.91-4.68a51.52,51.52,0,0,0-6.22.56c-.41,2.31-.7,4.9-2.18,5.34s-5.22-1-8.72-2.16c-.82.39-1.62.8-2.39,1.24a24.62,24.62,0,0,0-2.14,1.38c2,2,4.45,4.21,3.73,5s-5.24,1-9.24,1.26a10.5,10.5,0,0,0-1,3.59c3.66.94,7.85,1.89,8.11,2.83s-3.24,2.57-6.23,4.13a16.18,16.18,0,0,0,2.84,3.23c3.92-.48,8.3-1.12,9.5-.43s.08,3.21-.76,5.48a41.27,41.27,0,0,0,5.6,1.64c2.7-1.73,5.55-3.74,7.16-3.59s3.26,2.56,4.9,4.68a49.41,49.41,0,0,0,6.22-.57c.42-2.3.7-4.89,2.19-5.33S189.2,560.26,192.69,561.42Zm-29-7.39c-5.71-3.3-5.72-8.65,0-11.94s15-3.31,20.7,0,5.71,8.64,0,11.94S169.45,557.33,163.73,554Z"/><path class="cls-19" d="M223.43,539.41a16.12,16.12,0,0,0,1.49-.77c.49-.28.93-.57,1.35-.86,0,0,.06-2.24,0-2.29-1.22-1.22-2.77-.38-2.33-.87s3.28-.64,5.79-.8a6.55,6.55,0,0,0,.6-2.25s0-2.27,0-2.28c-2.26-.58-4.92,1.08-5.07.51s2-1.61,3.9-2.59c0,0,0-2.29,0-2.29-2.47.3-7,1-7.74.54s0-2,.47-3.45v-2.28c-1.69,1.08-7,3.6-8,3.51s-2-1.61-3.07-2.93a29.75,29.75,0,0,0-3.9.35c-.27,1.44-.45,3.07-1.37,3.34s-3.28-.62-5.47-1.35c-.52.24-2.36-.92-2.84-.64v2.28c1.25,1.27,2.79,2.64,2.33,3.16s-3.89.6-6.4.76c0,0,.07,1.53,0,2.28,2.3.6,4.92,1.19,5.09,1.78s-2.14-.6-3.91.31v2.28a10,10,0,0,0,1.78,2c2.46-.31,5.17-.63,6-.27.21.09,0-.17-.48,1.15,0,.12,0,2.17,0,2.29a24.7,24.7,0,0,0,3.52,1c1.69-1.08,3.48-2.34,4.49-2.25s2,1.61,3.07,2.93a31.4,31.4,0,0,0,3.9-.34c.26-1.45.44-3.08,1.37-3.35S221.24,538.69,223.43,539.41Zm-18.16-4.63c-3.59-2.07-3.59-5.42,0-7.49a14.36,14.36,0,0,1,13,0c3.58,2.07,3.58,5.42,0,7.49A14.32,14.32,0,0,1,205.27,534.78Z"/><path class="cls-13" d="M223.43,537.13c.51-.24,1-.5,1.49-.78a13.58,13.58,0,0,0,1.35-.86c-1.26-1.27-2.79-2.64-2.33-3.16s3.28-.64,5.79-.79a6.61,6.61,0,0,0,.6-2.25c-2.29-.59-4.91-1.19-5.07-1.78s2-1.61,3.9-2.59a10.32,10.32,0,0,0-1.78-2c-2.47.3-5.21.7-6,.27s0-2,.47-3.44a25.53,25.53,0,0,0-3.51-1c-1.69,1.08-3.48,2.34-4.49,2.25s-2-1.6-3.07-2.93a31.57,31.57,0,0,0-3.9.35c-.27,1.45-.45,3.07-1.37,3.35s-3.28-.63-5.47-1.35c-.52.24-1,.49-1.5.77a15.5,15.5,0,0,0-1.34.87c1.25,1.26,2.79,2.64,2.33,3.15s-3.29.64-5.79.8a6.63,6.63,0,0,0-.61,2.25c2.3.59,4.92,1.19,5.09,1.77s-2,1.62-3.91,2.6a10,10,0,0,0,1.78,2c2.46-.3,5.21-.7,6-.27s0,2-.48,3.44a26.09,26.09,0,0,0,3.52,1c1.69-1.09,3.48-2.35,4.49-2.26s2,1.61,3.07,2.94a33.44,33.44,0,0,0,3.9-.35c.26-1.45.44-3.08,1.37-3.35S221.24,536.4,223.43,537.13Zm-18.16-4.63c-3.59-2.08-3.59-5.43,0-7.5a14.36,14.36,0,0,1,13,0c3.58,2.07,3.58,5.42,0,7.5A14.38,14.38,0,0,1,205.27,532.5Z"/></g></g></g></svg>