<svg xmlns="http://www.w3.org/2000/svg" viewBox="0 0 841.24 732.73"><defs><style>.cls-1{fill:#ececec;}.cls-2{fill:#dbdbdb;}.cls-3{fill:#fafafa;}.cls-4{fill:#f0f0f0;}.cls-5{fill:#08d0c0;}.cls-6{fill:#019892;}.cls-7{fill:#03283a;}.cls-8{fill:#e1e1e1;}.cls-9{fill:#f5f5f5;}.cls-10{fill:#1a2e35;}.cls-11,.cls-26{opacity:0.6;}.cls-11,.cls-13,.cls-14,.cls-18,.cls-26,.cls-27,.cls-28,.cls-29,.cls-37{isolation:isolate;}.cls-12,.cls-18,.cls-23,.cls-24,.cls-26,.cls-27,.cls-28,.cls-29,.cls-33,.cls-34{fill:#fff;}.cls-13,.cls-14,.cls-27,.cls-34{opacity:0.2;}.cls-15{fill:#0acebe;}.cls-16{fill:#007cff;}.cls-17{fill:#fcb373;}.cls-18{opacity:0.4;}.cls-19{fill:#ec873e;}.cls-20,.cls-22,.cls-36,.cls-39{fill:none;}.cls-20{stroke:#263237;stroke-width:1.43px;}.cls-20,.cls-36,.cls-39{stroke-linecap:round;}.cls-20,.cls-36{stroke-linejoin:round;}.cls-21{fill:#fd5652;}.cls-22,.cls-36{stroke:#1a2e35;stroke-width:0.98px;}.cls-22,.cls-38,.cls-39{stroke-miterlimit:10;}.cls-23,.cls-29{opacity:0.1;}.cls-24,.cls-37{opacity:0.3;}.cls-25{fill:#003854;}.cls-30{fill:#c6f7f2;}.cls-31{fill:#263237;}.cls-32{fill:#17aea9;}.cls-33{opacity:0.9;}.cls-35{fill:#fd897b;}.cls-38{fill:#e5e5e5;}.cls-38,.cls-39{stroke:#748084;stroke-width:2.79px;}.cls-40{font-size:19.12px;fill:#748084;font-family:LouisGeorgeCafe-Bold, Louis George Café;font-weight:700;}</style></defs><title>OUTSOURCING</title><g id="Layer_2" data-name="Layer 2"><g id="Layer_1-2" data-name="Layer 1"><rect class="cls-1" y="643.91" width="841.24" height="0.49"/><rect class="cls-1" x="749.59" y="675.57" width="65.13" height="0.49"/><rect class="cls-1" x="564.24" y="680.9" width="17.1" height="0.49"/><rect class="cls-1" x="709.88" y="657.31" width="37.74" height="0.49"/><rect class="cls-1" x="33.16" y="660.61" width="84.94" height="0.49"/><rect class="cls-1" x="135.61" y="660.61" width="12.45" height="0.49"/><rect class="cls-1" x="188.53" y="668.91" width="184.21" height="0.49"/><path class="cls-2" d="M396.08,556.21H16.36A11.24,11.24,0,0,1,5.13,545V11.22A11.24,11.24,0,0,1,16.36,0H396.08A11.23,11.23,0,0,1,407.3,11.22V545A11.23,11.23,0,0,1,396.08,556.21ZM16.36.49A10.75,10.75,0,0,0,5.62,11.22V545a10.75,10.75,0,0,0,10.74,10.73H396.08A10.74,10.74,0,0,0,406.81,545V11.22A10.74,10.74,0,0,0,396.08.49Z"/><path class="cls-2" d="M821.42,556.21H441.7A11.23,11.23,0,0,1,430.48,545V11.22A11.23,11.23,0,0,1,441.7,0H821.42a11.24,11.24,0,0,1,11.23,11.22V545A11.24,11.24,0,0,1,821.42,556.21ZM441.7.49A10.74,10.74,0,0,0,431,11.22V545a10.74,10.74,0,0,0,10.73,10.73H821.42A10.75,10.75,0,0,0,832.16,545V11.22A10.75,10.75,0,0,0,821.42.49Z"/><rect class="cls-1" x="430.25" y="129.31" width="333.35" height="373.47"/><rect class="cls-3" x="430.25" y="135.34" width="326.81" height="360.83"/><polygon class="cls-4" points="744.98 326.86 744.98 301.51 737.74 301.51 737.74 284.61 728.08 284.61 728.08 259.25 725.67 259.25 725.67 284.61 716.01 284.61 716.01 301.51 708.76 301.51 708.76 326.86 695.49 326.86 695.49 334.1 689.45 334.1 689.45 361.87 688.24 361.87 688.24 322.03 684.62 322.03 684.62 347.38 681 347.38 681 287.02 678.58 287.02 678.58 312.37 668.93 312.37 668.93 303.92 665.3 303.92 665.3 268.91 658.06 268.91 658.06 233.9 655.65 233.9 655.65 238.73 606.15 238.73 606.15 224.24 597.7 224.24 597.7 168.71 594.08 168.71 594.08 224.24 582.01 224.24 582.01 238.73 577.18 238.73 577.18 311.16 551.82 311.16 551.82 289.43 560.27 289.43 560.27 285.81 551.82 285.81 551.82 279.78 527.68 279.78 527.68 224.24 521.64 224.24 521.64 215.79 492.67 215.79 492.67 224.24 489.05 224.24 489.05 301.51 475.77 301.51 475.77 336.52 468.53 336.52 468.53 308.75 462.49 308.75 462.49 301.51 449.21 301.51 449.21 276.15 441.97 276.15 441.97 259.25 433.52 259.25 433.52 233.9 430.25 233.9 430.25 496.16 757.05 496.16 757.05 326.86 744.98 326.86"/><rect class="cls-3" x="624.64" y="242.51" width="3.42" height="3.42"/><rect class="cls-3" x="624.64" y="248.25" width="3.42" height="3.42"/><rect class="cls-3" x="624.64" y="271.19" width="3.42" height="3.42"/><rect class="cls-3" x="624.64" y="276.92" width="3.42" height="3.42"/><rect class="cls-3" x="624.64" y="282.66" width="3.42" height="3.42"/><rect class="cls-3" x="624.64" y="299.86" width="3.42" height="3.42"/><rect class="cls-3" x="624.64" y="305.59" width="3.42" height="3.42"/><rect class="cls-3" x="619.2" y="265.45" width="3.42" height="3.42"/><rect class="cls-3" x="619.2" y="271.19" width="3.42" height="3.42"/><rect class="cls-3" x="619.2" y="276.92" width="3.42" height="3.42"/><rect class="cls-3" x="619.2" y="282.66" width="3.42" height="3.42"/><rect class="cls-3" x="619.2" y="288.39" width="3.42" height="3.42"/><rect class="cls-3" x="619.2" y="299.86" width="3.42" height="3.42"/><rect class="cls-3" x="619.2" y="305.59" width="3.42" height="3.42"/><rect class="cls-3" x="613.77" y="242.51" width="3.42" height="3.42"/><rect class="cls-3" x="613.77" y="248.25" width="3.42" height="3.42"/><rect class="cls-3" x="613.77" y="253.98" width="3.42" height="3.42"/><rect class="cls-3" x="613.77" y="259.72" width="3.42" height="3.42"/><rect class="cls-3" x="613.77" y="265.45" width="3.42" height="3.42"/><rect class="cls-3" x="613.77" y="271.19" width="3.42" height="3.42"/><rect class="cls-3" x="613.77" y="276.92" width="3.42" height="3.42"/><rect class="cls-3" x="613.77" y="282.66" width="3.42" height="3.42"/><rect class="cls-3" x="613.77" y="288.39" width="3.42" height="3.42"/><rect class="cls-3" x="613.77" y="294.12" width="3.42" height="3.42"/><rect class="cls-3" x="613.77" y="305.59" width="3.42" height="3.42"/><rect class="cls-3" x="608.34" y="242.51" width="3.42" height="3.42"/><rect class="cls-3" x="608.34" y="248.25" width="3.42" height="3.42"/><rect class="cls-3" x="608.34" y="253.98" width="3.42" height="3.42"/><rect class="cls-3" x="608.34" y="259.72" width="3.42" height="3.42"/><rect class="cls-3" x="608.34" y="265.45" width="3.42" height="3.42"/><rect class="cls-3" x="608.34" y="271.19" width="3.42" height="3.42"/><rect class="cls-3" x="608.34" y="276.92" width="3.42" height="3.42"/><rect class="cls-3" x="608.34" y="328.53" width="3.42" height="3.42"/><rect class="cls-3" x="602.9" y="242.51" width="3.42" height="3.42"/><rect class="cls-3" x="602.9" y="248.25" width="3.42" height="3.42"/><rect class="cls-3" x="602.9" y="253.98" width="3.42" height="3.42"/><rect class="cls-3" x="602.9" y="259.72" width="3.42" height="3.42"/><rect class="cls-3" x="602.9" y="265.45" width="3.42" height="3.42"/><rect class="cls-3" x="602.9" y="271.19" width="3.42" height="3.42"/><rect class="cls-3" x="602.9" y="276.92" width="3.42" height="3.42"/><rect class="cls-3" x="602.9" y="282.66" width="3.42" height="3.42"/><rect class="cls-3" x="602.9" y="317.06" width="3.42" height="3.42"/><rect class="cls-3" x="602.9" y="322.8" width="3.42" height="3.42"/><rect class="cls-3" x="602.9" y="328.53" width="3.42" height="3.42"/><rect class="cls-3" x="602.9" y="334.26" width="3.42" height="3.42"/><rect class="cls-3" x="602.9" y="357.2" width="3.42" height="3.42"/><rect class="cls-3" x="597.47" y="242.51" width="3.42" height="3.42"/><rect class="cls-3" x="597.47" y="248.25" width="3.42" height="3.42"/><rect class="cls-3" x="597.47" y="253.98" width="3.42" height="3.42"/><rect class="cls-3" x="597.47" y="259.72" width="3.42" height="3.42"/><rect class="cls-3" x="597.47" y="265.45" width="3.42" height="3.42"/><rect class="cls-3" x="597.47" y="271.19" width="3.42" height="3.42"/><rect class="cls-3" x="597.47" y="276.92" width="3.42" height="3.42"/><rect class="cls-3" x="597.47" y="282.66" width="3.42" height="3.42"/><rect class="cls-3" x="597.47" y="288.39" width="3.42" height="3.42"/><rect class="cls-3" x="597.47" y="294.12" width="3.42" height="3.42"/><rect class="cls-3" x="597.47" y="311.33" width="3.42" height="3.42"/><rect class="cls-3" x="597.47" y="317.06" width="3.42" height="3.42"/><rect class="cls-3" x="597.47" y="322.8" width="3.42" height="3.42"/><rect class="cls-3" x="597.47" y="328.53" width="3.42" height="3.42"/><rect class="cls-3" x="597.47" y="334.26" width="3.42" height="3.42"/><rect class="cls-3" x="597.47" y="357.2" width="3.42" height="3.42"/><rect class="cls-3" x="592.04" y="242.51" width="3.42" height="3.42"/><rect class="cls-3" x="592.04" y="248.25" width="3.42" height="3.42"/><rect class="cls-3" x="592.04" y="253.98" width="3.42" height="3.42"/><rect class="cls-3" x="592.04" y="259.72" width="3.42" height="3.42"/><rect class="cls-3" x="592.04" y="265.45" width="3.42" height="3.42"/><rect class="cls-3" x="592.04" y="271.19" width="3.42" height="3.42"/><rect class="cls-3" x="592.04" y="276.92" width="3.42" height="3.42"/><rect class="cls-3" x="592.04" y="282.66" width="3.42" height="3.42"/><rect class="cls-3" x="592.04" y="288.39" width="3.42" height="3.42"/><rect class="cls-3" x="592.04" y="294.12" width="3.42" height="3.42"/><rect class="cls-3" x="592.04" y="299.86" width="3.42" height="3.42"/><rect class="cls-3" x="592.04" y="305.59" width="3.42" height="3.42"/><rect class="cls-3" x="592.04" y="311.33" width="3.42" height="3.42"/><rect class="cls-3" x="592.04" y="317.06" width="3.42" height="3.42"/><rect class="cls-3" x="592.04" y="322.8" width="3.42" height="3.42"/><rect class="cls-3" x="592.04" y="328.53" width="3.42" height="3.42"/><rect class="cls-3" x="592.04" y="334.26" width="3.42" height="3.42"/><rect class="cls-3" x="592.04" y="340" width="3.42" height="3.42"/><rect class="cls-3" x="586.61" y="242.51" width="3.42" height="3.42"/><rect class="cls-3" x="586.61" y="248.25" width="3.42" height="3.42"/><rect class="cls-3" x="586.61" y="253.98" width="3.42" height="3.42"/><rect class="cls-3" x="586.61" y="259.72" width="3.42" height="3.42"/><rect class="cls-3" x="586.61" y="265.45" width="3.42" height="3.42"/><rect class="cls-3" x="586.61" y="271.19" width="3.42" height="3.42"/><rect class="cls-3" x="586.61" y="276.92" width="3.42" height="3.42"/><rect class="cls-3" x="586.61" y="282.66" width="3.42" height="3.42"/><rect class="cls-3" x="586.61" y="288.39" width="3.42" height="3.42"/><rect class="cls-3" x="586.61" y="294.12" width="3.42" height="3.42"/><rect class="cls-3" x="586.61" y="311.33" width="3.42" height="3.42"/><rect class="cls-3" x="586.61" y="317.06" width="3.42" height="3.42"/><rect class="cls-3" x="586.61" y="322.8" width="3.42" height="3.42"/><rect class="cls-3" x="586.61" y="328.53" width="3.42" height="3.42"/><rect class="cls-3" x="581.17" y="242.51" width="3.42" height="3.42"/><rect class="cls-3" x="581.17" y="248.25" width="3.42" height="3.42"/><rect class="cls-3" x="581.17" y="253.98" width="3.42" height="3.42"/><rect class="cls-3" x="581.17" y="259.72" width="3.42" height="3.42"/><rect class="cls-3" x="581.17" y="265.45" width="3.42" height="3.42"/><rect class="cls-3" x="581.17" y="271.19" width="3.42" height="3.42"/><rect class="cls-3" x="581.17" y="276.92" width="3.42" height="3.42"/><rect class="cls-3" x="581.17" y="282.66" width="3.42" height="3.42"/><rect class="cls-3" x="581.17" y="288.39" width="3.42" height="3.42"/><rect class="cls-3" x="581.17" y="294.12" width="3.42" height="3.42"/><rect class="cls-3" x="581.17" y="311.33" width="3.42" height="3.42"/><rect class="cls-3" x="581.17" y="317.06" width="3.42" height="3.42"/><rect class="cls-3" x="581.17" y="322.8" width="3.42" height="3.42"/><rect class="cls-3" x="520.01" y="227.63" width="3.42" height="3.42"/><rect class="cls-3" x="520.01" y="233.36" width="3.42" height="3.42"/><rect class="cls-3" x="520.01" y="239.09" width="3.42" height="3.42"/><rect class="cls-3" x="520.01" y="244.83" width="3.42" height="3.42"/><rect class="cls-3" x="520.01" y="250.56" width="3.42" height="3.42"/><rect class="cls-3" x="520.01" y="256.3" width="3.42" height="3.42"/><rect class="cls-3" x="520.01" y="262.03" width="3.42" height="3.42"/><rect class="cls-3" x="520.01" y="267.77" width="3.42" height="3.42"/><rect class="cls-3" x="520.01" y="284.97" width="3.42" height="3.42"/><rect class="cls-3" x="520.01" y="290.7" width="3.42" height="3.42"/><rect class="cls-3" x="514.58" y="227.63" width="3.42" height="3.42"/><rect class="cls-3" x="514.58" y="233.36" width="3.42" height="3.42"/><rect class="cls-3" x="514.58" y="239.09" width="3.42" height="3.42"/><rect class="cls-3" x="514.58" y="244.83" width="3.42" height="3.42"/><rect class="cls-3" x="514.58" y="250.56" width="3.42" height="3.42"/><rect class="cls-3" x="514.58" y="256.3" width="3.42" height="3.42"/><rect class="cls-3" x="514.58" y="262.03" width="3.42" height="3.42"/><rect class="cls-3" x="514.58" y="267.77" width="3.42" height="3.42"/><rect class="cls-3" x="514.58" y="290.7" width="3.42" height="3.42"/><rect class="cls-3" x="509.14" y="227.63" width="3.42" height="3.42"/><rect class="cls-3" x="509.14" y="233.36" width="3.42" height="3.42"/><rect class="cls-3" x="509.14" y="239.09" width="3.42" height="3.42"/><rect class="cls-3" x="509.14" y="244.83" width="3.42" height="3.42"/><rect class="cls-3" x="509.14" y="250.56" width="3.42" height="3.42"/><rect class="cls-3" x="509.14" y="256.3" width="3.42" height="3.42"/><rect class="cls-3" x="509.14" y="262.03" width="3.42" height="3.42"/><rect class="cls-3" x="509.14" y="267.77" width="3.42" height="3.42"/><rect class="cls-3" x="503.71" y="227.63" width="3.42" height="3.42"/><rect class="cls-3" x="503.71" y="233.36" width="3.42" height="3.42"/><rect class="cls-3" x="503.71" y="239.09" width="3.42" height="3.42"/><rect class="cls-3" x="503.71" y="244.83" width="3.42" height="3.42"/><rect class="cls-3" x="503.71" y="250.56" width="3.42" height="3.42"/><rect class="cls-3" x="503.71" y="256.3" width="3.42" height="3.42"/><rect class="cls-3" x="503.71" y="267.77" width="3.42" height="3.42"/><rect class="cls-3" x="503.71" y="273.5" width="3.42" height="3.42"/><rect class="cls-3" x="503.71" y="290.7" width="3.42" height="3.42"/><rect class="cls-3" x="503.71" y="296.44" width="3.42" height="3.42"/><rect class="cls-3" x="503.71" y="302.17" width="3.42" height="3.42"/><rect class="cls-3" x="503.71" y="307.91" width="3.42" height="3.42"/><rect class="cls-3" x="503.71" y="313.64" width="3.42" height="3.42"/><rect class="cls-3" x="503.71" y="319.38" width="3.42" height="3.42"/><rect class="cls-3" x="503.71" y="325.11" width="3.42" height="3.42"/><rect class="cls-3" x="498.28" y="227.63" width="3.42" height="3.42"/><rect class="cls-3" x="498.28" y="233.36" width="3.42" height="3.42"/><rect class="cls-3" x="498.28" y="239.09" width="3.42" height="3.42"/><rect class="cls-3" x="498.28" y="244.83" width="3.42" height="3.42"/><rect class="cls-3" x="498.28" y="250.56" width="3.42" height="3.42"/><rect class="cls-3" x="498.28" y="256.3" width="3.42" height="3.42"/><rect class="cls-3" x="498.28" y="273.5" width="3.42" height="3.42"/><rect class="cls-3" x="498.28" y="279.23" width="3.42" height="3.42"/><rect class="cls-3" x="498.28" y="284.97" width="3.42" height="3.42"/><rect class="cls-3" x="498.28" y="290.7" width="3.42" height="3.42"/><rect class="cls-3" x="498.28" y="296.44" width="3.42" height="3.42"/><rect class="cls-3" x="498.28" y="302.17" width="3.42" height="3.42"/><rect class="cls-3" x="498.28" y="307.91" width="3.42" height="3.42"/><rect class="cls-3" x="498.28" y="313.64" width="3.42" height="3.42"/><rect class="cls-3" x="498.28" y="319.38" width="3.42" height="3.42"/><rect class="cls-3" x="498.28" y="325.11" width="3.42" height="3.42"/><rect class="cls-3" x="498.28" y="330.84" width="3.42" height="3.42"/><rect class="cls-3" x="498.28" y="342.31" width="3.42" height="3.42"/><rect class="cls-3" x="492.85" y="227.63" width="3.42" height="3.42"/><rect class="cls-3" x="492.85" y="233.36" width="3.42" height="3.42"/><rect class="cls-3" x="492.85" y="239.09" width="3.42" height="3.42"/><rect class="cls-3" x="492.85" y="244.83" width="3.42" height="3.42"/><rect class="cls-3" x="492.85" y="250.56" width="3.42" height="3.42"/><rect class="cls-3" x="492.85" y="256.3" width="3.42" height="3.42"/><rect class="cls-3" x="492.85" y="273.5" width="3.42" height="3.42"/><rect class="cls-3" x="492.85" y="279.23" width="3.42" height="3.42"/><rect class="cls-3" x="492.85" y="284.97" width="3.42" height="3.42"/><rect class="cls-3" x="492.85" y="290.7" width="3.42" height="3.42"/><rect class="cls-3" x="492.85" y="307.91" width="3.42" height="3.42"/><rect class="cls-3" x="492.85" y="313.64" width="3.42" height="3.42"/><rect class="cls-3" x="492.85" y="319.38" width="3.42" height="3.42"/><rect class="cls-3" x="492.85" y="325.11" width="3.42" height="3.42"/><rect class="cls-3" x="492.85" y="330.84" width="3.42" height="3.42"/><rect class="cls-3" x="492.85" y="342.31" width="3.42" height="3.42"/><rect class="cls-3" x="492.85" y="348.05" width="3.42" height="3.42"/><rect class="cls-3" x="443.55" y="280.95" width="3.42" height="3.42"/><rect class="cls-3" x="443.55" y="286.68" width="3.42" height="3.42"/><rect class="cls-3" x="443.55" y="292.41" width="3.42" height="3.42"/><rect class="cls-3" x="443.55" y="298.15" width="3.42" height="3.42"/><rect class="cls-3" x="443.55" y="303.88" width="3.42" height="3.42"/><rect class="cls-3" x="443.55" y="309.62" width="3.42" height="3.42"/><rect class="cls-3" x="443.55" y="315.35" width="3.42" height="3.42"/><rect class="cls-3" x="443.55" y="332.55" width="3.42" height="3.42"/><rect class="cls-3" x="443.55" y="338.29" width="3.42" height="3.42"/><rect class="cls-3" x="443.55" y="344.02" width="3.42" height="3.42"/><rect class="cls-3" x="438.12" y="280.95" width="3.42" height="3.42"/><rect class="cls-3" x="438.12" y="286.68" width="3.42" height="3.42"/><rect class="cls-3" x="438.12" y="292.41" width="3.42" height="3.42"/><rect class="cls-3" x="438.12" y="298.15" width="3.42" height="3.42"/><rect class="cls-3" x="438.12" y="303.88" width="3.42" height="3.42"/><rect class="cls-3" x="438.12" y="309.62" width="3.42" height="3.42"/><rect class="cls-3" x="438.12" y="315.35" width="3.42" height="3.42"/><rect class="cls-3" x="431.19" y="280.95" width="4.91" height="3.42"/><rect class="cls-3" x="431.19" y="286.68" width="4.91" height="3.42"/><rect class="cls-3" x="431.19" y="292.41" width="4.91" height="3.42"/><rect class="cls-3" x="431.19" y="298.15" width="4.91" height="3.42"/><rect class="cls-3" x="431.19" y="303.88" width="4.91" height="3.42"/><rect class="cls-3" x="431.19" y="309.62" width="4.91" height="3.42"/><rect class="cls-3" x="431.19" y="315.35" width="4.91" height="3.42"/><rect class="cls-3" x="731.48" y="288.39" width="3.42" height="3.42"/><rect class="cls-3" x="731.48" y="294.12" width="3.42" height="3.42"/><rect class="cls-3" x="731.48" y="299.86" width="3.42" height="3.42"/><rect class="cls-3" x="731.48" y="305.59" width="3.42" height="3.42"/><rect class="cls-3" x="731.48" y="311.33" width="3.42" height="3.42"/><rect class="cls-3" x="731.48" y="317.06" width="3.42" height="3.42"/><rect class="cls-3" x="731.48" y="322.8" width="3.42" height="3.42"/><rect class="cls-3" x="731.48" y="328.53" width="3.42" height="3.42"/><rect class="cls-3" x="731.48" y="334.26" width="3.42" height="3.42"/><rect class="cls-3" x="731.48" y="340" width="3.42" height="3.42"/><rect class="cls-3" x="731.48" y="345.73" width="3.42" height="3.42"/><rect class="cls-3" x="731.48" y="351.47" width="3.42" height="3.42"/><rect class="cls-3" x="731.48" y="357.2" width="3.42" height="3.42"/><rect class="cls-3" x="731.48" y="362.94" width="3.42" height="3.42"/><rect class="cls-3" x="731.48" y="368.67" width="3.42" height="3.42"/><rect class="cls-3" x="731.48" y="374.41" width="3.42" height="3.42"/><rect class="cls-3" x="731.48" y="380.14" width="3.42" height="3.42"/><rect class="cls-3" x="731.48" y="385.87" width="3.42" height="3.42"/><rect class="cls-3" x="731.48" y="391.61" width="3.42" height="3.42"/><rect class="cls-3" x="731.48" y="397.34" width="3.42" height="3.42"/><rect class="cls-3" x="726.04" y="288.39" width="3.42" height="3.42"/><rect class="cls-3" x="726.04" y="294.12" width="3.42" height="3.42"/><rect class="cls-3" x="726.04" y="299.86" width="3.42" height="3.42"/><rect class="cls-3" x="726.04" y="305.59" width="3.42" height="3.42"/><rect class="cls-3" x="726.04" y="311.33" width="3.42" height="3.42"/><rect class="cls-3" x="726.04" y="317.06" width="3.42" height="3.42"/><rect class="cls-3" x="726.04" y="322.8" width="3.42" height="3.42"/><rect class="cls-3" x="726.04" y="328.53" width="3.42" height="3.42"/><rect class="cls-3" x="726.04" y="334.26" width="3.42" height="3.42"/><rect class="cls-3" x="726.04" y="340" width="3.42" height="3.42"/><rect class="cls-3" x="726.04" y="345.73" width="3.42" height="3.42"/><rect class="cls-3" x="726.04" y="351.47" width="3.42" height="3.42"/><rect class="cls-3" x="726.04" y="357.2" width="3.42" height="3.42"/><rect class="cls-3" x="726.04" y="362.94" width="3.42" height="3.42"/><rect class="cls-3" x="726.04" y="368.67" width="3.42" height="3.42"/><rect class="cls-3" x="726.04" y="374.41" width="3.42" height="3.42"/><rect class="cls-3" x="726.04" y="380.14" width="3.42" height="3.42"/><rect class="cls-3" x="726.04" y="385.87" width="3.42" height="3.42"/><rect class="cls-3" x="720.61" y="288.39" width="3.42" height="3.42"/><rect class="cls-3" x="720.61" y="294.12" width="3.42" height="3.42"/><rect class="cls-3" x="720.61" y="299.86" width="3.42" height="3.42"/><rect class="cls-3" x="720.61" y="305.59" width="3.42" height="3.42"/><rect class="cls-3" x="720.61" y="311.33" width="3.42" height="3.42"/><rect class="cls-3" x="720.61" y="317.06" width="3.42" height="3.42"/><rect class="cls-3" x="720.61" y="322.8" width="3.42" height="3.42"/><rect class="cls-3" x="720.61" y="328.53" width="3.42" height="3.42"/><rect class="cls-3" x="720.61" y="334.26" width="3.42" height="3.42"/><rect class="cls-3" x="720.61" y="340" width="3.42" height="3.42"/><rect class="cls-3" x="720.61" y="345.73" width="3.42" height="3.42"/><rect class="cls-3" x="720.61" y="351.47" width="3.42" height="3.42"/><rect class="cls-3" x="720.61" y="357.2" width="3.42" height="3.42"/><rect class="cls-3" x="720.61" y="362.94" width="3.42" height="3.42"/><rect class="cls-3" x="720.61" y="368.67" width="3.42" height="3.42"/><rect class="cls-3" x="720.61" y="374.41" width="3.42" height="3.42"/><rect class="cls-3" x="720.61" y="380.14" width="3.42" height="3.42"/><rect class="cls-3" x="720.61" y="385.87" width="3.42" height="3.42"/><rect class="cls-3" x="751.8" y="330.24" width="3.42" height="3.42"/><rect class="cls-3" x="751.8" y="335.97" width="3.42" height="3.42"/><rect class="cls-3" x="751.8" y="341.71" width="3.42" height="3.42"/><rect class="cls-3" x="751.8" y="347.44" width="3.42" height="3.42"/><rect class="cls-3" x="751.8" y="353.18" width="3.42" height="3.42"/><rect class="cls-3" x="751.8" y="358.91" width="3.42" height="3.42"/><rect class="cls-3" x="751.8" y="364.65" width="3.42" height="3.42"/><rect class="cls-3" x="751.8" y="370.38" width="3.42" height="3.42"/><rect class="cls-3" x="751.8" y="376.12" width="3.42" height="3.42"/><rect class="cls-3" x="751.8" y="381.85" width="3.42" height="3.42"/><rect class="cls-3" x="751.8" y="387.58" width="3.42" height="3.42"/><rect class="cls-3" x="751.8" y="393.32" width="3.42" height="3.42"/><rect class="cls-3" x="751.8" y="399.05" width="3.42" height="3.42"/><rect class="cls-3" x="746.36" y="330.24" width="3.42" height="3.42"/><rect class="cls-3" x="746.36" y="335.97" width="3.42" height="3.42"/><rect class="cls-3" x="746.36" y="341.71" width="3.42" height="3.42"/><rect class="cls-3" x="746.36" y="347.44" width="3.42" height="3.42"/><rect class="cls-3" x="746.36" y="353.18" width="3.42" height="3.42"/><rect class="cls-3" x="746.36" y="358.91" width="3.42" height="3.42"/><rect class="cls-3" x="746.36" y="364.65" width="3.42" height="3.42"/><rect class="cls-3" x="746.36" y="370.38" width="3.42" height="3.42"/><rect class="cls-3" x="746.36" y="376.12" width="3.42" height="3.42"/><rect class="cls-3" x="746.36" y="381.85" width="3.42" height="3.42"/><rect class="cls-3" x="746.36" y="387.58" width="3.42" height="3.42"/><rect class="cls-3" x="746.36" y="393.32" width="3.42" height="3.42"/><rect class="cls-3" x="746.36" y="399.05" width="3.42" height="3.42"/><rect class="cls-3" x="740.93" y="330.24" width="3.42" height="3.42"/><rect class="cls-3" x="740.93" y="335.97" width="3.42" height="3.42"/><rect class="cls-3" x="740.93" y="341.71" width="3.42" height="3.42"/><rect class="cls-3" x="740.93" y="347.44" width="3.42" height="3.42"/><rect class="cls-3" x="740.93" y="353.18" width="3.42" height="3.42"/><rect class="cls-3" x="740.93" y="358.91" width="3.42" height="3.42"/><rect class="cls-3" x="740.93" y="364.65" width="3.42" height="3.42"/><rect class="cls-3" x="740.93" y="370.38" width="3.42" height="3.42"/><rect class="cls-3" x="740.93" y="376.12" width="3.42" height="3.42"/><rect class="cls-3" x="740.93" y="381.85" width="3.42" height="3.42"/><rect class="cls-3" x="740.93" y="387.58" width="3.42" height="3.42"/><rect class="cls-3" x="740.93" y="393.32" width="3.42" height="3.42"/><rect class="cls-3" x="740.93" y="399.05" width="3.42" height="3.42"/><rect class="cls-3" x="740.93" y="404.79" width="3.42" height="3.42"/><rect class="cls-3" x="710.75" y="331.95" width="3.42" height="3.42"/><rect class="cls-3" x="710.75" y="337.69" width="3.42" height="3.42"/><rect class="cls-3" x="710.75" y="343.42" width="3.42" height="3.42"/><rect class="cls-3" x="710.75" y="349.15" width="3.42" height="3.42"/><rect class="cls-3" x="710.75" y="354.89" width="3.42" height="3.42"/><rect class="cls-3" x="710.75" y="360.62" width="3.42" height="3.42"/><rect class="cls-3" x="710.75" y="366.36" width="3.42" height="3.42"/><rect class="cls-3" x="710.75" y="372.09" width="3.42" height="3.42"/><rect class="cls-3" x="710.75" y="377.83" width="3.42" height="3.42"/><rect class="cls-3" x="710.75" y="383.56" width="3.42" height="3.42"/><rect class="cls-3" x="710.75" y="400.76" width="3.42" height="3.42"/><rect class="cls-3" x="705.32" y="331.95" width="3.42" height="3.42"/><rect class="cls-3" x="705.32" y="337.69" width="3.42" height="3.42"/><rect class="cls-3" x="705.32" y="343.42" width="3.42" height="3.42"/><rect class="cls-3" x="705.32" y="349.15" width="3.42" height="3.42"/><rect class="cls-3" x="705.32" y="354.89" width="3.42" height="3.42"/><rect class="cls-3" x="705.32" y="360.62" width="3.42" height="3.42"/><rect class="cls-3" x="705.32" y="366.36" width="3.42" height="3.42"/><rect class="cls-3" x="705.32" y="372.09" width="3.42" height="3.42"/><rect class="cls-3" x="705.32" y="377.83" width="3.42" height="3.42"/><rect class="cls-3" x="705.32" y="395.03" width="3.42" height="3.42"/><rect class="cls-3" x="705.32" y="400.76" width="3.42" height="3.42"/><rect class="cls-3" x="699.89" y="331.95" width="3.42" height="3.42"/><rect class="cls-3" x="699.89" y="337.69" width="3.42" height="3.42"/><rect class="cls-3" x="699.89" y="343.42" width="3.42" height="3.42"/><rect class="cls-3" x="699.89" y="349.15" width="3.42" height="3.42"/><rect class="cls-3" x="699.89" y="354.89" width="3.42" height="3.42"/><rect class="cls-3" x="699.89" y="360.62" width="3.42" height="3.42"/><rect class="cls-3" x="699.89" y="366.36" width="3.42" height="3.42"/><rect class="cls-3" x="699.89" y="372.09" width="3.42" height="3.42"/><rect class="cls-3" x="699.89" y="389.29" width="3.42" height="3.42"/><rect class="cls-3" x="699.89" y="395.03" width="3.42" height="3.42"/><rect class="cls-3" x="699.89" y="400.76" width="3.42" height="3.42"/><rect class="cls-3" x="649.38" y="244.83" width="3.42" height="3.42"/><rect class="cls-3" x="649.38" y="250.56" width="3.42" height="3.42"/><rect class="cls-3" x="649.38" y="256.3" width="3.42" height="3.42"/><rect class="cls-3" x="649.38" y="262.03" width="3.42" height="3.42"/><rect class="cls-3" x="649.38" y="267.77" width="3.42" height="3.42"/><rect class="cls-3" x="649.38" y="273.5" width="3.42" height="3.42"/><rect class="cls-3" x="649.38" y="279.23" width="3.42" height="3.42"/><rect class="cls-3" x="649.38" y="284.97" width="3.42" height="3.42"/><rect class="cls-3" x="649.38" y="290.7" width="3.42" height="3.42"/><rect class="cls-3" x="649.38" y="296.44" width="3.42" height="3.42"/><rect class="cls-3" x="649.38" y="302.17" width="3.42" height="3.42"/><rect class="cls-3" x="649.38" y="307.91" width="3.42" height="3.42"/><rect class="cls-3" x="649.38" y="313.64" width="3.42" height="3.42"/><rect class="cls-3" x="649.38" y="319.38" width="3.42" height="3.42"/><rect class="cls-3" x="649.38" y="325.11" width="3.42" height="3.42"/><rect class="cls-3" x="649.38" y="330.84" width="3.42" height="3.42"/><rect class="cls-3" x="649.38" y="336.58" width="3.42" height="3.42"/><rect class="cls-3" x="649.38" y="348.05" width="3.42" height="3.42"/><rect class="cls-3" x="649.38" y="353.78" width="3.42" height="3.42"/><rect class="cls-3" x="649.38" y="359.52" width="3.42" height="3.42"/><rect class="cls-3" x="649.38" y="365.25" width="3.42" height="3.42"/><rect class="cls-3" x="649.38" y="370.98" width="3.42" height="3.42"/><rect class="cls-3" x="643.95" y="244.83" width="3.42" height="3.42"/><rect class="cls-3" x="643.95" y="250.56" width="3.42" height="3.42"/><rect class="cls-3" x="643.95" y="256.3" width="3.42" height="3.42"/><rect class="cls-3" x="643.95" y="262.03" width="3.42" height="3.42"/><rect class="cls-3" x="643.95" y="267.77" width="3.42" height="3.42"/><rect class="cls-3" x="643.95" y="273.5" width="3.42" height="3.42"/><rect class="cls-3" x="643.95" y="279.23" width="3.42" height="3.42"/><rect class="cls-3" x="643.95" y="284.97" width="3.42" height="3.42"/><rect class="cls-3" x="643.95" y="290.7" width="3.42" height="3.42"/><rect class="cls-3" x="643.95" y="296.44" width="3.42" height="3.42"/><rect class="cls-3" x="643.95" y="302.17" width="3.42" height="3.42"/><rect class="cls-3" x="643.95" y="307.91" width="3.42" height="3.42"/><rect class="cls-3" x="643.95" y="313.64" width="3.42" height="3.42"/><rect class="cls-3" x="643.95" y="319.38" width="3.42" height="3.42"/><rect class="cls-3" x="643.95" y="325.11" width="3.42" height="3.42"/><rect class="cls-3" x="643.95" y="330.84" width="3.42" height="3.42"/><rect class="cls-3" x="643.95" y="365.25" width="3.42" height="3.42"/><rect class="cls-3" x="643.95" y="370.98" width="3.42" height="3.42"/><rect class="cls-3" x="638.52" y="244.83" width="3.42" height="3.42"/><rect class="cls-3" x="638.52" y="250.56" width="3.42" height="3.42"/><rect class="cls-3" x="638.52" y="256.3" width="3.42" height="3.42"/><rect class="cls-3" x="638.52" y="262.03" width="3.42" height="3.42"/><rect class="cls-3" x="638.52" y="267.77" width="3.42" height="3.42"/><rect class="cls-3" x="638.52" y="273.5" width="3.42" height="3.42"/><rect class="cls-3" x="638.52" y="279.23" width="3.42" height="3.42"/><rect class="cls-3" x="638.52" y="284.97" width="3.42" height="3.42"/><rect class="cls-3" x="638.52" y="290.7" width="3.42" height="3.42"/><rect class="cls-3" x="638.52" y="296.44" width="3.42" height="3.42"/><rect class="cls-3" x="638.52" y="302.17" width="3.42" height="3.42"/><rect class="cls-3" x="638.52" y="307.91" width="3.42" height="3.42"/><rect class="cls-3" x="638.52" y="313.64" width="3.42" height="3.42"/><rect class="cls-3" x="638.52" y="319.38" width="3.42" height="3.42"/><rect class="cls-3" x="638.52" y="325.11" width="3.42" height="3.42"/><rect class="cls-3" x="638.52" y="330.84" width="3.42" height="3.42"/><rect class="cls-3" x="638.52" y="342.31" width="3.42" height="3.42"/><rect class="cls-3" x="638.52" y="348.05" width="3.42" height="3.42"/><rect class="cls-3" x="638.52" y="353.78" width="3.42" height="3.42"/><rect class="cls-3" x="638.52" y="359.52" width="3.42" height="3.42"/><rect class="cls-3" x="638.52" y="370.98" width="3.42" height="3.42"/><rect class="cls-3" x="669.1" y="317.06" width="3.42" height="3.42"/><rect class="cls-3" x="669.1" y="322.8" width="3.42" height="3.42"/><rect class="cls-3" x="669.1" y="328.53" width="3.42" height="3.42"/><rect class="cls-3" x="669.1" y="334.26" width="3.42" height="3.42"/><rect class="cls-3" x="669.1" y="340" width="3.42" height="3.42"/><rect class="cls-3" x="669.1" y="345.73" width="3.42" height="3.42"/><rect class="cls-3" x="669.1" y="351.47" width="3.42" height="3.42"/><rect class="cls-3" x="669.1" y="362.94" width="3.42" height="3.42"/><rect class="cls-3" x="669.1" y="368.67" width="3.42" height="3.42"/><rect class="cls-3" x="669.1" y="374.41" width="3.42" height="3.42"/><rect class="cls-3" x="669.1" y="380.14" width="3.42" height="3.42"/><rect class="cls-3" x="669.1" y="385.87" width="3.42" height="3.42"/><rect class="cls-3" x="669.1" y="391.61" width="3.42" height="3.42"/><rect class="cls-3" x="669.1" y="397.34" width="3.42" height="3.42"/><rect class="cls-3" x="669.1" y="403.08" width="3.42" height="3.42"/><rect class="cls-3" x="663.67" y="317.06" width="3.42" height="3.42"/><rect class="cls-3" x="663.67" y="322.8" width="3.42" height="3.42"/><rect class="cls-3" x="663.67" y="328.53" width="3.42" height="3.42"/><rect class="cls-3" x="663.67" y="334.26" width="3.42" height="3.42"/><rect class="cls-3" x="663.67" y="340" width="3.42" height="3.42"/><rect class="cls-3" x="663.67" y="345.73" width="3.42" height="3.42"/><rect class="cls-3" x="663.67" y="362.94" width="3.42" height="3.42"/><rect class="cls-3" x="663.67" y="368.67" width="3.42" height="3.42"/><rect class="cls-3" x="663.67" y="374.41" width="3.42" height="3.42"/><rect class="cls-3" x="663.67" y="380.14" width="3.42" height="3.42"/><rect class="cls-3" x="663.67" y="385.87" width="3.42" height="3.42"/><rect class="cls-3" x="663.67" y="391.61" width="3.42" height="3.42"/><rect class="cls-3" x="663.67" y="397.34" width="3.42" height="3.42"/><rect class="cls-3" x="663.67" y="403.08" width="3.42" height="3.42"/><rect class="cls-3" x="658.24" y="317.06" width="3.42" height="3.42"/><rect class="cls-3" x="658.24" y="322.8" width="3.42" height="3.42"/><rect class="cls-3" x="658.24" y="328.53" width="3.42" height="3.42"/><rect class="cls-3" x="658.24" y="334.26" width="3.42" height="3.42"/><rect class="cls-3" x="658.24" y="340" width="3.42" height="3.42"/><rect class="cls-3" x="658.24" y="345.73" width="3.42" height="3.42"/><rect class="cls-3" x="658.24" y="357.2" width="3.42" height="3.42"/><rect class="cls-3" x="658.24" y="362.94" width="3.42" height="3.42"/><rect class="cls-3" x="658.24" y="368.67" width="3.42" height="3.42"/><rect class="cls-3" x="658.24" y="374.41" width="3.42" height="3.42"/><rect class="cls-3" x="658.24" y="380.14" width="3.42" height="3.42"/><rect class="cls-3" x="658.24" y="385.87" width="3.42" height="3.42"/><rect class="cls-3" x="658.24" y="391.61" width="3.42" height="3.42"/><rect class="cls-3" x="658.24" y="397.34" width="3.42" height="3.42"/><rect class="cls-3" x="658.24" y="403.08" width="3.42" height="3.42"/><rect class="cls-3" x="543.75" y="284.97" width="3.42" height="3.42"/><rect class="cls-3" x="543.75" y="290.7" width="3.42" height="3.42"/><rect class="cls-3" x="543.75" y="296.44" width="3.42" height="3.42"/><rect class="cls-3" x="543.75" y="302.17" width="3.42" height="3.42"/><rect class="cls-3" x="543.75" y="307.91" width="3.42" height="3.42"/><rect class="cls-3" x="543.75" y="313.64" width="3.42" height="3.42"/><rect class="cls-3" x="543.75" y="319.38" width="3.42" height="3.42"/><rect class="cls-3" x="543.75" y="325.11" width="3.42" height="3.42"/><rect class="cls-3" x="543.75" y="330.84" width="3.42" height="3.42"/><rect class="cls-3" x="543.75" y="336.58" width="3.42" height="3.42"/><rect class="cls-3" x="543.75" y="342.31" width="3.42" height="3.42"/><rect class="cls-3" x="543.75" y="348.05" width="3.42" height="3.42"/><rect class="cls-3" x="543.75" y="353.78" width="3.42" height="3.42"/><rect class="cls-3" x="543.75" y="365.25" width="3.42" height="3.42"/><rect class="cls-3" x="543.75" y="370.98" width="3.42" height="3.42"/><rect class="cls-3" x="543.75" y="376.72" width="3.42" height="3.42"/><rect class="cls-3" x="543.75" y="382.45" width="3.42" height="3.42"/><rect class="cls-3" x="543.75" y="393.92" width="3.42" height="3.42"/><rect class="cls-3" x="543.75" y="399.66" width="3.42" height="3.42"/><rect class="cls-3" x="543.75" y="405.39" width="3.42" height="3.42"/><rect class="cls-3" x="538.32" y="284.97" width="3.42" height="3.42"/><rect class="cls-3" x="538.32" y="290.7" width="3.42" height="3.42"/><rect class="cls-3" x="538.32" y="296.44" width="3.42" height="3.42"/><rect class="cls-3" x="538.32" y="302.17" width="3.42" height="3.42"/><rect class="cls-3" x="538.32" y="307.91" width="3.42" height="3.42"/><rect class="cls-3" x="538.32" y="313.64" width="3.42" height="3.42"/><rect class="cls-3" x="538.32" y="319.38" width="3.42" height="3.42"/><rect class="cls-3" x="538.32" y="325.11" width="3.42" height="3.42"/><rect class="cls-3" x="538.32" y="330.84" width="3.42" height="3.42"/><rect class="cls-3" x="538.32" y="336.58" width="3.42" height="3.42"/><rect class="cls-3" x="538.32" y="342.31" width="3.42" height="3.42"/><rect class="cls-3" x="538.32" y="348.05" width="3.42" height="3.42"/><rect class="cls-3" x="538.32" y="353.78" width="3.42" height="3.42"/><rect class="cls-3" x="538.32" y="370.98" width="3.42" height="3.42"/><rect class="cls-3" x="538.32" y="376.72" width="3.42" height="3.42"/><rect class="cls-3" x="538.32" y="388.19" width="3.42" height="3.42"/><rect class="cls-3" x="538.32" y="393.92" width="3.42" height="3.42"/><rect class="cls-3" x="538.32" y="399.66" width="3.42" height="3.42"/><rect class="cls-3" x="538.32" y="405.39" width="3.42" height="3.42"/><rect class="cls-3" x="532.89" y="284.97" width="3.42" height="3.42"/><rect class="cls-3" x="532.89" y="290.7" width="3.42" height="3.42"/><rect class="cls-3" x="532.89" y="296.44" width="3.42" height="3.42"/><rect class="cls-3" x="532.89" y="302.17" width="3.42" height="3.42"/><rect class="cls-3" x="532.89" y="307.91" width="3.42" height="3.42"/><rect class="cls-3" x="532.89" y="313.64" width="3.42" height="3.42"/><rect class="cls-3" x="532.89" y="319.38" width="3.42" height="3.42"/><rect class="cls-3" x="532.89" y="325.11" width="3.42" height="3.42"/><rect class="cls-3" x="532.89" y="330.84" width="3.42" height="3.42"/><rect class="cls-3" x="532.89" y="336.58" width="3.42" height="3.42"/><rect class="cls-3" x="532.89" y="342.31" width="3.42" height="3.42"/><rect class="cls-3" x="532.89" y="348.05" width="3.42" height="3.42"/><rect class="cls-3" x="532.89" y="353.78" width="3.42" height="3.42"/><rect class="cls-3" x="532.89" y="359.52" width="3.42" height="3.42"/><rect class="cls-3" x="532.89" y="370.98" width="3.42" height="3.42"/><rect class="cls-3" x="532.89" y="382.45" width="3.42" height="3.42"/><rect class="cls-3" x="532.89" y="388.19" width="3.42" height="3.42"/><rect class="cls-3" x="532.89" y="393.92" width="3.42" height="3.42"/><rect class="cls-3" x="532.89" y="399.66" width="3.42" height="3.42"/><rect class="cls-3" x="532.89" y="405.39" width="3.42" height="3.42"/><rect class="cls-3" x="565.88" y="317.67" width="3.42" height="3.42"/><rect class="cls-3" x="565.88" y="323.4" width="3.42" height="3.42"/><rect class="cls-3" x="565.88" y="329.13" width="3.42" height="3.42"/><rect class="cls-3" x="565.88" y="334.87" width="3.42" height="3.42"/><rect class="cls-3" x="565.88" y="340.6" width="3.42" height="3.42"/><rect class="cls-3" x="565.88" y="346.34" width="3.42" height="3.42"/><rect class="cls-3" x="565.88" y="363.54" width="3.42" height="3.42"/><rect class="cls-3" x="565.88" y="369.27" width="3.42" height="3.42"/><rect class="cls-3" x="565.88" y="375.01" width="3.42" height="3.42"/><rect class="cls-3" x="565.88" y="380.74" width="3.42" height="3.42"/><rect class="cls-3" x="565.88" y="386.48" width="3.42" height="3.42"/><rect class="cls-3" x="565.88" y="392.21" width="3.42" height="3.42"/><rect class="cls-3" x="565.88" y="397.95" width="3.42" height="3.42"/><rect class="cls-3" x="560.45" y="317.67" width="3.42" height="3.42"/><rect class="cls-3" x="560.45" y="323.4" width="3.42" height="3.42"/><rect class="cls-3" x="560.45" y="329.13" width="3.42" height="3.42"/><rect class="cls-3" x="560.45" y="334.87" width="3.42" height="3.42"/><rect class="cls-3" x="560.45" y="340.6" width="3.42" height="3.42"/><rect class="cls-3" x="560.45" y="346.34" width="3.42" height="3.42"/><rect class="cls-3" x="560.45" y="363.54" width="3.42" height="3.42"/><rect class="cls-3" x="560.45" y="369.27" width="3.42" height="3.42"/><rect class="cls-3" x="560.45" y="375.01" width="3.42" height="3.42"/><rect class="cls-3" x="560.45" y="380.74" width="3.42" height="3.42"/><rect class="cls-3" x="560.45" y="386.48" width="3.42" height="3.42"/><rect class="cls-3" x="560.45" y="392.21" width="3.42" height="3.42"/><rect class="cls-3" x="560.45" y="403.68" width="3.42" height="3.42"/><rect class="cls-1" x="430.25" y="130.16" width="6.79" height="372.62"/><rect class="cls-1" x="539.29" y="130.16" width="5.75" height="372.62"/><rect class="cls-1" x="647.29" y="130.16" width="5.75" height="372.62"/><path class="cls-5" d="M85,597.35s-8.77-19.15,1.25-38S99.17,536,92.78,532.15s-9.32,15.1-9.32,15.1-5.39-13-.94-26.7,7.24-35.89,1.16-38.28-1.16,27.74-6.43,38c0,0-4.42-11.43-5.15-22.4s.41-28.47-4.39-33-7.87-1.39-3.16,22.81a252.5,252.5,0,0,1,4.68,43.87s-10.41-31.74-17.4-32.67-7,9.36-1,18.27,17.51,24.89,19.4,33.11c0,0-11.42-23.88-21.7-16.56s8.94,21.75,17.51,27,14.52,37.9,14.52,37.9Z"/><path class="cls-6" d="M78.06,605.2s8.55-19.28-1.7-38-13.21-23.12-6.87-27.08,9.5,15,9.5,15,5.23-13.13.62-26.71S72,492.59,78,490.11s1.49,27.72,6.89,37.91c0,0,4.28-11.49,4.88-22.47s-.75-28.47,4-33,7.86-1.5,3.43,22.77A253.54,253.54,0,0,0,93,539.22s10-31.89,17-32.92,7.09,9.25,1.21,18.25S94,549.7,92.24,558c0,0,11.14-24.06,21.51-16.89s-8.69,21.88-17.19,27.22-14.07,38.11-14.07,38.11Z"/><polygon class="cls-7" points="117.47 591.46 46.89 591.46 52.6 641.96 111.75 641.96 117.47 591.46"/><path class="cls-6" d="M759.57,587.86c.26-1.71,6.11-42.09-5.61-56a12.71,12.71,0,0,0-9.74-4.79c-23.66-.56-26.9,18.45-26.93,18.65l2.79.43c.11-.69,2.92-16.77,24.08-16.26a9.89,9.89,0,0,1,7.64,3.79c10.91,13,5,53.39,5,53.8Z"/><path class="cls-6" d="M761,586l2.82-.09c0-.37-.94-37.2,17.21-44.81,17.79-7.45,25.79,7.87,26.12,8.53l2.52-1.27c-.09-.19-9.48-18.36-29.73-9.86C760,546.87,761,584.43,761,586Z"/><path class="cls-6" d="M760.92,588.92c0-.59.17-58.85,11.53-75.88,10.91-16.36,28.5-8.66,29.24-8.32l1.17-2.57c-.2-.1-20.51-9.06-32.76,9.32-11.83,17.75-12,75-12,77.44Z"/><path class="cls-5" d="M740.84,528.44s10.33,3.81,7.26,12.8S712.35,565,712.35,565s-13.68-12.54-1.11-32.94S740.56,522,740.84,528.44Z"/><path class="cls-5" d="M773,510s-7.33-.79-6.74-5.26,28.52-16,45,2.63c0,0-10.55,18.12-25.8,18.36S773,510,773,510Z"/><path class="cls-5" d="M780.49,539.82s-5.06-4.09.4-6.08,32.28-1.43,32.56,25.12c0,0-31.23,5.19-35.09-4.92S780.49,539.82,780.49,539.82Z"/><polygon class="cls-7" points="735.29 641.96 783.74 641.96 788.97 588.91 730.06 588.91 735.29 641.96"/><rect class="cls-8" x="727.47" y="583.06" width="64.08" height="11.71" transform="translate(1519.03 1177.83) rotate(180)"/><ellipse id="_Path_" data-name="&lt;Path&gt;" class="cls-9" cx="421.62" cy="710.46" rx="381.28" ry="22.27"/><rect class="cls-10" x="86.66" y="223.43" width="300.6" height="201.72"/><polygon class="cls-10" points="154.56 334.66 145.4 334.66 145.4 686.07 125.37 690.34 125.37 693.87 148.35 693.87 151.62 693.87 174.59 693.87 174.59 690.34 154.56 686.07 154.56 334.66"/><polygon class="cls-10" points="328.52 686.07 328.52 334.66 319.36 334.66 319.36 686.07 299.33 690.34 299.33 693.87 322.31 693.87 325.58 693.87 348.56 693.87 348.56 690.34 328.52 686.07"/><g class="cls-11"><rect class="cls-12" x="86.66" y="223.43" width="300.6" height="201.72"/><polygon class="cls-12" points="154.56 334.66 145.4 334.66 145.4 686.07 125.37 690.34 125.37 693.87 148.35 693.87 151.62 693.87 174.59 693.87 174.59 690.34 154.56 686.07 154.56 334.66"/><polygon class="cls-12" points="328.52 686.07 328.52 334.66 319.36 334.66 319.36 686.07 299.33 690.34 299.33 693.87 322.31 693.87 325.58 693.87 348.56 693.87 348.56 690.34 328.52 686.07"/></g><rect class="cls-12" x="144.8" y="182.69" width="184.32" height="283.2" transform="translate(561.25 87.33) rotate(90)"/><g class="cls-13"><polygon points="357.06 403.38 112.59 403.38 112.59 266.31 114.56 266.31 114.56 401.41 357.06 401.41 357.06 403.38"/></g><rect class="cls-14" x="125.37" y="380.63" width="10.57" height="19.8"/><rect class="cls-15" x="125.37" y="380.63" width="10.57" height="5.76"/><rect class="cls-14" x="146.95" y="348.96" width="10.57" height="51.47"/><rect class="cls-15" x="146.95" y="348.96" width="10.57" height="14.99"/><rect class="cls-14" x="168.52" y="360.83" width="10.57" height="39.6"/><rect class="cls-16" x="168.52" y="360.83" width="10.57" height="11.53"/><rect class="cls-14" x="190.09" y="342.63" width="10.57" height="57.8"/><rect class="cls-15" x="190.09" y="342.63" width="10.57" height="16.83"/><rect class="cls-14" x="211.67" y="325.83" width="10.57" height="74.6"/><rect class="cls-15" x="211.67" y="325.83" width="10.57" height="21.72"/><rect class="cls-14" x="233.24" y="313.11" width="10.57" height="87.31"/><rect class="cls-15" x="233.24" y="313.11" width="10.57" height="25.42"/><rect class="cls-14" x="254.81" y="327.81" width="10.57" height="72.61"/><rect class="cls-15" x="254.81" y="327.81" width="10.57" height="21.14"/><rect class="cls-14" x="276.39" y="324.64" width="10.57" height="75.78"/><rect class="cls-15" x="276.39" y="324.64" width="10.57" height="22.07"/><rect class="cls-14" x="297.96" y="305.3" width="10.57" height="95.12"/><rect class="cls-15" x="297.96" y="305.3" width="10.57" height="27.7"/><rect class="cls-14" x="319.54" y="285.82" width="10.57" height="114.61"/><rect class="cls-15" x="319.54" y="285.82" width="10.57" height="33.37"/><rect class="cls-14" x="341.11" y="268.78" width="10.57" height="131.65"/><rect class="cls-15" x="341.11" y="268.78" width="10.57" height="38.33"/><rect class="cls-14" x="168.52" y="245.62" width="130.81" height="5.44"/><path class="cls-17" d="M375.06,379.81l-9.14-4.48s-2.73-6-2.92-5.92-17.5-3.57-17.5-3.57-.2,10.22,1.75,12.39,13.8,3.18,14.39,3.55,1.94-.85,1.94-.85l9.73,6.39Z"/><path class="cls-10" d="M475,302.89s-3.79-8.76-16-8.76-22.46,7.3-21.88,16.63-6.41,8.46-7.58,17.51,3.21,11.37,3.5,15.17-4.67,2.62-7.88,9-7.29,15.46,6.42,27.42,52.51,9.92,61,2.63,8.17-21.3,0-25.09-.58-3.21.29-11.67-6.71-11.67-6.12-18.38S489.25,303.47,475,302.89Z"/><path class="cls-6" d="M427.34,359.65V383.7s-2.06,2.58-5.14,5.89a80.09,80.09,0,0,1-10.67,9.72c-3.68,2.67-7.4,4.49-10.41,4.11-9.53-1.22-35.2-16-35.2-16l4.27-11.34s29.17,15,30.93,13.45S422.05,361,427.34,359.65Z"/><path class="cls-14" d="M422.2,389.59a80.09,80.09,0,0,1-10.67,9.72c-1.38-10.74,10.93-24,10.93-24S422.64,382.21,422.2,389.59Z"/><path class="cls-17" d="M430.72,446.77s-16,85.19-20.25,120.17c-5.58,45.63-28.36,112.38-28.36,112.38l9.11,2.35S423.34,625,429.6,573.91c25.52-52.17,27.58-116.4,27.58-116.4Z"/><path class="cls-10" d="M365.15,700a13.3,13.3,0,0,1,4.68-1.19h0s5.6-3.3,11.15-16.11l6.24,0a5.16,5.16,0,0,1,4.8,3.43,2.86,2.86,0,0,1,.17.87,34,34,0,0,1-.48,4.5c-.56,4.67-3.64,14.68-3.64,14.68l-1.06-.26,1.92-9.32c.64-3.17-2.69-.11-4.23,3.08s-3.91,6.41-10.8,4.83C365.87,702.57,362.63,701.41,365.15,700Z"/><path class="cls-17" d="M447.31,445.41s2,86.65,5.05,121.76c4,45.79-4.5,115.81-4.5,115.81l9.4.42S477,621.26,472.53,570c14.17-56.31,2.9-119.59,2.9-119.59Z"/><path class="cls-10" d="M433.23,702.82a13.56,13.56,0,0,1,4.53-1.69h0s5.21-3.88,9.34-17.21l6.21-.71a5.12,5.12,0,0,1,5.13,2.89,2.58,2.58,0,0,1,.27.84,34.24,34.24,0,0,1,0,4.53c-.05,4.7-2,15-2,15l-1.08-.15.91-9.47c.29-3.21-2.69.18-3.87,3.52s-3.2,6.79-10.22,6C434.23,705.33,430.88,704.53,433.23,702.82Z"/><path class="cls-17" d="M382.11,679.32s-7.8,16.31-12.28,19.46c0,0,6,3.59,12.28-4.4,8.1-10.33,10.08-7.44,10.08-7.44a29.28,29.28,0,0,0-1-5.27C390,678.34,382.11,679.32,382.11,679.32Z"/><path class="cls-17" d="M448.82,679.19s-2.22,6-5.17,12.67-5.89,9.27-5.89,9.27,5.12,1.67,7.88-1.55,7.5-14.81,12.8-13.48a12.06,12.06,0,0,0-1.18-2.7C456.47,682.09,448.82,679.19,448.82,679.19Z"/><path class="cls-16" d="M425.24,432.55s-6.33,63.06-15.73,126.29A667.55,667.55,0,0,1,384.23,665l18.67,1.55s35.79-88.68,46.68-140c0,0,3.89,91-2.34,141.58l16.34-.78s39.87-171.29,10.11-233Z"/><path class="cls-15" d="M463.58,667.37l-16.34.77c6.22-50.56,2.34-141.59,2.34-141.59-2.76,13-7.09,28.29-12,44C422.9,617,402.9,666.59,402.9,666.59L384.23,665a667.24,667.24,0,0,0,25.28-106.18c9.41-63.23,15.74-126.29,15.74-126.29l48.45,1.83C503.44,496.07,463.58,667.37,463.58,667.37Z"/><path class="cls-14" d="M449.58,526.55c-2.76,13-7.09,28.29-12,44-1.89-29.52,5.62-82.48,5.62-82.48Z"/><polygon class="cls-10" points="473.59 431.31 473.72 438.43 424.99 435.62 424.83 427.2 473.59 431.31"/><rect class="cls-12" x="435.82" y="429.09" width="10.68" height="8.1" transform="translate(850.75 896.24) rotate(-175.97)"/><rect class="cls-16" x="457" y="428.66" width="2.42" height="12.31" transform="matrix(-1, -0.03, 0.03, -1, 902.2, 884.13)"/><rect class="cls-18" x="457" y="428.66" width="2.42" height="12.31" transform="matrix(-1, -0.03, 0.03, -1, 902.2, 884.13)"/><rect class="cls-16" x="427.21" y="425.96" width="2.42" height="12.31" transform="translate(842.76 877.74) rotate(-178.16)"/><rect class="cls-18" x="427.21" y="425.96" width="2.42" height="12.31" transform="translate(842.76 877.74) rotate(-178.16)"/><path class="cls-10" d="M424.93,428.1l48.66,3.21c.76-12.09,1.64-15.81,5.28-30.23,1.16-4.66,2.62-9.87,4.5-15.89,1-3.21,2.11-6.66,3.35-10.38q1.38-4.23,3-9a144.93,144.93,0,0,0-20.2-4.88,155.51,155.51,0,0,0-21.86-2.3c-9.47-.07-20.35,1-20.35,1s-1.55.37-2.52,10.41C423.93,379.49,423,393.81,424.93,428.1Z"/><path class="cls-18" d="M424.93,428.1l48.66,3.21c.76-12.09,1.64-15.81,5.28-30.23,1.16-4.66,2.62-9.87,4.5-15.89,1-3.21,2.11-6.66,3.35-10.38q1.38-4.23,3-9a144.93,144.93,0,0,0-20.2-4.88,155.51,155.51,0,0,0-21.86-2.3c-9.47-.07-20.35,1-20.35,1s-1.55.37-2.52,10.41C423.93,379.49,423,393.81,424.93,428.1Z"/><path class="cls-17" d="M451.71,369.41c12-1.53,15.6-6.66,15.6-6.66-7.61-7.18-1.29-19.63-1.29-19.63l-14.44,2.7a43.6,43.6,0,0,1,.57,6.08c.11,8.76-3.86,8.85-3.86,8.85C445.76,365.5,451.71,369.41,451.71,369.41Z"/><path class="cls-14" d="M451.58,345.82a43.6,43.6,0,0,1,.57,6.08c9.75,0,13.87-8.78,13.87-8.78Z"/><path class="cls-17" d="M459.57,305.44c-12.56-.69-17,5.81-18.59,18.7-2,16.1.92,27.78,16.8,25.19C479.35,345.81,480.41,306.58,459.57,305.44Z"/><path class="cls-19" d="M449.13,323.88a26.8,26.8,0,0,1-3.94,5,3.46,3.46,0,0,0,3.23,1.6Z"/><path class="cls-10" d="M456.87,323.28c-.08,1,.41,1.9,1.1,2s1.3-.74,1.38-1.77-.41-1.91-1.09-2S457,322.25,456.87,323.28Z"/><path class="cls-10" d="M458.54,321.58l-2.17-1.05S457.34,322.5,458.54,321.58Z"/><path class="cls-10" d="M444.08,322.06c-.08,1,.41,1.91,1.1,2s1.31-.74,1.39-1.77-.41-1.9-1.1-2S444.16,321,444.08,322.06Z"/><path class="cls-10" d="M445.75,320.36l-2.17-1.05S444.55,321.28,445.75,320.36Z"/><path class="cls-20" d="M457.47,314.61s3.55-.26,5.34,2.2"/><path class="cls-20" d="M448.37,313.58a5.85,5.85,0,0,0-5.05.76"/><path class="cls-10" d="M450,335.53a30.88,30.88,0,0,1,1.23,4.44l.81,0c3.67-.17,5.32-1.47,6-2.85a4.87,4.87,0,0,0,.48-2.19,4.57,4.57,0,0,0-.17-1.27c-1.89,1.25-5.3,1.67-7.14,1.82C450.47,335.52,450,335.53,450,335.53Z"/><path class="cls-12" d="M451.23,335.45l.4,1.3c3.46-.17,5.87-.75,6.91-1.85a4.57,4.57,0,0,0-.17-1.27C456.48,334.88,453.07,335.3,451.23,335.45Z"/><path class="cls-21" d="M452,339.94c3.67-.17,5.32-1.47,6-2.85a12.09,12.09,0,0,0-4.05,1A4.4,4.4,0,0,0,452,339.94Z"/><path class="cls-10" d="M472.13,327.35s-5.31-10.64-4-18.55c0,0-24.32-11.52-26.93,13.66,0,0-1.21-22.56,20.4-21.87s19.79,32.24,8.13,41C469.75,341.63,475.4,334,472.13,327.35Z"/><path class="cls-10" d="M473.4,304.25s-9.82-8.75-18.77-7.1S447.24,310.57,459,315s14.2,10.21,14.2,10.21l10.21-9.14Z"/><path class="cls-22" d="M452,300.83s-4.18.29-3,6.51,10,9.35,18.38,12.27,7.69,6.21,7.69,6.21"/><path class="cls-17" d="M469.93,329.89c.2-2,2.47-5.33,6.2-4.71s5.29,8.72-4.49,10.11C470.23,335.49,469.52,334.09,469.93,329.89Z"/><path class="cls-17" d="M478.44,364.08s-14.09,11.43-27.21,11.25-17.72-14.94-17.72-14.94S453.85,354.37,478.44,364.08Z"/><path class="cls-6" d="M489.76,365.84l-6.34,75.94-13.6,1.14c-2-10.33-2.36-26.64-2.1-42h0c.36-20.86,1.83-39.94,1.83-39.94C477.1,361.76,489.76,365.84,489.76,365.84Z"/><path class="cls-18" d="M471.72,380l3.67,5.63-7.67,15.25c.36-20.86,1.83-39.94,1.83-39.94l11.7,10.88Z"/><path class="cls-6" d="M443.31,358.54v0c-.31.56-7.08,12.86-12.46,36.43a265.6,265.6,0,0,0-6,43.44l-5.2-2.4s-2.44-58.82,7.7-76.38Z"/><path class="cls-18" d="M443.3,358.56c-.31.56-7.08,12.86-12.46,36.43l-2.42-15.18,5.09-4.48-5.09-9.71Z"/><path class="cls-6" d="M509.45,411.71c-1.52,3.26-4.13,3.57-6.82,2.24a17.45,17.45,0,0,1-6-5.6c-1.22-1.76-2.86-4.4-4.54-7.19-3.6-6-7.34-12.72-7.34-12.72l5-22.6C497,369.31,512.16,405.87,509.45,411.71Z"/><path class="cls-14" d="M502.63,414a17.45,17.45,0,0,1-6-5.6c-1.22-1.76-2.86-4.4-4.54-7.19a67.93,67.93,0,0,1,4.26-6.78L500,404.66s6.42,1.46,7.44,4.81C507.81,410.74,505.63,412.54,502.63,414Z"/><path class="cls-10" d="M502.41,384.57l-12.12,46.18a2.38,2.38,0,0,1-2.53,1.7l-32.15-4.29a1.75,1.75,0,0,1-1.5-2.23l12.12-46.18a2.37,2.37,0,0,1,2.53-1.7l32.15,4.29A1.74,1.74,0,0,1,502.41,384.57Z"/><path class="cls-23" d="M502.41,384.57l-12.12,46.18a2.38,2.38,0,0,1-2.53,1.7l-30.69-4.09a1.76,1.76,0,0,1-1.5-2.24l12.12-46.18a2.37,2.37,0,0,1,2.54-1.69l30.68,4.09A1.74,1.74,0,0,1,502.41,384.57Z"/><path class="cls-24" d="M480.1,402.18a3.38,3.38,0,0,0-3.63,2.43,2.5,2.5,0,0,0,2.15,3.2,3.38,3.38,0,0,0,3.63-2.43A2.5,2.5,0,0,1,480.1,402.18Z"/><path class="cls-6" d="M505,422.59c-2.17,1.15-7-.59-8.54-1.18l-.46-.17s-2.66-8.7,4.28-13.41l.16-.09c2.22-1.19,9.07.34,9.28,2.66C510.57,419.69,507.6,421.24,505,422.59Z"/><path class="cls-14" d="M500.79,415.16a11.07,11.07,0,0,1-4.31,6.25l-.46-.17s-2.66-8.7,4.28-13.41l.16-.09C501.07,408.52,502,410.59,500.79,415.16Z"/><path class="cls-17" d="M490.77,404.13s4.46-.2,6.51,0,1.42,6.78,1.42,6.78l1.76.95s1.42,3.89-1.64,5.83l-1.57-.53a4.52,4.52,0,0,1-1.71,2.33c-1.27.78-7.49-1-7.49-1Z"/><path class="cls-10" d="M309.45,468.83H246.28l10.48-41.44a2.3,2.3,0,0,1,2.13-1.63h59.73a1.26,1.26,0,0,1,1.31,1.63Z"/><polygon class="cls-16" points="308.99 465.38 248.5 465.38 257.7 429 318.18 429 308.99 465.38"/><polygon class="cls-25" points="308.99 465.38 248.5 465.38 257.7 429 318.18 429 308.99 465.38"/><path class="cls-10" d="M281.92,467.51H218.67v2.63a2,2,0,0,0,2,2h86.71a2,2,0,0,0,2-2v-2.63Z"/><path class="cls-26" d="M281.92,467.51H218.67v2.63a2,2,0,0,0,2,2h86.71a2,2,0,0,0,2-2v-2.63Z"/><path class="cls-27" d="M252.31,467.51v.91h-11v-.91H218.67v2.63a2,2,0,0,0,2,2h59.17a2,2,0,0,0,2-2v-2.63Z"/><polygon class="cls-26" points="285.35 450.47 256.37 450.47 260.57 433.84 289.55 433.84 285.35 450.47"/><polygon class="cls-6" points="289.3 434.81 260.32 434.81 260.57 433.84 289.55 433.84 289.3 434.81"/><polygon class="cls-28" points="307.45 462.78 267.13 462.78 272.98 439.64 313.3 439.64 307.45 462.78"/><polygon class="cls-6" points="312.96 440.99 272.63 440.99 272.98 439.64 313.3 439.64 312.96 440.99"/><polygon class="cls-10" points="718.35 712.57 709.17 712.57 692.68 482.91 704.86 482.91 718.35 712.57"/><polygon class="cls-29" points="718.36 712.57 709.17 712.57 693.48 494.32 692.67 483.28 704.86 483.28 705.51 494.32 718.36 712.57"/><polygon class="cls-14" points="705.51 493.77 693.48 493.77 692.67 483.28 704.86 483.28 705.51 493.77"/><polygon class="cls-10" points="460.7 712.57 451.52 712.57 465.02 482.91 477.2 482.91 460.7 712.57"/><polygon class="cls-29" points="477.2 483.28 476.39 494.32 460.7 712.57 451.53 712.57 464.36 494.32 465.01 483.28 477.2 483.28"/><polygon class="cls-14" points="465.01 483.28 477.2 483.28 476.39 493.77 464.36 493.77 465.01 483.28"/><polygon class="cls-10" points="349.23 712.57 340.05 712.57 323.55 482.91 335.73 482.91 349.23 712.57"/><polygon class="cls-29" points="349.23 712.57 340.05 712.57 324.36 494.32 323.55 483.28 335.73 483.28 336.39 494.32 349.23 712.57"/><polygon class="cls-14" points="336.39 493.77 324.36 493.77 323.55 483.28 335.73 483.28 336.39 493.77"/><polygon class="cls-10" points="111.24 712.57 102.06 712.57 115.56 482.91 127.74 482.91 111.24 712.57"/><polygon class="cls-29" points="127.74 483.28 126.93 494.32 111.24 712.57 102.07 712.57 114.89 494.32 115.55 483.28 127.74 483.28"/><polygon class="cls-14" points="115.55 483.28 127.74 483.28 126.93 493.77 114.89 493.77 115.55 483.28"/><path class="cls-16" d="M105.91,477.16H714.51a0,0,0,0,1,0,0v8.15a3.35,3.35,0,0,1-3.35,3.35H109.26a3.35,3.35,0,0,1-3.35-3.35v-8.15a0,0,0,0,1,0,0Z"/><path class="cls-6" d="M105.91,477.16H714.51a0,0,0,0,1,0,0v8.15a3.35,3.35,0,0,1-3.35,3.35H109.26a3.35,3.35,0,0,1-3.35-3.35v-8.15a0,0,0,0,1,0,0Z"/><rect class="cls-14" x="105.91" y="477.16" width="608.61" height="5.75"/><path class="cls-16" d="M720.2,478.66h-620A3.25,3.25,0,0,1,97,475.42h0a3.25,3.25,0,0,1,3.24-3.24h620a3.24,3.24,0,0,1,3.24,3.24h0A3.24,3.24,0,0,1,720.2,478.66Z"/><path class="cls-6" d="M720.2,478.66h-620A3.25,3.25,0,0,1,97,475.42h0a3.25,3.25,0,0,1,3.24-3.24h620a3.24,3.24,0,0,1,3.24,3.24h0A3.24,3.24,0,0,1,720.2,478.66Z"/><path class="cls-10" d="M516.32,468.83h63.17L569,427.39a2.31,2.31,0,0,0-2.14-1.63H507.15a1.26,1.26,0,0,0-1.31,1.63Z"/><polygon class="cls-16" points="516.79 465.38 577.28 465.38 568.08 429 507.6 429 516.79 465.38"/><polygon class="cls-25" points="516.79 465.38 577.28 465.38 568.08 429 507.6 429 516.79 465.38"/><path class="cls-10" d="M543.85,467.51h63.26v2.63a2,2,0,0,1-2,2H518.36a2,2,0,0,1-2-2v-2.63Z"/><path class="cls-26" d="M543.85,467.51h63.26v2.63a2,2,0,0,1-2,2H518.36a2,2,0,0,1-2-2v-2.63Z"/><path class="cls-27" d="M573.47,467.51v.91h11v-.91h22.62v2.63a2,2,0,0,1-2,2H545.89a2,2,0,0,1-2-2v-2.63Z"/><polygon class="cls-28" points="519.44 462.7 573.72 462.7 565.85 431.56 511.57 431.56 519.44 462.7"/><polygon class="cls-6" points="512.03 433.38 566.31 433.38 565.85 431.56 511.57 431.56 512.03 433.38"/><g id="_Group_" data-name="&lt;Group&gt;"><path class="cls-10" d="M654.56,696.22l15.51-1a1,1,0,0,1,1.08.87v0l1.53,12.23a2.46,2.46,0,0,1-2.26,2.6c-5.42.24-8,.09-14.85.47-4.19.25-12.44,1.14-18.22.58s-5.07-6.26-2.58-6.53c5.92-.68,13.76-5,17.47-8.33A3.89,3.89,0,0,1,654.56,696.22Z"/><path class="cls-10" d="M575.55,696.22l15.5-1a1,1,0,0,1,1.08.87v0l1.52,12.23a2.46,2.46,0,0,1-2.26,2.6c-5.42.24-8,.09-14.85.47-4.18.25-12.44,1.14-18.22.58s-5.07-6.26-2.58-6.53c5.92-.68,13.76-5,17.47-8.33A3.92,3.92,0,0,1,575.55,696.22Z"/><path class="cls-17" d="M633.78,462.35l-12.73,1.91a48.56,48.56,0,0,0-8.89-1.91,59.33,59.33,0,0,0-9.85,0s-5.77,2.16-5.77,7.69c0,0,13.45,3.6,18.62,1.44L633.78,470Z"/><path class="cls-16" d="M664,413.78c-7.93,8.2-13.33,39.92-14.78,42.08S620.4,462,620.4,462s-2.89,6,0,10.93c0,0,34-1.56,38.06-3.72s14.22-25.85,14.22-25.85,1-6.23-1.33-16.32S664,413.78,664,413.78Z"/><path class="cls-30" d="M664,413.78c-7.93,8.2-13.33,39.92-14.78,42.08S620.4,462,620.4,462s-2.89,6,0,10.93c0,0,34-1.56,38.06-3.72s14.22-25.85,14.22-25.85,1-6.23-1.33-16.32S664,413.78,664,413.78Z"/><path class="cls-19" d="M603.79,370.11a35.65,35.65,0,0,1-3.87,7.55,4.59,4.59,0,0,0,4.63,1.27Z"/><path class="cls-31" d="M601.64,367.86c.16,1.37,1,2.39,1.94,2.29s1.52-1.3,1.36-2.67-1-2.39-1.93-2.29S601.48,366.49,601.64,367.86Z"/><path class="cls-20" d="M602,362.4a2.61,2.61,0,0,1,2.23.79"/><path class="cls-17" d="M607.39,385.52a18.49,18.49,0,0,0,1.05,1.73,19.07,19.07,0,0,0,11.55,8,17.23,17.23,0,0,0,14.53-3A17.51,17.51,0,0,0,639,387c5-8.39,2.82-16.09.25-29.4A18.55,18.55,0,0,0,609.94,346C598.4,354.47,601.57,374.43,607.39,385.52Z"/><path class="cls-14" d="M617.21,394.34a19.07,19.07,0,0,0,2.78.87,17.23,17.23,0,0,0,14.53-3,20.5,20.5,0,0,0-3.47-3.86S622.9,389.13,617.21,394.34Z"/><path class="cls-17" d="M655.36,403.55c-5,7.51-28.81,10.46-28.81,10.46s-10.56-.2-9.27-3.82c5.58-2.43,7.71-5.86,8-9.63a17.66,17.66,0,0,0-1.09-6.79,37.77,37.77,0,0,0-1.43-3.59l15.91-19.44C634.52,392.22,647.28,398.22,655.36,403.55Z"/><path class="cls-10" d="M603.73,345.2c4.51-7.07,8.51-5.83,8.51-5.83,2.88-5.93,19.76-6.18,28.34-.34s11.56,16.78,11,25.46c-.83,12.65-8.76,25.52-8.76,25.52h0c-10,2.66-18.34.47-19-4.81s-6-9.2-6-9.2c-4.91,1.66-9.36-3.81-9.36-3.81s-5.57-4.92-4.08-11.72S599.93,351.17,603.73,345.2Z"/><path class="cls-17" d="M619.63,372.52c-.06,3.05-1.1,5.54-2.89,6.93-2.39,1.81-5.09-1.51-5.71-5.56-.51-3.58.05-9,3.08-9S619.67,368.75,619.63,372.52Z"/><path class="cls-10" d="M610.91,372.72s1.35,11.47,4.44,16,2.71,6.12,6.94,6.84c0,0-2.38,3.17-4.52,2.71s-1.66-2.27-3.56-2.24-5.17-1.28-4.82-3.24.71-2.49-1.79-4.19-3.38-5.51-2-7.1,3.93-1.09,3.93-1.09l-.19-8.54Z"/><path class="cls-16" d="M621.56,410.2s3.85-17.28,27-17.11l5.89,8.55Z"/><path class="cls-30" d="M621.56,410.2s3.85-17.28,27-17.11l5.89,8.55Z"/><path class="cls-32" d="M625.45,624.06c8.78,33.38,22.63,76.45,22.63,76.45l24.3-1.85s-13.2-58.11-16.81-93.78c-2.24-22-2-40.25,4.41-41.66,4.06-.89,13.55-.86,25.71-.58V517.32c-34.13,7-68.09,20.22-70.68,30.83C611.4,563.08,617.71,594.67,625.45,624.06Z"/><path class="cls-14" d="M625.45,624.06c9.08-5.75,19.7-12.51,30.12-19.18-2.24-22-2-40.25,4.41-41.66,4.06-.89,13.55-.86,25.71-.58V517.32c-34.13,7-68.09,20.22-70.68,30.83C611.4,563.08,617.71,594.67,625.45,624.06Z"/><path class="cls-16" d="M639.34,503.82l-5.79-17.46S629.4,454,608.3,413.27c0,0,25.39-18,53.53-15.33,21.66,2.06,42,57.57,48.41,101.51Z"/><path class="cls-33" d="M710.24,499.45l-70.89,4.38-5.8-17.47a146.89,146.89,0,0,0-3-14.9,248.11,248.11,0,0,0-7.42-24.25,276.74,276.74,0,0,0-14.8-33.94s25.38-18,53.52-15.33C683.49,400,703.87,455.51,710.24,499.45Z"/><path class="cls-32" d="M638.75,512.86l-2.14-17.21,69.56-11.45s22.75,45.08,11.61,67.17c-10.21,20.26-118.93,8.19-135.67,11.85-16.91,3.69,11.38,135.14,11.38,135.14l-24.31,1.85s-39.75-120.18-32-152.06C540.52,534.25,597.83,515.84,638.75,512.86Z"/><polygon points="708.72 492.03 676.49 496.26 675.45 491.51 707.73 486.81 708.72 492.03"/><polygon points="672.76 491.54 673.15 496.26 643.37 500.36 643.37 495.69 672.76 491.54"/><polygon points="641.52 495.94 641.52 500.36 637.2 500.93 637.2 496.67 641.52 495.94"/><path class="cls-14" d="M630.52,473a228.59,228.59,0,0,0-7.42-23.1,18.45,18.45,0,0,1,5.1-6.53S634.86,465.05,630.52,473Z"/><path class="cls-17" d="M574.18,467.23l-10.73-1.73a48.56,48.56,0,0,0-8.89-1.91,59.33,59.33,0,0,0-9.85,0s-5.77,2.17-5.77,7.69c0,0,13.45,3.61,18.62,1.45l15.84,3.58Z"/><path class="cls-16" d="M608.3,413.78c-5,5.5-2.09,50.55-3.71,53.64s-39.16-3.15-39.16-3.15L563,475.42s44.1,13,52.2,13.11,13-47.58,13-47.58-1.12-6.64-7-15.11A40.39,40.39,0,0,0,608.3,413.78Z"/><path class="cls-33" d="M608.3,413.78c-5,5.5-2.09,50.55-3.71,53.64s-39.16-3.15-39.16-3.15L563,475.42s44.1,13,52.2,13.11,13-47.58,13-47.58-1.12-6.64-7-15.11A40.39,40.39,0,0,0,608.3,413.78Z"/></g><path class="cls-16" d="M599.93,548.75H737.72a0,0,0,0,1,0,0v8.77a13.36,13.36,0,0,1-13.36,13.36H613.29a13.36,13.36,0,0,1-13.36-13.36v-8.77A0,0,0,0,1,599.93,548.75Z" transform="translate(1337.65 1119.62) rotate(180)"/><path class="cls-5" d="M599.93,548.75H737.72a0,0,0,0,1,0,0v8.77a13.36,13.36,0,0,1-13.36,13.36H613.29a13.36,13.36,0,0,1-13.36-13.36v-8.77A0,0,0,0,1,599.93,548.75Z" transform="translate(1337.65 1119.62) rotate(180)"/><path class="cls-10" d="M692.51,494H616.65c-3.9,0-6.78,4.23-5.91,8.65l13.57,68.27h3.13l-11.56-59.83c-.85-4.42,2-8.61,5.92-8.61H691Z"/><path class="cls-10" d="M660,573.26v57.68a3.35,3.35,0,0,0,3.35,3.35h14.14a3.34,3.34,0,0,0,3.35-3.35V573.26Z"/><circle class="cls-10" cx="744.16" cy="706.44" r="6.13"/><path class="cls-34" d="M741.1,706.44a3.06,3.06,0,1,1,3.06,3.06A3.06,3.06,0,0,1,741.1,706.44Z"/><path class="cls-10" d="M590.52,706.44a6.13,6.13,0,1,1,6.13,6.13A6.13,6.13,0,0,1,590.52,706.44Z"/><path class="cls-34" d="M593.58,706.44a3.07,3.07,0,1,1,3.07,3.06A3.07,3.07,0,0,1,593.58,706.44Z"/><path class="cls-10" d="M665.33,679.55V613.63h10.14v65.92c39.48,1,63.47,14.82,68.28,17.84a1.92,1.92,0,0,1,.89,1.63v5.48a1.94,1.94,0,0,1-1.94,1.94h0a1.92,1.92,0,0,1-1.68-1l-2.34-4.11s-27.16-9.68-63.21-10.46v10.83a2.5,2.5,0,0,1-2.5,2.51h-5.13a2.51,2.51,0,0,1-2.51-2.51V690.89c-36,.78-63.2,10.46-63.2,10.46l-2.34,4.11a1.92,1.92,0,0,1-1.68,1h0a1.94,1.94,0,0,1-1.94-1.94V699a1.92,1.92,0,0,1,.89-1.63C601.86,694.37,625.85,680.56,665.33,679.55Z"/><rect class="cls-10" x="667.08" y="700.31" width="6.65" height="12.26" transform="translate(1340.81 1412.88) rotate(180)"/><rect class="cls-14" x="659.98" y="573.26" width="20.85" height="23.96"/><path class="cls-10" d="M596.16,567.32v6.89a3.31,3.31,0,0,0,3,3.52H738.46a3.29,3.29,0,0,0,3-3.52v-6.89a3.3,3.3,0,0,0-3-3.51H599.2A3.31,3.31,0,0,0,596.16,567.32Z"/><path class="cls-10" d="M660.23,570.88h81.25s25.81-42.4,25.81-112.45V432.7a19.27,19.27,0,0,0-19.4-19.14H713.44a19.26,19.26,0,0,0-19.38,18.6C693.05,468.26,687.67,546.42,660.23,570.88Z"/><path class="cls-34" d="M678.1,570.88h59.7a6.18,6.18,0,0,0,5.49-3.28c5.88-11.2,24-50.48,24-109.17V432.7a19.26,19.26,0,0,0-19.38-19.14H718.13a19.28,19.28,0,0,0-19.38,18.6c-.9,32.25-5.29,98.07-25.78,129.18A6.13,6.13,0,0,0,678.1,570.88Z"/><path class="cls-14" d="M596.16,567.32v6.89a3.31,3.31,0,0,0,3,3.52h62.41c2.26,0,4.09-2.13,4.09-4.76v-4.41c0-2.63-1.83-4.75-4.09-4.75H599.2A3.31,3.31,0,0,0,596.16,567.32Z"/><g id="_Group_2" data-name="&lt;Group&gt;"><path class="cls-35" d="M225.19,420.19l-6,1.42-1.38-4.8a4.38,4.38,0,0,1-4.21,0,27.92,27.92,0,0,1-2.61-1.55c-2.66-1.75-5.8-4.15-5.8-4.15l4.6-9.38s2,.8,4.46,1.88c3.46,1.56,7.81,3.62,8.58,4.72,1.3,1.87.65,5.35.65,5.35Z"/><path class="cls-14" d="M211,415.26c-2.66-1.75-5.8-4.15-5.8-4.15l4.6-9.38s2,.8,4.46,1.88A16.65,16.65,0,0,1,211,415.26Z"/><polygon class="cls-35" points="307.49 636.81 297.63 640.67 290.53 627.3 284.08 615.13 295.02 608.58 301.62 623.51 307.49 636.81"/><polygon class="cls-14" points="301.62 623.51 290.53 627.3 284.08 615.13 295.02 608.58 301.62 623.51"/><path class="cls-10" d="M299.57,616.22l-13.42,7.2S235.43,534.24,227.63,535s-81.79,47.9-104.35,30.49-.61-69.85-.61-69.85,46.68-13.34,51.74-3.08a77.12,77.12,0,0,1,3.34,9.37c1,3.22,1.75,5.93,1.75,5.93l0,0c1.42-.58,47.52-19.48,68.1-9.35C268.54,508.78,299.57,616.22,299.57,616.22Z"/><path class="cls-25" d="M299.57,616.22l-13.42,7.2S235.43,534.24,227.63,535s-81.79,47.9-104.35,30.49-.61-69.85-.61-69.85,46.68-13.34,51.74-3.08a77.12,77.12,0,0,1,3.34,9.37c1,3.22,1.75,5.93,1.75,5.93l0,0c1.42-.58,47.52-19.48,68.1-9.35C268.54,508.78,299.57,616.22,299.57,616.22Z"/><polygon class="cls-35" points="226.66 688.94 216.13 687.73 216.08 672.88 216.06 659.26 228.79 658.66 227.66 674.69 226.66 688.94"/><polygon class="cls-14" points="227.63 675.02 216.05 673.17 216.04 659.4 228.78 658.73 227.63 675.02"/><polygon class="cls-32" points="279.59 618.99 299.23 609.15 301.27 617.48 286.4 625.15 279.59 618.99"/><path class="cls-10" d="M158.14,565.61s3.23-.37,52.85-9.56c0,0,1.12,63.46,3.47,110.76l15.29.49s21.92-105,19.34-120.84-21.44-18-21.44-18S194.9,553.92,158.14,565.61Z"/><path class="cls-18" d="M158.14,565.61s3.23-.37,52.85-9.56c0,0,1.12,63.46,3.47,110.76l15.29.49s21.92-105,19.34-120.84-21.44-18-21.44-18S194.9,553.92,158.14,565.61Z"/><path class="cls-25" d="M158.14,565.61s3.23-.37,52.85-9.56c0,0,1.12,63.46,3.47,110.76l15.29.49s21.92-105,19.34-120.84-21.44-18-21.44-18S194.9,553.92,158.14,565.61Z"/><polygon class="cls-32" points="211.66 662.58 232.5 662.09 229.65 670.68 212.74 670.84 211.66 662.58"/><path class="cls-10" d="M327.11,654.31a14.19,14.19,0,0,0-5.1-.58h0s-6.37-2.66-14.06-15.33l-6.57.87a5.47,5.47,0,0,0-4.55,4.31,2.9,2.9,0,0,0-.06.93,37.29,37.29,0,0,0,1.15,4.66c1.27,4.83,6,14.92,6,14.92l1.07-.43-3.37-9.52c-1.13-3.24,2.81-.5,4.89,2.63s5,6.17,12.06,3.52C326.72,657.15,330,655.46,327.11,654.31Z"/><path class="cls-35" d="M306.28,635s10.55,16,15.73,18.69c0,0-5.81,4.65-13.56-2.85-10-9.69-11.68-6.37-11.68-6.37a31.35,31.35,0,0,1,.26-5.68C297.83,635.15,306.28,635,306.28,635Z"/><path class="cls-10" d="M242.4,707.6a14.21,14.21,0,0,0-4.81-1.76h0s-5.56-4.1-10-18.23l-6.59-.72a5.46,5.46,0,0,0-5.44,3.11,2.8,2.8,0,0,0-.28.89,36.76,36.76,0,0,0,0,4.81c.09,5,2.26,15.91,2.26,15.91l1.14-.17-1-10.05c-.33-3.41,2.85.18,4.13,3.72s3.43,7.19,10.88,6.27C241.36,710.27,244.91,709.4,242.4,707.6Z"/><path class="cls-35" d="M226.74,683.94s6.45,18.08,10.85,21.9c0,0-6.75,3.13-12.49-6-7.44-11.79-9.84-9-9.84-9a30.6,30.6,0,0,1,1.6-5.45C218.51,682.05,226.74,683.94,226.74,683.94Z"/><path class="cls-36" d="M214.67,382.12s-3.64-.1-5.34,2.5"/><path class="cls-21" d="M213.08,390.77a27.05,27.05,0,0,0,4.26,4.91,3.53,3.53,0,0,1-3.21,1.79Z"/><path class="cls-10" d="M214.93,387c.13,1.05-.33,2-1,2.06s-1.37-.69-1.5-1.74.32-2,1-2.05S214.79,386,214.93,387Z"/><path class="cls-10" d="M213.14,385.39l2.16-1.18S214.41,386.26,213.14,385.39Z"/><path class="cls-35" d="M187.76,412.1a3.49,3.49,0,0,0,.43.28,19,19,0,0,0,6.87,2.95c7.17,1.29,12,.09,15-3.27h0c4.19-5,4.88-13.6,3.75-23.86a38.73,38.73,0,0,0-2.83-11.9s0-.15,0-.18-.13-.3-.2-.43A14.06,14.06,0,0,0,200,367.62a29.16,29.16,0,0,0-6.12-.39C173.82,368,171.83,401.39,187.76,412.1Z"/><path class="cls-14" d="M188.19,412.38a18.5,18.5,0,0,0,6.86,2.67c7.17,1.29,11.95-.15,14.95-3.56a20,20,0,0,1-12.77-.42C194.3,409.9,191.14,410.73,188.19,412.38Z"/><path class="cls-10" d="M211,376.16s1.79,14-11.24,20.7c0,0-5,14.88-13.42,15.5-11.47.84-22.39-15-19.23-31.84C171.19,358.68,203.8,355.33,211,376.16Z"/><path class="cls-35" d="M206.28,392.49c-.11-2.19-2.05-5.79-5.44-5.12s-5,9.48,3.74,11C205.83,398.59,206.52,397.07,206.28,392.49Z"/><path class="cls-10" d="M185.75,362.41s13.25-4.05,20.93,1c9,5.88,12.57,12.24,2.81,22.85,0,0-22.88-6.2-30.29-4.29a80.65,80.65,0,0,0-12.66,4.36C164.24,371.51,178.11,359.74,185.75,362.41Z"/><path class="cls-35" d="M198.35,414s-9.85,4.81-7,15.37L166.3,418.9s13.7-.86,13-10.5C179.3,408.4,193.64,402.9,198.35,414Z"/><path class="cls-10" d="M189.18,365.12s-7.48-21.55-24.46-17.83-15.67,21.94-3.53,27.58S190.35,378.36,189.18,365.12Z"/><path class="cls-10" d="M165.88,374.52s-15-.09-13.14,12.75c0,0,1.29-4.16,4.67-5.87,0,0-4.54,3.47,0,9.49,0,0-1.82-3.92,4.38-6.66s23.14-2.47,20-10.85S165.88,374.52,165.88,374.52Z"/><path class="cls-36" d="M186.53,365.09s-3.61-26.23-24.78-20.93"/><path class="cls-36" d="M178.11,403.71s-15.43-7.8-12.69-20.16"/><path class="cls-36" d="M164.34,374.61s-13.53-.21-14.7,9"/><path class="cls-32" d="M168,418.19l6.12-4.41s20.13,2.73,20.34,15.56S168,418.19,168,418.19Z"/><path class="cls-10" d="M164.34,418.19s15.1-2.9,36.1,11.15c0,0,7,30.76-22.69,72.57l-56.36-3.53S136.65,436.78,164.34,418.19Z"/><path class="cls-37" d="M179.5,507.84l-19.18,9.63s6.35-10.62,17.43-15.56C178.75,505.13,179.5,507.84,179.5,507.84Z"/><path class="cls-7" d="M198.74,457.69a107,107,0,0,1-4,12.84,138.11,138.11,0,0,1-17,31.39l-56.36-3.54s15.26-61.59,42.94-80.19c0,0,15.09-2.89,36.11,11.15C200.45,429.34,202.93,440.17,198.74,457.69Z"/><path class="cls-14" d="M198.74,457.69a107,107,0,0,1-4,12.84,84.92,84.92,0,0,1,.11-13.92A11.53,11.53,0,0,1,198.74,457.69Z"/><path class="cls-10" d="M200.44,429.34S217,453.17,221.3,455.45s-4-37.26-4-37.26l8-1.74S239.52,464,230,472.17s-35.13-15.55-35.13-15.55a88.89,88.89,0,0,1,0-16.34A18.31,18.31,0,0,1,200.44,429.34Z"/><path class="cls-29" d="M200.44,429.34S217,453.17,221.3,455.45s-4-37.26-4-37.26l8-1.74S239.52,464,230,472.17s-35.13-15.55-35.13-15.55a88.89,88.89,0,0,1,0-16.34A18.31,18.31,0,0,1,200.44,429.34Z"/></g><path class="cls-16" d="M90.05,548.75H201.12a13.36,13.36,0,0,1,13.36,13.36v8.77a0,0,0,0,1,0,0H76.69a0,0,0,0,1,0,0V562.1A13.36,13.36,0,0,1,90.05,548.75Z"/><path class="cls-5" d="M90.05,548.75H201.12a13.36,13.36,0,0,1,13.36,13.36v8.77a0,0,0,0,1,0,0H76.69a0,0,0,0,1,0,0V562.1A13.36,13.36,0,0,1,90.05,548.75Z"/><path class="cls-10" d="M121.9,494h75.86c3.9,0,6.79,4.23,5.91,8.65L190.1,570.88H187l11.56-59.83c.85-4.42-2-8.61-5.92-8.61H123.44Z"/><path class="cls-10" d="M154.44,573.26v57.68a3.36,3.36,0,0,1-3.36,3.35H136.94a3.34,3.34,0,0,1-3.35-3.35V573.26Z"/><path class="cls-10" d="M76.38,706.44a6.13,6.13,0,1,0-6.13,6.13A6.13,6.13,0,0,0,76.38,706.44Z"/><path class="cls-34" d="M73.32,706.44a3.07,3.07,0,1,0-3.07,3.06A3.07,3.07,0,0,0,73.32,706.44Z"/><path class="cls-10" d="M223.89,706.44a6.13,6.13,0,1,0-6.13,6.13A6.13,6.13,0,0,0,223.89,706.44Z"/><circle class="cls-34" cx="217.76" cy="706.44" r="3.06"/><path class="cls-10" d="M149.08,679.55V613.63H138.94v65.92c-39.48,1-63.47,14.82-68.27,17.84a1.93,1.93,0,0,0-.9,1.63v5.48a1.94,1.94,0,0,0,1.94,1.94h0a1.91,1.91,0,0,0,1.68-1l2.35-4.11s27.15-9.68,63.2-10.46v10.83a2.51,2.51,0,0,0,2.51,2.51h5.12a2.51,2.51,0,0,0,2.51-2.51V690.89c36,.78,63.2,10.46,63.2,10.46l2.34,4.11a1.94,1.94,0,0,0,1.68,1h0a1.94,1.94,0,0,0,1.94-1.94V699a1.92,1.92,0,0,0-.89-1.63C212.55,694.37,188.56,680.56,149.08,679.55Z"/><rect class="cls-10" x="140.68" y="700.31" width="6.65" height="12.26"/><rect class="cls-14" x="133.59" y="573.26" width="20.85" height="23.96"/><path class="cls-10" d="M218.25,567.32v6.89a3.3,3.3,0,0,1-3,3.52H76a3.29,3.29,0,0,1-3-3.52v-6.89a3.29,3.29,0,0,1,3-3.51H215.21A3.31,3.31,0,0,1,218.25,567.32Z"/><path class="cls-10" d="M154.18,570.88H72.94s-25.82-42.4-25.82-112.45V432.7a19.27,19.27,0,0,1,19.4-19.14H101a19.28,19.28,0,0,1,19.39,18.6C121.36,468.26,126.74,546.42,154.18,570.88Z"/><path class="cls-34" d="M136.31,570.88H76.61a6.18,6.18,0,0,1-5.49-3.28c-5.88-11.2-24-50.48-24-109.17V432.7a19.27,19.27,0,0,1,19.39-19.14H96.28a19.26,19.26,0,0,1,19.38,18.6c.9,32.25,5.29,98.07,25.78,129.18A6.13,6.13,0,0,1,136.31,570.88Z"/><path class="cls-14" d="M218.25,567.32v6.89a3.3,3.3,0,0,1-3,3.52H152.82c-2.26,0-4.08-2.13-4.08-4.76v-4.41c0-2.63,1.82-4.75,4.08-4.75h62.39A3.31,3.31,0,0,1,218.25,567.32Z"/><circle class="cls-38" cx="206" cy="96.06" r="44.4"/><line class="cls-39" x1="206" y1="51.66" x2="206" y2="60.27"/><line class="cls-39" x1="206" y1="131.84" x2="206" y2="140.45"/><line class="cls-39" x1="250.4" y1="96.06" x2="241.79" y2="96.06"/><line class="cls-39" x1="170.21" y1="96.06" x2="161.61" y2="96.06"/><line class="cls-39" x1="206" y1="66.2" x2="206" y2="96.06"/><line class="cls-39" x1="206" y1="96.06" x2="225.54" y2="96.06"/><text class="cls-40" transform="translate(169.75 166.91)">JEDDAH</text><circle class="cls-38" cx="81.19" cy="96.06" r="44.4"/><line class="cls-39" x1="81.19" y1="51.66" x2="81.19" y2="60.27"/><line class="cls-39" x1="81.19" y1="131.84" x2="81.19" y2="140.45"/><line class="cls-39" x1="125.58" y1="96.06" x2="116.98" y2="96.06"/><line class="cls-39" x1="45.4" y1="96.06" x2="36.79" y2="96.06"/><line class="cls-39" x1="81.19" y1="66.2" x2="81.19" y2="96.06"/><line class="cls-39" x1="81.19" y1="96.06" x2="98.67" y2="87.68"/><text class="cls-40" transform="translate(52.06 166.9)">CAIRO</text><circle class="cls-38" cx="330.82" cy="96.06" r="44.4"/><line class="cls-39" x1="330.82" y1="51.66" x2="330.82" y2="60.27"/><line class="cls-39" x1="330.82" y1="131.84" x2="330.82" y2="140.45"/><line class="cls-39" x1="375.21" y1="96.06" x2="366.61" y2="96.06"/><line class="cls-39" x1="295.03" y1="96.06" x2="286.42" y2="96.06"/><line class="cls-39" x1="330.82" y1="66.2" x2="330.82" y2="96.06"/><line class="cls-39" x1="330.82" y1="96.06" x2="348.3" y2="107.57"/><text class="cls-40" transform="translate(302.45 166.9)">DUBAI</text></g></g></svg>