<svg xmlns="http://www.w3.org/2000/svg" viewBox="0 0 535.65 551.4"><defs><style>.cls-1{fill:#f5f5f5;}.cls-2{fill:#e6e6e6;}.cls-3{fill:#021c27;}.cls-4{fill:#132c35;}.cls-5{fill:#455a64;}.cls-22,.cls-36,.cls-6{fill:#27debf;}.cls-7{fill:#020d13;}.cls-8{opacity:0.15;}.cls-16,.cls-9{fill:#263238;}.cls-10{fill:#37474f;}.cls-11,.cls-27{fill:#04ccc2;}.cls-11,.cls-26{opacity:0.75;}.cls-12{fill:#e0e0e0;}.cls-13{fill:#ebebeb;}.cls-14,.cls-17,.cls-19,.cls-37{fill:#fff;}.cls-15,.cls-37{opacity:0.5;}.cls-16,.cls-21{opacity:0.9;}.cls-17,.cls-18,.cls-22{opacity:0.6;}.cls-19,.cls-20{opacity:0.8;}.cls-23{fill:#059993;}.cls-24{opacity:0.7;}.cls-25{opacity:0.3;}.cls-28{fill:#ffa8a7;}.cls-29{fill:#fafafa;}.cls-30{fill:#03141c;}.cls-31{fill:#0a776f;}.cls-32{fill:#f28f8f;}.cls-33,.cls-35{fill:none;stroke:#263238;stroke-miterlimit:10;}.cls-33{stroke-width:1.44px;}.cls-34{fill:#03283a;}.cls-35{stroke-width:1.23px;}.cls-36{opacity:0.1;}</style></defs><title>SOFTWARE HOUSE</title><g id="Layer_2" data-name="Layer 2"><g id="Layer_1-2" data-name="Layer 1"><ellipse id="Floor" class="cls-1" cx="267.83" cy="403.11" rx="267.83" ry="148.29"/><path id="Shadow" class="cls-2" d="M508.9,380.16,359.6,466.4a4.43,4.43,0,0,1-4,0L140.33,342.12a1.22,1.22,0,0,1,0-2.32l149.29-86.24a4.45,4.45,0,0,1,4,0L508.9,377.84A1.22,1.22,0,0,1,508.9,380.16Z"/><ellipse id="Shadow-2" data-name="Shadow" class="cls-2" cx="161.96" cy="462.87" rx="89.68" ry="51.78"/><ellipse id="Shadow-3" data-name="Shadow" class="cls-2" cx="271.16" cy="402.84" rx="70.59" ry="40.76"/><ellipse id="Shadow-4" data-name="Shadow" class="cls-2" cx="428.15" cy="457.46" rx="44.31" ry="25.58"/><g id="Desk"><g id="Table"><path class="cls-3" d="M362.86,312.34V444.85a3,3,0,0,1-1.34,2.32l-2.84,1.64a3,3,0,0,1-2.68,0l-2.84-1.64a3,3,0,0,1-1.34-2.32V312.34c0-.86.6-1.2,1.34-.78L356,313.2a3,3,0,0,0,2.68,0l2.84-1.64C362.26,311.14,362.86,311.48,362.86,312.34Z"/><path class="cls-4" d="M356,448.81l-2.84-1.64a3,3,0,0,1-1.34-2.32V312.34c0-.86.6-1.2,1.34-.78L356,313.2a3,3,0,0,1,1.34,2.32V448C357.34,448.89,356.74,449.23,356,448.81Z"/><path class="cls-3" d="M484.11,242.29V374.8a3,3,0,0,1-1.34,2.32l-2.84,1.64a3,3,0,0,1-2.68,0l-2.84-1.64a3,3,0,0,1-1.34-2.32V242.29c0-.85.6-1.2,1.34-.77l2.84,1.64a3,3,0,0,0,2.68,0l2.84-1.64C483.51,241.09,484.11,241.44,484.11,242.29Z"/><path class="cls-4" d="M477.25,378.76l-2.84-1.64a3,3,0,0,1-1.34-2.32V242.29c0-.85.6-1.2,1.34-.77l2.84,1.64a2.94,2.94,0,0,1,1.34,2.31V378C478.59,378.84,478,379.19,477.25,378.76Z"/><path class="cls-3" d="M199.56,218.1V350.62a3,3,0,0,1-1.34,2.32l-2.84,1.64a3,3,0,0,1-2.67,0l-2.85-1.64a3,3,0,0,1-1.33-2.32V218.1c0-.85.59-1.2,1.33-.77l2.85,1.64a2.92,2.92,0,0,0,2.67,0l2.84-1.64C199,216.9,199.56,217.25,199.56,218.1Z"/><path class="cls-5" d="M192.71,354.58l-2.85-1.64a3,3,0,0,1-1.33-2.32V218.1c0-.85.59-1.2,1.33-.77l2.85,1.64a3,3,0,0,1,1.33,2.32V353.8C194,354.66,193.44,355,192.71,354.58Z"/><path class="cls-6" d="M510.49,251.71v-1a5.37,5.37,0,0,0-2.43-4.21L294.23,123.2a5.34,5.34,0,0,0-4.86,0l-131.55,76a5.39,5.39,0,0,0-2.43,4.21v1a5.39,5.39,0,0,0,2.43,4.22L371.65,331.9a5.36,5.36,0,0,0,4.87,0l131.54-76A5.39,5.39,0,0,0,510.49,251.71Z"/><path class="cls-7" d="M510.49,251.71v-1a5.37,5.37,0,0,0-2.43-4.21L294.23,123.2a5.34,5.34,0,0,0-4.86,0l-131.55,76a5.39,5.39,0,0,0-2.43,4.21v1a5.39,5.39,0,0,0,2.43,4.22L371.65,331.9a5.36,5.36,0,0,0,4.87,0l131.54-76A5.39,5.39,0,0,0,510.49,251.71Z"/><path class="cls-6" d="M374.08,325.9v6.59a5.23,5.23,0,0,0,2.44-.58l131.53-76a5.39,5.39,0,0,0,2.44-4.22v-1a5.36,5.36,0,0,0-2-3.9c.88.75.73,1.8-.45,2.49l-131.53,76A4.9,4.9,0,0,1,374.08,325.9Z"/><path class="cls-7" d="M374.08,325.9v6.59a5.23,5.23,0,0,0,2.44-.58l131.53-76a5.39,5.39,0,0,0,2.44-4.22v-1a5.36,5.36,0,0,0-2-3.9c.88.75.73,1.8-.45,2.49l-131.53,76A4.9,4.9,0,0,1,374.08,325.9Z"/><path class="cls-3" d="M508.06,249.34l-131.54,76a5.36,5.36,0,0,1-4.87,0L157.82,202c-1.34-.78-1.34-2,0-2.81l131.55-76a5.34,5.34,0,0,1,4.86,0L508.06,246.53C509.4,247.3,509.4,248.56,508.06,249.34Z"/></g><g id="Keyboard"><path id="Shadow-5" data-name="Shadow" class="cls-8" d="M357.92,247.68l-31.16,18.05a3.87,3.87,0,0,1-3.49,0l-92.08-53.09a1.06,1.06,0,0,1,0-2l31.17-18a3.84,3.84,0,0,1,3.49,0l92.07,53.08A1.06,1.06,0,0,1,357.92,247.68Z"/><g id="Keyboard-2" data-name="Keyboard"><path class="cls-9" d="M233.08,207.43a1.23,1.23,0,0,1,.72-1l29.28-16.9a3.84,3.84,0,0,1,3.49,0l89.34,51.66a1.23,1.23,0,0,1,.73,1v3.07a1.22,1.22,0,0,1-.73,1l-29.26,16.9a3.92,3.92,0,0,1-3.5,0L233.8,211.58a1.21,1.21,0,0,1-.72-1Z"/><path class="cls-10" d="M326.65,260l29.26-16.82a1.06,1.06,0,0,0,0-2l-89.34-51.66a3.84,3.84,0,0,0-3.49,0l-29.28,16.9a1.06,1.06,0,0,0,0,2L323.15,260A3.92,3.92,0,0,0,326.65,260Z"/><path class="cls-9" d="M325,260.44v3.13a3.49,3.49,0,0,0,1.64-.4l29.26-16.9a1.23,1.23,0,0,0,.72-1v-3.07a1.22,1.22,0,0,1-.72,1L326.65,260A3.75,3.75,0,0,1,325,260.44Z"/><path class="cls-11" d="M238.5,207.65s0,0,0,0l2.9-1.67,3.93,2.27-2.91,1.73-3.93-2.27ZM243,205s0,0,0,0l2.9-1.68L249,205.1l-2.91,1.73L243,205.05Zm1,5.79a0,0,0,0,1,0,0l2.9-1.68,3.09,1.78-2.92,1.73L244,210.84Zm3.58-8.41s0,0,0,0l2.89-1.67,5,2.88-2.92,1.73-5-2.88Zm.12,5.31s0,0,0,0L250.6,206l2.46,1.41-2.92,1.73-2.45-1.41Zm.95,5.79s0,0,0,0l2.9-1.67,3.09,1.78-2.92,1.73-3.08-1.78ZM251.7,210a.05.05,0,0,1,0,0l2.9-1.67,2.45,1.42-2.92,1.73-2.45-1.42Zm.41-10.24s0,0,0,0l2.9-1.68,3.93,2.27L256,202.08l-3.92-2.26Zm1.18,16.4a.05.05,0,0,1,0,0l2.9-1.67,22.31,12.88-2.92,1.73-22.31-12.88Zm.83-10a0,0,0,0,1,0,0l2.9-1.68,2.45,1.42-2.91,1.73-2.45-1.41Zm1.59,6.16s0,0,0,0l2.9-1.67,2.45,1.42-2.91,1.73-2.45-1.42Zm.94-15.17s0,0,0,0l2.9-1.68,2.45,1.42-2.92,1.73-2.45-1.41Zm1,5.79a.07.07,0,0,1,0,0l2.9-1.68,2.45,1.42-2.91,1.73L257.61,203Zm.54,5.54a.05.05,0,0,1,0,0l2.9-1.67,2.45,1.42L260.59,210l-2.45-1.42Zm1.59,6.16s0,0,0,0l2.89-1.67,2.46,1.41-2.92,1.73-2.45-1.41Zm.93-15.18s0,0,0,0l2.9-1.67L266,199.2l-2.91,1.73-2.45-1.42Zm1,5.79s0,0,0,0l2.89-1.68L267,205l-2.92,1.73-2.45-1.42Zm.53,5.55a.05.05,0,0,1,0,0l2.9-1.67,2.45,1.41-2.92,1.73-2.44-1.41Zm0-16.83a.07.07,0,0,1,0,0l2.9-1.67,3.09,1.78-2.92,1.73L262.16,194Zm1.59,23s0,0,0,0l2.9-1.68,2.45,1.42-2.92,1.73L263.75,217Zm.94-15.17a.05.05,0,0,1,0,0l2.89-1.67,2.45,1.42-2.91,1.73-2.45-1.42Zm.95,5.79a.05.05,0,0,1,0,0l2.9-1.67,2.45,1.42L268.08,209l-2.45-1.42Zm.53,5.55a0,0,0,0,1,0,0l2.89-1.67,2.45,1.41-2.91,1.73-2.45-1.41Zm1.59,6.15s0,0,0,0l2.9-1.67,2.45,1.42-2.91,1.73-2.45-1.42Zm.8-21.61s0,0,0,0l2.9-1.67,2.45,1.41L271,199.12l-2.45-1.41Zm.14,6.44s0,0,0,0l2.9-1.67,2.45,1.41-2.92,1.73-2.45-1.41Zm.95,5.79a.07.07,0,0,1,0,0l2.9-1.67,2.46,1.41-2.92,1.73-2.45-1.41Zm.54,5.54a.05.05,0,0,1,0,0l2.9-1.67,2.45,1.42-2.92,1.73-2.45-1.42Zm1.59,6.16a.05.05,0,0,1,0,0l2.9-1.67,2.45,1.42-2.92,1.72-2.45-1.41Zm.79-21.61s0,0,0,0l2.9-1.67,2.45,1.41L275,201.44,272.56,200Zm.14,6.43s0,0,0,0l2.9-1.68,2.45,1.42-2.92,1.73-2.44-1.41Zm1,5.8s0,0,0,0l2.9-1.68,2.45,1.42-2.92,1.73-2.45-1.41Zm.53,5.54a.05.05,0,0,1,0,0l2.9-1.67,2.45,1.42-2.92,1.73-2.44-1.42Zm1.59,6.16s0,0,0,0l2.9-1.67,2.45,1.41-2.91,1.73L275.79,224Zm.79-21.62s0,0,0,0l2.9-1.67,2.45,1.42L279,203.76l-2.45-1.42Zm.15,6.44a.05.05,0,0,1,0,0l2.89-1.67,2.45,1.42-2.91,1.73-2.45-1.42Zm.44,21.21a.05.05,0,0,1,0,0l2.9-1.67,3.08,1.78-2.91,1.73L277.16,230Zm.51-15.42a.05.05,0,0,1,0,0l2.9-1.67,2.45,1.42L280.12,216l-2.44-1.42Zm.53,5.55a.07.07,0,0,1,0,0l2.9-1.67,2.45,1.41-2.91,1.73-2.45-1.41Zm1.59,6.15s0,0,0,0l2.89-1.67,2.45,1.42-2.91,1.73-2.45-1.42Zm.8-21.61a.05.05,0,0,1,0,0l2.89-1.67,2.46,1.42L283,206.08l-2.45-1.42Zm.14,6.44a.05.05,0,0,1,0,0l2.9-1.67,2.45,1.41-2.92,1.73-2.45-1.41Zm.95,5.79s0,0,0,0l2.89-1.67,2.46,1.41-2.92,1.73-2.45-1.41Zm.13,15.78a.05.05,0,0,1,0,0l2.89-1.67,3.09,1.78-2.91,1.74-3.09-1.79Zm.41-10.23s0,0,0,0l2.9-1.68,2.45,1.42-2.92,1.73-2.45-1.41Zm1.59,6.15a.05.05,0,0,1,0,0l2.9-1.67,2.45,1.42L286.26,230l-2.45-1.42Zm.93-15.17s0,0,0,0l2.9-1.67,2.45,1.41-2.92,1.73-2.44-1.41Zm1,5.79s0,0,0,0l2.9-1.67,2.45,1.41-2.92,1.73-2.45-1.41Zm.53,5.54s0,0,0,0l2.9-1.68,2.45,1.42-2.92,1.73-2.44-1.42Zm.12-16.76s0,0,0,0l2.89-1.68,2.46,1.42-2.92,1.73L286.35,208Zm.1,27.37a.07.07,0,0,1,0,0l2.9-1.67,3.09,1.78-2.92,1.73-3.08-1.78Zm1.37-4.45s0,0,0,0l2.9-1.67,2.45,1.41-2.92,1.73-2.44-1.41Zm.93-15.18s0,0,0,0l2.89-1.67,2.46,1.42-2.92,1.73-2.45-1.42Zm1,5.79a0,0,0,0,1,0,0l2.9-1.68,2.45,1.42-2.91,1.73-2.45-1.42Zm.53,5.55s0,0,0,0l2.9-1.67,2.46,1.42-2.92,1.72-2.45-1.41Zm.12-16.77s0,0,0,0l2.9-1.68,2.45,1.42-2.92,1.73-2.45-1.42ZM291.1,238a.05.05,0,0,1,0,0l2.9-1.67,3.93,2.27L295,240.31,291.11,238Zm.73-4.81a0,0,0,0,1,0,0l2.89-1.68,7.74,4.47-2.92,1.73-7.73-4.46Zm.94-15.18a.05.05,0,0,1,0,0l2.9-1.67,2.45,1.42-2.92,1.73-2.45-1.42Zm1,5.79a.05.05,0,0,1,0,0l2.89-1.67,2.46,1.42-2.92,1.73-2.45-1.42Zm.53,5.55s0,0,0,0l2.9-1.67,2.45,1.41-2.92,1.73-2.45-1.41Zm.11-16.77s0,0,0,0l2.9-1.67,2.45,1.42L296.83,214l-2.45-1.42Zm2.41,7.75a.07.07,0,0,1,0,0l2.9-1.67,2.45,1.41-2.91,1.73-2.45-1.41Zm.66,21.33a.05.05,0,0,1,0,0l2.9-1.67,2.45,1.41-2.92,1.73-2.45-1.41Zm.3-15.54s0,0,0,0l2.9-1.67,2.45,1.41-2.92,1.73-2.45-1.41Zm.53,5.54s0,0,0,0l2.9-1.68,2.24,1.3a1.89,1.89,0,0,0,1.45,0l3.8-2.2,2.88,1.66-7.45,4.35-5.83-3.37Zm.12-16.76s0,0,0,0l2.89-1.67,2.46,1.41-2.92,1.73-2.45-1.41Zm2.41,7.75s0,0,0,0l2.89-1.67,2.46,1.41-2.92,1.73-2.45-1.41Zm.65,21.33a.07.07,0,0,1,0,0l2.9-1.68,2.45,1.42-2.92,1.73L301.46,244Zm.3-15.54a.07.07,0,0,1,0,0l2.9-1.68,2.45,1.42-2.92,1.73-2.44-1.41Zm2.4-10.22a.05.05,0,0,1,0,0l2.89-1.67,2.46,1.42-2.92,1.73-2.45-1.42Zm.66,6.74a.05.05,0,0,1,0,0l2.9-1.67,2.45,1.42-2.92,1.73L304.82,225Zm.65,21.33s0,0,0,0l2.89-1.67,2.46,1.42-2.92,1.73-2.45-1.42Zm.53-4.93s0,0,0,0l2.9-1.67,2.45,1.41-2.92,1.73L306,241.4Zm2.17-20.82a.05.05,0,0,1,0,0l2.9-1.67,2.45,1.42L310.61,222l-2.44-1.41Zm.66,6.74s0,0,0,0l2.9-1.67,4.35,2.51-2.91,1.73-4.35-2.51Zm1.5,21.82a.07.07,0,0,1,0,0l2.9-1.67,6.47,3.73-2.92,1.73-6.46-3.73Zm.73-15.3a.05.05,0,0,1,0,0l2.89-1.67,2.46,1.42-2.92,1.73-2.45-1.42Zm1.12-10.94a0,0,0,0,1,0,0l2.89-1.67,2.45,1.41-2.91,1.73-2.45-1.41Zm2.69,23.62s0,0,0,0l2.9-1.67,2.45,1.41-2.91,1.73-2.46-1.41Zm.2-10.36s0,0,0,0l2.9-1.67,2.45,1.41-2.92,1.73-2.45-1.41Zm.52-4.94s0,0,0,0l2.9-1.67,2.45,1.42L318,232.64l-2.45-1.42Zm.61-6s0,0,0,0l2.9-1.68,2.45,1.42-2.92,1.73-2.45-1.41Zm2.16,28.56a.05.05,0,0,1,0,0l2.9-1.67,2.45,1.42-2.92,1.73-2.44-1.42Zm.52-4.93a.07.07,0,0,1,0,0l2.9-1.67,2.45,1.41-2.91,1.73-2.45-1.41Zm.2-10.36a.07.07,0,0,1,0,0l2.9-1.68,2.46,1.42-2.92,1.73-2.45-1.41Zm.33,5.42a.05.05,0,0,1,0,0l2.89-1.67,2.46,1.42-2.92,1.72-2.45-1.41Zm.2-10.36a.05.05,0,0,1,0,0l2.89-1.67,2.46,1.41L322.05,235l-2.45-1.41Zm1.49-5.5s0,0,0,0l2.9-1.68,2.45,1.42-2.92,1.73-2.45-1.41Zm1.27,28s0,0,0,0l7.44-4.29,2.45,1.42-7.45,4.35-2.45-1.42Zm.53-4.94a.05.05,0,0,1,0,0l2.89-1.67,2.46,1.42-2.92,1.73-2.45-1.42Zm.52-4.93s0,0,0,0l2.9-1.67,2.45,1.41-2.92,1.73-2.45-1.41Zm.2-10.36s0,0,0,0l2.9-1.67,2.45,1.41-2.92,1.73-2.44-1.41Zm.32,5.42a.05.05,0,0,1,0,0l2.9-1.67L329.3,241l-2.92,1.73-2.44-1.42Zm1.17-10.92s0,0,0,0l2.9-1.67,2.45,1.42-2.91,1.73-2.45-1.42Zm2.32,18.17a0,0,0,0,1,0,0l2.9-1.68,2.45,1.42L329.88,250l-2.45-1.41Zm.52-4.93s0,0,0,0l2.89-1.67,2.46,1.41L330.4,245,328,243.6Zm.53-4.94a.05.05,0,0,1,0,0l2.9-1.67,2.45,1.42-2.92,1.73-2.45-1.42Zm.65-6s0,0,0,0L332,231l2.46,1.41-2.92,1.73-2.45-1.41Zm2.32,18.17a.05.05,0,0,1,0,0l7.43-4.29,2.45,1.42-7.45,4.35-2.45-1.42Zm.52-4.94s0,0,0,0l2.9-1.68,2.45,1.42-2.92,1.73L332,245.92Zm.52-4.93a.05.05,0,0,1,0,0l2.9-1.67,2.45,1.41-2.92,1.73L332.49,241Zm2.66-6.17a.05.05,0,0,1,0,0l1.23-.72,2.45,1.41-1.26.78-2.44-1.41Zm1.35,8.49a0,0,0,0,1,0,0l2.89-1.67,2.46,1.41L339,244.71l-2.45-1.41Zm2.66-6.17a.07.07,0,0,1,0,0l1.23-.73,2.46,1.42-1.26.78-2.44-1.41Zm1.36,8.48s0,0,0,0l2.9-1.68,2.45,1.42L343,247l-2.44-1.41Zm2.66-6.16s0,0,0,0l1.23-.73,2.45,1.42-1.26.77-2.44-1.4Zm4,2.31a.05.05,0,0,1,0,0l1.23-.72,2.45,1.41-1.25.78-2.45-1.41Z"/></g></g><g id="Device"><polygon id="Shadow-6" data-name="Shadow" class="cls-8" points="429.94 251.18 457.35 235.35 320.27 156.21 292.86 172.04 429.94 251.18"/><g id="Monitor"><path class="cls-2" d="M352.31,225.42,332.74,214.1c-2-1.17-3-2.69-3-4.22v-2.72l18.41-10.45a4.32,4.32,0,0,0,1.95-3.38V169.2L384.26,189v24.14a4.29,4.29,0,0,1-1.95,3.37l-15.38,9A16.16,16.16,0,0,1,352.31,225.42Z"/><path class="cls-12" d="M376.05,217.36v2.71l6.27-3.61a4.31,4.31,0,0,0,1.94-3.38V189l-6.51-3.76c-.14,1.65-.28,3.36-.42,5l4.57,2.64v18.85A4.29,4.29,0,0,1,380,215.1Z"/><path class="cls-1" d="M381.9,211.73A4.29,4.29,0,0,1,380,215.1l-13,7.6a16.14,16.14,0,0,1-14.61,0l-19.59-11.32c-4-2.33-4-6.1,0-8.43l13-7.6a4.33,4.33,0,0,0,1.94-3.38V173.12l34.19,19.75Z"/><path class="cls-13" d="M341.8,197.64h0l4-2.29a4.33,4.33,0,0,0,1.94-3.38V173.12l34.19,19.75v18.86A4.29,4.29,0,0,1,380,215.1l-3.9,2.25Z"/><path class="cls-13" d="M329.71,207.16v2.72c0,1.53,1,3.05,3,4.22l19.57,11.31a14.55,14.55,0,0,0,7,1.73v-2.71a14.55,14.55,0,0,1-7-1.73l-19.57-11.32C330.72,210.22,329.71,208.69,329.71,207.16Z"/><path class="cls-7" d="M436.79,237.76a5.21,5.21,0,0,1-4.72-.09L299.86,161.34a5.37,5.37,0,0,1-2.43-4.22V41.4a4.57,4.57,0,0,1,7-4l132.21,76.33a5.37,5.37,0,0,1,2.44,4.22V233.63A5.24,5.24,0,0,1,436.79,237.76Z"/><path class="cls-3" d="M432.07,237.67,299.86,161.34a5.4,5.4,0,0,1-2.43-4.22V41.4c0-1.55,1.09-2.18,2.43-1.41l132.21,76.33a5.39,5.39,0,0,1,2.44,4.22V236.26C434.51,237.82,433.42,238.45,432.07,237.67Z"/><path class="cls-12" d="M432.43,238.15a4.56,4.56,0,0,0,6.65-4.23v-13l-4.57,2.64v13C434.51,238,433.61,238.63,432.43,238.15Z"/><path class="cls-14" d="M434.51,223.55v13c0,1.56-1.09,2.19-2.44,1.41L299.86,161.64a5.4,5.4,0,0,1-2.43-4.22v-13Z"/><path class="cls-6" d="M429.94,213.65V122.06a3.24,3.24,0,0,0-1.46-2.53l-125-72.18c-.81-.47-1.46-.09-1.46.84v91.59a3.24,3.24,0,0,0,1.47,2.54l125,72.17C429.28,215,429.94,214.58,429.94,213.65Z"/><path class="cls-11" d="M429.94,213.65V122.06a3.24,3.24,0,0,0-1.46-2.53l-125-72.18c-.81-.47-1.46-.09-1.46.84v91.59a3.24,3.24,0,0,0,1.47,2.54l125,72.17C429.28,215,429.94,214.58,429.94,213.65Z"/><path class="cls-3" d="M366,189a5,5,0,0,1,2.28,3.95c0,1.46-1,2.05-2.28,1.32a5.06,5.06,0,0,1-2.29-4C363.68,188.82,364.71,188.23,366,189Z"/><path class="cls-9" d="M433.79,118.13a5.16,5.16,0,0,1,.72,2.41v103l4.57-2.64v-103a5,5,0,0,0-.72-2.41Z"/></g></g><g id="Window"><g id="Window-2" data-name="Window"><path class="cls-5" d="M319.06,17.51a.78.78,0,0,1,0-.22s0,0,0,0a1.05,1.05,0,0,1,.06-.21.83.83,0,0,1,.14-.3.37.37,0,0,1,.07-.12.27.27,0,0,1,.07-.08.77.77,0,0,1,.15-.16h0a.82.82,0,0,1,.2-.12,1.71,1.71,0,0,1,1.57.2l154.29,89a5.18,5.18,0,0,1,2.33,4v112.2a1.57,1.57,0,0,1-.84,1.4l-.1.07-.12.07-.2.07a1.54,1.54,0,0,1-.3,0,1.51,1.51,0,0,1-.77-.23l-.06,0h0l-2.22-1.29-152-87.76a5.13,5.13,0,0,1-2.34-4V17.8A2.64,2.64,0,0,1,319.06,17.51Z"/><path class="cls-6" d="M319.81,16.25a1.71,1.71,0,0,1,1.57.2l154.29,89a5.18,5.18,0,0,1,2.33,4v7.62l3-1.74v-7.57a5.14,5.14,0,0,0-2.33-4l-154.3-89a1.62,1.62,0,0,0-1.69-.14C322.24,14.88,320.31,16,319.81,16.25Z"/><path class="cls-11" d="M319.05,17.78c0-1.47,1.05-2.07,2.33-1.33l154.29,89a5.15,5.15,0,0,1,2.33,4v7.62L319.05,25.43Z"/><g class="cls-15"><path class="cls-14" d="M321.38,16.45l154.29,89a5,5,0,0,1,1.64,1.73l3-1.71a4.66,4.66,0,0,0-1.62-1.7l-154.3-89a1.62,1.62,0,0,0-1.69-.14c-.42.26-2.35,1.35-2.84,1.62A1.69,1.69,0,0,1,321.38,16.45Z"/></g><path class="cls-8" d="M481,115.42v-7.58a4.81,4.81,0,0,0-.71-2.33l-3,1.71a4.73,4.73,0,0,1,.7,2.31v7.62Z"/><path class="cls-5" d="M472.74,107.1a3.47,3.47,0,0,1,1.32,2.79c0,1.12-.59,1.69-1.32,1.27a3.49,3.49,0,0,1-1.31-2.79C471.43,107.25,472,106.68,472.74,107.1Z"/><path class="cls-5" d="M468,104.36a3.47,3.47,0,0,1,1.32,2.79c0,1.12-.59,1.69-1.32,1.27a3.49,3.49,0,0,1-1.31-2.79C466.69,104.51,467.28,103.94,468,104.36Z"/><path class="cls-5" d="M463.26,101.62a3.47,3.47,0,0,1,1.32,2.79c0,1.12-.59,1.68-1.32,1.26a3.45,3.45,0,0,1-1.32-2.78C461.94,101.77,462.53,101.2,463.26,101.62Z"/><path class="cls-16" d="M477.16,223.14l.12-.07,2.46-1.42a2.46,2.46,0,0,0,1.22-1.8c0-.12,0-.23,0-.34V115.41l-3,1.74V221.73a1.52,1.52,0,0,1-.72,1.32l-.08,0v0Z"/></g><g id="Code"><path class="cls-6" d="M366.31,65.17l32.53,18.75a1.76,1.76,0,0,1,.83,1.37c0,.5-.37.69-.83.42L366.31,67a1.78,1.78,0,0,1-.83-1.38C365.48,65.1,365.85,64.91,366.31,65.17Z"/><path class="cls-2" d="M378.74,101.06l12.33,7.09a1.76,1.76,0,0,1,.83,1.37c0,.5-.37.69-.83.42l-12.33-7.09a1.77,1.77,0,0,1-.83-1.38C377.91,101,378.28,100.79,378.74,101.06Z"/><path class="cls-2" d="M378.74,108.23l12.33,7.09a1.78,1.78,0,0,1,.83,1.38c0,.49-.37.68-.83.42L378.74,110a1.78,1.78,0,0,1-.83-1.38C377.91,108.16,378.28,108,378.74,108.23Z"/><path class="cls-6" d="M402.05,85.77l65.12,37.51a1.76,1.76,0,0,1,.83,1.37c0,.5-.37.69-.83.42l-65.12-37.5a1.78,1.78,0,0,1-.83-1.38C401.22,85.69,401.59,85.51,402.05,85.77Z"/><path class="cls-6" d="M379,151.38l19.83,11.47a1.78,1.78,0,0,1,.83,1.38c0,.49-.37.68-.83.42L379,153.17a1.76,1.76,0,0,1-.83-1.37C378.18,151.3,378.55,151.12,379,151.38Z"/><path class="cls-6" d="M402.05,164.71l65.12,37.55a1.78,1.78,0,0,1,.83,1.38c0,.49-.37.68-.83.42L402.05,166.5a1.76,1.76,0,0,1-.83-1.37C401.22,164.63,401.59,164.44,402.05,164.71Z"/><path class="cls-6" d="M366.31,72.37l16.38,9.41a1.77,1.77,0,0,1,.83,1.38c0,.49-.37.68-.83.42l-16.38-9.42a1.76,1.76,0,0,1-.83-1.37C365.48,72.29,365.85,72.1,366.31,72.37Z"/><path class="cls-17" d="M366.31,72.37l16.38,9.41a1.77,1.77,0,0,1,.83,1.38c0,.49-.37.68-.83.42l-16.38-9.42a1.76,1.76,0,0,1-.83-1.37C365.48,72.29,365.85,72.1,366.31,72.37Z"/><path class="cls-6" d="M366.31,79.53,374,84a1.77,1.77,0,0,1,.83,1.38c0,.49-.37.68-.83.41l-7.66-4.42a1.76,1.76,0,0,1-.83-1.37C365.48,79.45,365.85,79.27,366.31,79.53Z"/><path class="cls-17" d="M366.31,79.53,374,84a1.77,1.77,0,0,1,.83,1.38c0,.49-.37.68-.83.41l-7.66-4.42a1.76,1.76,0,0,1-.83-1.37C365.48,79.45,365.85,79.27,366.31,79.53Z"/><path class="cls-6" d="M366.31,93.88,374,98.3a1.78,1.78,0,0,1,.83,1.38c0,.49-.37.68-.83.42l-7.66-4.42a1.78,1.78,0,0,1-.83-1.38C365.48,93.81,365.85,93.62,366.31,93.88Z"/><path class="cls-17" d="M366.31,93.88,374,98.3a1.78,1.78,0,0,1,.83,1.38c0,.49-.37.68-.83.42l-7.66-4.42a1.78,1.78,0,0,1-.83-1.38C365.48,93.81,365.85,93.62,366.31,93.88Z"/><path class="cls-6" d="M366.31,101.06l7.66,4.42a1.76,1.76,0,0,1,.83,1.37c0,.5-.37.69-.83.42l-7.66-4.42a1.76,1.76,0,0,1-.83-1.37C365.48,101,365.85,100.79,366.31,101.06Z"/><path class="cls-17" d="M366.31,101.06l7.66,4.42a1.76,1.76,0,0,1,.83,1.37c0,.5-.37.69-.83.42l-7.66-4.42a1.76,1.76,0,0,1-.83-1.37C365.48,101,365.85,100.79,366.31,101.06Z"/><path class="cls-6" d="M385.9,83.63l9.83,5.7a1.76,1.76,0,0,1,.83,1.37c0,.5-.37.68-.83.42l-9.83-5.69a1.8,1.8,0,0,1-.82-1.38C385.08,83.56,385.45,83.37,385.9,83.63Z"/><path class="cls-17" d="M385.9,83.63l9.83,5.7a1.76,1.76,0,0,1,.83,1.37c0,.5-.37.68-.83.42l-9.83-5.69a1.8,1.8,0,0,1-.82-1.38C385.08,83.56,385.45,83.37,385.9,83.63Z"/><path class="cls-14" d="M401.1,135.51l66.07,38.05a1.76,1.76,0,0,1,.83,1.37c0,.5-.37.68-.83.42l-66.07-38a1.78,1.78,0,0,1-.83-1.38C400.27,135.44,400.64,135.25,401.1,135.51Z"/><path class="cls-14" d="M457.35,160.68l9.82,5.69a1.76,1.76,0,0,1,.83,1.37c0,.5-.37.69-.83.42l-9.82-5.69a1.76,1.76,0,0,1-.83-1.37C456.52,160.6,456.89,160.41,457.35,160.68Z"/><path class="cls-14" d="M388.06,120.78l66.08,38a1.81,1.81,0,0,1,.83,1.38c0,.5-.38.68-.83.42l-66.08-38a1.78,1.78,0,0,1-.83-1.38C387.23,120.71,387.6,120.52,388.06,120.78Z"/><path class="cls-6" d="M378.74,86.71l16.38,9.41A1.77,1.77,0,0,1,396,97.5c0,.49-.37.68-.83.41L378.74,88.5a1.77,1.77,0,0,1-.83-1.38C377.91,86.63,378.28,86.44,378.74,86.71Z"/><path class="cls-17" d="M378.74,86.71l16.38,9.41A1.77,1.77,0,0,1,396,97.5c0,.49-.37.68-.83.41L378.74,88.5a1.77,1.77,0,0,1-.83-1.38C377.91,86.63,378.28,86.44,378.74,86.71Z"/><path class="cls-6" d="M398.33,98l68.36,39.55a1.78,1.78,0,0,1,.82,1.37c0,.5-.37.68-.82.42L398.33,99.77a1.8,1.8,0,0,1-.82-1.38C397.51,97.9,397.88,97.71,398.33,98Z"/><path class="cls-17" d="M398.33,98l68.36,39.55a1.78,1.78,0,0,1,.82,1.37c0,.5-.37.68-.82.42L398.33,99.77a1.8,1.8,0,0,1-.82-1.38C397.51,97.9,397.88,97.71,398.33,98Z"/><path class="cls-2" d="M378.74,129.91l88.43,51a1.76,1.76,0,0,1,.83,1.37c0,.5-.37.69-.83.42l-88.43-51a1.76,1.76,0,0,1-.83-1.37C377.91,129.83,378.28,129.65,378.74,129.91Z"/><path class="cls-6" d="M366.31,122.74l7.66,4.42a1.76,1.76,0,0,1,.83,1.37c0,.5-.37.69-.83.42l-7.66-4.42a1.77,1.77,0,0,1-.83-1.38C365.48,122.66,365.85,122.47,366.31,122.74Z"/><path class="cls-17" d="M366.31,122.74l7.66,4.42a1.76,1.76,0,0,1,.83,1.37c0,.5-.37.69-.83.42l-7.66-4.42a1.77,1.77,0,0,1-.83-1.38C365.48,122.66,365.85,122.47,366.31,122.74Z"/><path class="cls-2" d="M378.74,137.08l88.43,51a1.78,1.78,0,0,1,.83,1.38c0,.49-.37.68-.83.42l-88.43-51a1.78,1.78,0,0,1-.83-1.38C377.91,137,378.28,136.82,378.74,137.08Z"/><path class="cls-6" d="M366.31,129.91l7.66,4.42a1.77,1.77,0,0,1,.83,1.38c0,.49-.37.68-.83.41l-7.66-4.42a1.76,1.76,0,0,1-.83-1.37C365.48,129.83,365.85,129.65,366.31,129.91Z"/><path class="cls-17" d="M366.31,129.91l7.66,4.42a1.77,1.77,0,0,1,.83,1.38c0,.49-.37.68-.83.41l-7.66-4.42a1.76,1.76,0,0,1-.83-1.37C365.48,129.83,365.85,129.65,366.31,129.91Z"/><path class="cls-2" d="M378.74,144.26l88.43,51a1.76,1.76,0,0,1,.83,1.37c0,.5-.37.68-.83.42l-88.43-51a1.76,1.76,0,0,1-.83-1.37C377.91,144.18,378.28,144,378.74,144.26Z"/><path class="cls-6" d="M366.31,137.08,374,141.5a1.78,1.78,0,0,1,.83,1.38c0,.5-.37.68-.83.42l-7.66-4.42a1.78,1.78,0,0,1-.83-1.38C365.48,137,365.85,136.82,366.31,137.08Z"/><path class="cls-17" d="M366.31,137.08,374,141.5a1.78,1.78,0,0,1,.83,1.38c0,.5-.37.68-.83.42l-7.66-4.42a1.78,1.78,0,0,1-.83-1.38C365.48,137,365.85,136.82,366.31,137.08Z"/><g class="cls-18"><path class="cls-14" d="M354.36,58l4.5,2.6a1.78,1.78,0,0,1,.82,1.42v1.65c0,.53-.36.74-.82.48l-4.5-2.61a1.8,1.8,0,0,1-.82-1.41V58.45C353.54,57.93,353.91,57.72,354.36,58Z"/><path class="cls-14" d="M354.36,65.22l4.5,2.6a1.8,1.8,0,0,1,.82,1.42V70.9c0,.52-.36.73-.82.47l-4.5-2.6a1.82,1.82,0,0,1-.82-1.42V65.69C353.54,65.17,353.91,65,354.36,65.22Z"/><path class="cls-14" d="M354.36,72.47l4.5,2.6a1.78,1.78,0,0,1,.82,1.41v1.66c0,.52-.36.73-.82.47l-4.5-2.6a1.81,1.81,0,0,1-.82-1.42V72.94C353.54,72.42,353.91,72.2,354.36,72.47Z"/><path class="cls-14" d="M354.36,79.71l4.5,2.6a1.8,1.8,0,0,1,.82,1.42v1.66c0,.52-.36.73-.82.47l-4.5-2.6a1.82,1.82,0,0,1-.82-1.42V80.18C353.54,79.66,353.91,79.45,354.36,79.71Z"/><path class="cls-14" d="M354.36,87l4.5,2.61a1.78,1.78,0,0,1,.82,1.41v1.66c0,.52-.36.73-.82.47l-4.5-2.6a1.82,1.82,0,0,1-.82-1.42V87.43C353.54,86.9,353.91,86.69,354.36,87Z"/><path class="cls-14" d="M354.36,94.2l4.5,2.6a1.78,1.78,0,0,1,.82,1.42v1.65c0,.53-.36.74-.82.48l-4.5-2.61a1.8,1.8,0,0,1-.82-1.41V94.67C353.54,94.15,353.91,93.94,354.36,94.2Z"/><path class="cls-14" d="M354.36,101.44l4.5,2.6a1.8,1.8,0,0,1,.82,1.42v1.66c0,.52-.36.73-.82.47l-4.5-2.6a1.82,1.82,0,0,1-.82-1.42v-1.66C353.54,101.39,353.91,101.18,354.36,101.44Z"/><path class="cls-14" d="M354.36,108.69l4.5,2.6a1.78,1.78,0,0,1,.82,1.41v1.66c0,.52-.36.73-.82.47l-4.5-2.6a1.81,1.81,0,0,1-.82-1.42v-1.65C353.54,108.64,353.91,108.42,354.36,108.69Z"/><path class="cls-14" d="M354.36,115.93l4.5,2.6a1.8,1.8,0,0,1,.82,1.42v1.66c0,.52-.36.73-.82.47l-4.5-2.6a1.82,1.82,0,0,1-.82-1.42V116.4C353.54,115.88,353.91,115.67,354.36,115.93Z"/><path class="cls-14" d="M354.36,123.17l4.5,2.61a1.78,1.78,0,0,1,.82,1.41v1.66c0,.52-.36.73-.82.47l-4.5-2.6a1.81,1.81,0,0,1-.82-1.42v-1.65C353.54,123.12,353.91,122.91,354.36,123.17Z"/><path class="cls-14" d="M354.36,130.42l4.5,2.6a1.8,1.8,0,0,1,.82,1.42v1.65c0,.53-.36.74-.82.48l-4.5-2.61a1.8,1.8,0,0,1-.82-1.41v-1.66C353.54,130.37,353.91,130.16,354.36,130.42Z"/><path class="cls-14" d="M354.36,137.66l4.5,2.6a1.8,1.8,0,0,1,.82,1.42v1.66c0,.52-.36.73-.82.47l-4.5-2.6a1.82,1.82,0,0,1-.82-1.42v-1.66C353.54,137.61,353.91,137.4,354.36,137.66Z"/></g><path class="cls-10" d="M324.47,34.45l24.36,14.06a3.63,3.63,0,0,1,1.64,2.84V79.48c0,1-.73,1.47-1.64,1L324.47,66.36a3.6,3.6,0,0,1-1.64-2.83V35.39C322.83,34.35,323.56,33.92,324.47,34.45Z"/><path class="cls-6" d="M326.73,62.34,329,63.63A1.78,1.78,0,0,1,329.8,65c0,.49-.37.68-.83.42l-2.24-1.3a1.77,1.77,0,0,1-.83-1.38C325.9,62.26,326.27,62.07,326.73,62.34Z"/><path class="cls-17" d="M326.73,62.34,329,63.63A1.78,1.78,0,0,1,329.8,65c0,.49-.37.68-.83.42l-2.24-1.3a1.77,1.77,0,0,1-.83-1.38C325.9,62.26,326.27,62.07,326.73,62.34Z"/><path class="cls-6" d="M326.73,39.3,329,40.59A1.78,1.78,0,0,1,329.8,42c0,.49-.37.68-.83.42l-2.24-1.3a1.77,1.77,0,0,1-.83-1.38C325.9,39.22,326.27,39,326.73,39.3Z"/><path class="cls-17" d="M326.73,39.3,329,40.59A1.78,1.78,0,0,1,329.8,42c0,.49-.37.68-.83.42l-2.24-1.3a1.77,1.77,0,0,1-.83-1.38C325.9,39.22,326.27,39,326.73,39.3Z"/><path class="cls-6" d="M329.88,45.71l2.24,1.3a1.77,1.77,0,0,1,.83,1.38c0,.49-.37.68-.83.41l-2.24-1.29a1.78,1.78,0,0,1-.83-1.38C329.05,45.64,329.42,45.45,329.88,45.71Z"/><path class="cls-17" d="M329.88,45.71l2.24,1.3a1.77,1.77,0,0,1,.83,1.38c0,.49-.37.68-.83.41l-2.24-1.29a1.78,1.78,0,0,1-.83-1.38C329.05,45.64,329.42,45.45,329.88,45.71Z"/><path class="cls-6" d="M329.88,50.31l2.24,1.3A1.76,1.76,0,0,1,333,53c0,.5-.37.69-.83.42l-2.24-1.3a1.76,1.76,0,0,1-.83-1.37C329.05,50.23,329.42,50.05,329.88,50.31Z"/><path class="cls-17" d="M329.88,50.31l2.24,1.3A1.76,1.76,0,0,1,333,53c0,.5-.37.69-.83.42l-2.24-1.3a1.76,1.76,0,0,1-.83-1.37C329.05,50.23,329.42,50.05,329.88,50.31Z"/><path class="cls-6" d="M326.73,53.12,329,54.41a1.78,1.78,0,0,1,.83,1.38c0,.49-.37.68-.83.42l-2.24-1.3a1.76,1.76,0,0,1-.83-1.37C325.9,53,326.27,52.85,326.73,53.12Z"/><path class="cls-17" d="M326.73,53.12,329,54.41a1.78,1.78,0,0,1,.83,1.38c0,.49-.37.68-.83.42l-2.24-1.3a1.76,1.76,0,0,1-.83-1.37C325.9,53,326.27,52.85,326.73,53.12Z"/><path class="cls-6" d="M329.88,59.54l2.24,1.3a1.76,1.76,0,0,1,.83,1.37c0,.5-.37.68-.83.42l-2.24-1.3a1.76,1.76,0,0,1-.83-1.37C329.05,59.46,329.42,59.27,329.88,59.54Z"/><path class="cls-17" d="M329.88,59.54l2.24,1.3a1.76,1.76,0,0,1,.83,1.37c0,.5-.37.68-.83.42l-2.24-1.3a1.76,1.76,0,0,1-.83-1.37C329.05,59.46,329.42,59.27,329.88,59.54Z"/><path class="cls-6" d="M332.87,42.84l13.7,7.91a1.78,1.78,0,0,1,.83,1.38c0,.49-.37.68-.83.42l-13.7-7.91a1.78,1.78,0,0,1-.83-1.38C332,42.77,332.41,42.58,332.87,42.84Z"/><path class="cls-19" d="M332.87,42.84l13.7,7.91a1.78,1.78,0,0,1,.83,1.38c0,.49-.37.68-.83.42l-13.7-7.91a1.78,1.78,0,0,1-.83-1.38C332,42.77,332.41,42.58,332.87,42.84Z"/><path class="cls-6" d="M332.87,65.88l13.7,7.91a1.78,1.78,0,0,1,.83,1.38c0,.49-.37.68-.83.42l-13.7-7.91A1.78,1.78,0,0,1,332,66.3C332,65.81,332.41,65.62,332.87,65.88Z"/><path class="cls-19" d="M332.87,65.88l13.7,7.91a1.78,1.78,0,0,1,.83,1.38c0,.49-.37.68-.83.42l-13.7-7.91A1.78,1.78,0,0,1,332,66.3C332,65.81,332.41,65.62,332.87,65.88Z"/><path class="cls-6" d="M336,49.26l10.55,6.1a1.78,1.78,0,0,1,.83,1.38c0,.49-.37.68-.83.42L336,51.06a1.8,1.8,0,0,1-.82-1.38C335.2,49.18,335.57,49,336,49.26Z"/><path class="cls-19" d="M336,49.26l10.55,6.1a1.78,1.78,0,0,1,.83,1.38c0,.49-.37.68-.83.42L336,51.06a1.8,1.8,0,0,1-.82-1.38C335.2,49.18,335.57,49,336,49.26Z"/><path class="cls-6" d="M336,53.87,346.57,60a1.76,1.76,0,0,1,.83,1.37c0,.5-.37.69-.83.42L336,55.66a1.78,1.78,0,0,1-.82-1.37C335.2,53.79,335.57,53.6,336,53.87Z"/><path class="cls-19" d="M336,53.87,346.57,60a1.76,1.76,0,0,1,.83,1.37c0,.5-.37.69-.83.42L336,55.66a1.78,1.78,0,0,1-.82-1.37C335.2,53.79,335.57,53.6,336,53.87Z"/><path class="cls-6" d="M332.87,56.67l13.7,7.91A1.76,1.76,0,0,1,347.4,66c0,.5-.37.69-.83.42l-13.7-7.91a1.76,1.76,0,0,1-.83-1.37C332,56.59,332.41,56.4,332.87,56.67Z"/><path class="cls-19" d="M332.87,56.67l13.7,7.91A1.76,1.76,0,0,1,347.4,66c0,.5-.37.69-.83.42l-13.7-7.91a1.76,1.76,0,0,1-.83-1.37C332,56.59,332.41,56.4,332.87,56.67Z"/><path class="cls-6" d="M336,63.09l10.55,6.1a1.76,1.76,0,0,1,.83,1.37c0,.5-.37.68-.83.42L336,64.88a1.78,1.78,0,0,1-.82-1.37C335.2,63,335.57,62.82,336,63.09Z"/><path class="cls-19" d="M336,63.09l10.55,6.1a1.76,1.76,0,0,1,.83,1.37c0,.5-.37.68-.83.42L336,64.88a1.78,1.78,0,0,1-.82-1.37C335.2,63,335.57,62.82,336,63.09Z"/><path class="cls-10" d="M324.47,71.66l24.36,14.06a3.6,3.6,0,0,1,1.64,2.84v55.59c0,1-.73,1.47-1.64.95L324.47,131a3.6,3.6,0,0,1-1.64-2.84V72.6C322.83,71.56,323.56,71.13,324.47,71.66Z"/><path class="cls-6" d="M326.73,76.5,329,77.8a1.78,1.78,0,0,1,.83,1.38c0,.49-.37.68-.83.42l-2.24-1.3a1.78,1.78,0,0,1-.83-1.38C325.9,76.43,326.27,76.24,326.73,76.5Z"/><path class="cls-17" d="M326.73,76.5,329,77.8a1.78,1.78,0,0,1,.83,1.38c0,.49-.37.68-.83.42l-2.24-1.3a1.78,1.78,0,0,1-.83-1.38C325.9,76.43,326.27,76.24,326.73,76.5Z"/><path class="cls-6" d="M329.88,82.92l2.24,1.3a1.76,1.76,0,0,1,.83,1.37c0,.5-.37.69-.83.42l-2.24-1.29a1.78,1.78,0,0,1-.83-1.38C329.05,82.85,329.42,82.66,329.88,82.92Z"/><path class="cls-17" d="M329.88,82.92l2.24,1.3a1.76,1.76,0,0,1,.83,1.37c0,.5-.37.69-.83.42l-2.24-1.29a1.78,1.78,0,0,1-.83-1.38C329.05,82.85,329.42,82.66,329.88,82.92Z"/><path class="cls-6" d="M329.88,87.52l2.24,1.3a1.76,1.76,0,0,1,.83,1.37c0,.5-.37.68-.83.42l-2.24-1.3a1.76,1.76,0,0,1-.83-1.37C329.05,87.44,329.42,87.25,329.88,87.52Z"/><path class="cls-17" d="M329.88,87.52l2.24,1.3a1.76,1.76,0,0,1,.83,1.37c0,.5-.37.68-.83.42l-2.24-1.3a1.76,1.76,0,0,1-.83-1.37C329.05,87.44,329.42,87.25,329.88,87.52Z"/><path class="cls-6" d="M326.73,90.32l2.24,1.3A1.78,1.78,0,0,1,329.8,93c0,.49-.37.68-.83.42l-2.24-1.3a1.77,1.77,0,0,1-.83-1.38C325.9,90.25,326.27,90.06,326.73,90.32Z"/><path class="cls-17" d="M326.73,90.32l2.24,1.3A1.78,1.78,0,0,1,329.8,93c0,.49-.37.68-.83.42l-2.24-1.3a1.77,1.77,0,0,1-.83-1.38C325.9,90.25,326.27,90.06,326.73,90.32Z"/><path class="cls-6" d="M332.87,80.05,346.57,88a1.78,1.78,0,0,1,.83,1.38c0,.49-.37.68-.83.42l-13.7-7.91a1.78,1.78,0,0,1-.83-1.38C332,80,332.41,79.79,332.87,80.05Z"/><path class="cls-19" d="M332.87,80.05,346.57,88a1.78,1.78,0,0,1,.83,1.38c0,.49-.37.68-.83.42l-13.7-7.91a1.78,1.78,0,0,1-.83-1.38C332,80,332.41,79.79,332.87,80.05Z"/><path class="cls-6" d="M336,86.47l10.55,6.1A1.77,1.77,0,0,1,347.4,94c0,.49-.37.68-.83.41L336,88.26a1.78,1.78,0,0,1-.82-1.37C335.2,86.39,335.57,86.21,336,86.47Z"/><path class="cls-19" d="M336,86.47l10.55,6.1A1.77,1.77,0,0,1,347.4,94c0,.49-.37.68-.83.41L336,88.26a1.78,1.78,0,0,1-.82-1.37C335.2,86.39,335.57,86.21,336,86.47Z"/><path class="cls-6" d="M336,91.08l10.55,6.1a1.76,1.76,0,0,1,.83,1.37c0,.5-.37.69-.83.42L336,92.87a1.78,1.78,0,0,1-.82-1.37C335.2,91,335.57,90.81,336,91.08Z"/><path class="cls-19" d="M336,91.08l10.55,6.1a1.76,1.76,0,0,1,.83,1.37c0,.5-.37.69-.83.42L336,92.87a1.78,1.78,0,0,1-.82-1.37C335.2,91,335.57,90.81,336,91.08Z"/><path class="cls-6" d="M332.87,93.88l13.7,7.91a1.76,1.76,0,0,1,.83,1.37c0,.5-.37.68-.83.42l-13.7-7.91A1.76,1.76,0,0,1,332,94.3C332,93.8,332.41,93.61,332.87,93.88Z"/><path class="cls-19" d="M332.87,93.88l13.7,7.91a1.76,1.76,0,0,1,.83,1.37c0,.5-.37.68-.83.42l-13.7-7.91A1.76,1.76,0,0,1,332,94.3C332,93.8,332.41,93.61,332.87,93.88Z"/><path class="cls-6" d="M329.88,96.77l2.24,1.3a1.78,1.78,0,0,1,.83,1.38c0,.49-.37.68-.83.42l-2.24-1.3a1.78,1.78,0,0,1-.83-1.38C329.05,96.7,329.42,96.51,329.88,96.77Z"/><path class="cls-17" d="M329.88,96.77l2.24,1.3a1.78,1.78,0,0,1,.83,1.38c0,.49-.37.68-.83.42l-2.24-1.3a1.78,1.78,0,0,1-.83-1.38C329.05,96.7,329.42,96.51,329.88,96.77Z"/><path class="cls-6" d="M329.88,101.37l2.24,1.3A1.76,1.76,0,0,1,333,104c0,.5-.37.69-.83.42l-2.24-1.3a1.76,1.76,0,0,1-.83-1.37C329.05,101.29,329.42,101.11,329.88,101.37Z"/><path class="cls-17" d="M329.88,101.37l2.24,1.3A1.76,1.76,0,0,1,333,104c0,.5-.37.69-.83.42l-2.24-1.3a1.76,1.76,0,0,1-.83-1.37C329.05,101.29,329.42,101.11,329.88,101.37Z"/><path class="cls-6" d="M336,100.32l10.55,6.1a1.78,1.78,0,0,1,.83,1.38c0,.49-.37.68-.83.42L336,102.12a1.8,1.8,0,0,1-.82-1.38C335.2,100.24,335.57,100.06,336,100.32Z"/><path class="cls-19" d="M336,100.32l10.55,6.1a1.78,1.78,0,0,1,.83,1.38c0,.49-.37.68-.83.42L336,102.12a1.8,1.8,0,0,1-.82-1.38C335.2,100.24,335.57,100.06,336,100.32Z"/><path class="cls-6" d="M336,104.93l10.55,6.1a1.77,1.77,0,0,1,.83,1.38c0,.49-.37.68-.83.41L336,106.72a1.78,1.78,0,0,1-.82-1.37C335.2,104.85,335.57,104.67,336,104.93Z"/><path class="cls-19" d="M336,104.93l10.55,6.1a1.77,1.77,0,0,1,.83,1.38c0,.49-.37.68-.83.41L336,106.72a1.78,1.78,0,0,1-.82-1.37C335.2,104.85,335.57,104.67,336,104.93Z"/><path class="cls-6" d="M326.73,113.42l2.24,1.3a1.76,1.76,0,0,1,.83,1.37c0,.5-.37.69-.83.42l-2.24-1.3a1.75,1.75,0,0,1-.83-1.37C325.9,113.34,326.27,113.16,326.73,113.42Z"/><path class="cls-17" d="M326.73,113.42l2.24,1.3a1.76,1.76,0,0,1,.83,1.37c0,.5-.37.69-.83.42l-2.24-1.3a1.75,1.75,0,0,1-.83-1.37C325.9,113.34,326.27,113.16,326.73,113.42Z"/><path class="cls-6" d="M332.87,117l13.7,7.91a1.78,1.78,0,0,1,.83,1.38c0,.49-.37.68-.83.42l-13.7-7.91a1.78,1.78,0,0,1-.83-1.38C332,116.9,332.41,116.71,332.87,117Z"/><path class="cls-19" d="M332.87,117l13.7,7.91a1.78,1.78,0,0,1,.83,1.38c0,.49-.37.68-.83.42l-13.7-7.91a1.78,1.78,0,0,1-.83-1.38C332,116.9,332.41,116.71,332.87,117Z"/><path class="cls-6" d="M329.88,119.87l2.24,1.3a1.76,1.76,0,0,1,.83,1.37c0,.5-.37.69-.83.42l-2.24-1.3a1.76,1.76,0,0,1-.83-1.37C329.05,119.79,329.42,119.61,329.88,119.87Z"/><path class="cls-17" d="M329.88,119.87l2.24,1.3a1.76,1.76,0,0,1,.83,1.37c0,.5-.37.69-.83.42l-2.24-1.3a1.76,1.76,0,0,1-.83-1.37C329.05,119.79,329.42,119.61,329.88,119.87Z"/><path class="cls-6" d="M329.88,124.47l2.24,1.29a1.78,1.78,0,0,1,.83,1.38c0,.49-.37.68-.83.42l-2.24-1.3a1.77,1.77,0,0,1-.83-1.38C329.05,124.39,329.42,124.2,329.88,124.47Z"/><path class="cls-17" d="M329.88,124.47l2.24,1.29a1.78,1.78,0,0,1,.83,1.38c0,.49-.37.68-.83.42l-2.24-1.3a1.77,1.77,0,0,1-.83-1.38C329.05,124.39,329.42,124.2,329.88,124.47Z"/><path class="cls-6" d="M336,123.42l10.55,6.1a1.76,1.76,0,0,1,.83,1.37c0,.5-.37.69-.83.42L336,125.21a1.78,1.78,0,0,1-.82-1.37C335.2,123.34,335.57,123.15,336,123.42Z"/><path class="cls-19" d="M336,123.42l10.55,6.1a1.76,1.76,0,0,1,.83,1.37c0,.5-.37.69-.83.42L336,125.21a1.78,1.78,0,0,1-.82-1.37C335.2,123.34,335.57,123.15,336,123.42Z"/><path class="cls-6" d="M336,128l10.55,6.1a1.76,1.76,0,0,1,.83,1.37c0,.5-.37.68-.83.42L336,129.82a1.78,1.78,0,0,1-.82-1.38C335.2,128,335.57,127.76,336,128Z"/><path class="cls-19" d="M336,128l10.55,6.1a1.76,1.76,0,0,1,.83,1.37c0,.5-.37.68-.83.42L336,129.82a1.78,1.78,0,0,1-.82-1.38C335.2,128,335.57,127.76,336,128Z"/><path class="cls-6" d="M329.88,105.94l2.24,1.3a1.76,1.76,0,0,1,.83,1.37c0,.5-.37.69-.83.42l-2.24-1.29a1.78,1.78,0,0,1-.83-1.38C329.05,105.87,329.42,105.68,329.88,105.94Z"/><path class="cls-17" d="M329.88,105.94l2.24,1.3a1.76,1.76,0,0,1,.83,1.37c0,.5-.37.69-.83.42l-2.24-1.29a1.78,1.78,0,0,1-.83-1.38C329.05,105.87,329.42,105.68,329.88,105.94Z"/><path class="cls-6" d="M326.73,108.75l2.24,1.3a1.76,1.76,0,0,1,.83,1.37c0,.5-.37.68-.83.42l-2.24-1.3a1.76,1.76,0,0,1-.83-1.37C325.9,108.67,326.27,108.48,326.73,108.75Z"/><path class="cls-17" d="M326.73,108.75l2.24,1.3a1.76,1.76,0,0,1,.83,1.37c0,.5-.37.68-.83.42l-2.24-1.3a1.76,1.76,0,0,1-.83-1.37C325.9,108.67,326.27,108.48,326.73,108.75Z"/><path class="cls-6" d="M336,109.5l10.55,6.1a1.78,1.78,0,0,1,.83,1.38c0,.49-.37.68-.83.42L336,111.3a1.8,1.8,0,0,1-.82-1.38C335.2,109.42,335.57,109.24,336,109.5Z"/><path class="cls-19" d="M336,109.5l10.55,6.1a1.78,1.78,0,0,1,.83,1.38c0,.49-.37.68-.83.42L336,111.3a1.8,1.8,0,0,1-.82-1.38C335.2,109.42,335.57,109.24,336,109.5Z"/><path class="cls-6" d="M332.87,112.3l13.7,7.91a1.77,1.77,0,0,1,.83,1.38c0,.49-.37.68-.83.41l-13.7-7.91a1.76,1.76,0,0,1-.83-1.37C332,112.22,332.41,112,332.87,112.3Z"/><path class="cls-19" d="M332.87,112.3l13.7,7.91a1.77,1.77,0,0,1,.83,1.38c0,.49-.37.68-.83.41l-13.7-7.91a1.76,1.76,0,0,1-.83-1.37C332,112.22,332.41,112,332.87,112.3Z"/><path class="cls-6" d="M326.73,127.34l2.24,1.29a1.78,1.78,0,0,1,.83,1.38c0,.49-.37.68-.83.42l-2.24-1.3a1.76,1.76,0,0,1-.83-1.37C325.9,127.26,326.27,127.07,326.73,127.34Z"/><path class="cls-17" d="M326.73,127.34l2.24,1.29a1.78,1.78,0,0,1,.83,1.38c0,.49-.37.68-.83.42l-2.24-1.3a1.76,1.76,0,0,1-.83-1.37C325.9,127.26,326.27,127.07,326.73,127.34Z"/><path class="cls-6" d="M332.87,130.89l13.7,7.91a1.76,1.76,0,0,1,.83,1.37c0,.5-.37.69-.83.42l-13.7-7.91a1.76,1.76,0,0,1-.83-1.37C332,130.81,332.41,130.62,332.87,130.89Z"/><path class="cls-19" d="M332.87,130.89l13.7,7.91a1.76,1.76,0,0,1,.83,1.37c0,.5-.37.69-.83.42l-13.7-7.91a1.76,1.76,0,0,1-.83-1.37C332,130.81,332.41,130.62,332.87,130.89Z"/></g></g><g id="Window-3" data-name="Window"><g class="cls-20"><path class="cls-5" d="M460,149.81V241a4.17,4.17,0,0,0,1.9,3.28l52.41,30.24a1.32,1.32,0,0,0,.63.18,1,1,0,0,0,.24,0,1,1,0,0,0,.16-.06l.1,0,.11-.08.11-.09a1.61,1.61,0,0,0,.35-.5,2.45,2.45,0,0,0,.19-1V182.2a4.2,4.2,0,0,0-1.89-3.28l-52.41-30.21a1.39,1.39,0,0,0-1.28-.16l-.16.09v0a.49.49,0,0,0-.13.12l-.05.07a.21.21,0,0,0-.06.1.9.9,0,0,0-.12.24c0,.05,0,.11,0,.17s0,0,0,0l0,.17C460.05,149.64,460,149.73,460,149.81Z"/></g><path class="cls-6" d="M460.66,148.55a1.39,1.39,0,0,1,1.28.16l52.41,30.21a4.2,4.2,0,0,1,1.89,3.28v6.2l3-1.75V180.5a4.19,4.19,0,0,0-1.9-3.28L465,147a1.33,1.33,0,0,0-1.38-.12C463.24,147.11,461.07,148.34,460.66,148.55Z"/><path class="cls-11" d="M460.05,149.79c0-1.19.85-1.68,1.89-1.08l52.41,30.21a4.19,4.19,0,0,1,1.89,3.28v6.2L460.05,156Z"/><g class="cls-15"><path class="cls-14" d="M461.94,148.71l52.41,30.21a3.93,3.93,0,0,1,1.33,1.41l3-1.72a3.77,3.77,0,0,0-1.32-1.39L465,147a1.35,1.35,0,0,0-1.38-.11c-.34.21-2.51,1.43-2.91,1.65A1.37,1.37,0,0,1,461.94,148.71Z"/></g><path class="cls-8" d="M519.27,186.66V180.5a3.92,3.92,0,0,0-.58-1.89l-3,1.71a3.85,3.85,0,0,1,.56,1.88v6.2Z"/><path class="cls-3" d="M513.49,181.47a2.83,2.83,0,0,1,1.07,2.27c0,.91-.48,1.37-1.07,1a2.85,2.85,0,0,1-1.07-2.27C512.42,181.59,512.9,181.13,513.49,181.47Z"/><path class="cls-3" d="M509.63,179.24a2.81,2.81,0,0,1,1.08,2.27c0,.91-.48,1.37-1.08,1a2.83,2.83,0,0,1-1.07-2.27C508.56,179.36,509,178.9,509.63,179.24Z"/><path class="cls-3" d="M505.78,177a2.83,2.83,0,0,1,1.07,2.27c0,.91-.48,1.37-1.07,1a2.83,2.83,0,0,1-1.07-2.27C504.71,177.13,505.19,176.67,505.78,177Z"/><g class="cls-21"><path class="cls-10" d="M515.55,274.56l.23-.13.59-.33h0l.31-.18h0l.5-.29,1-.56.24-.13a1,1,0,0,0,.32-.26,1.56,1.56,0,0,0,.26-.39,2.41,2.41,0,0,0,.22-1V186.65l-3,1.75V273a2.68,2.68,0,0,1-.19,1,1.61,1.61,0,0,1-.35.5.33.33,0,0,1-.11.09A.08.08,0,0,1,515.55,274.56Z"/></g><path class="cls-6" d="M464.4,166.48a.27.27,0,0,1,.09-.24l1.37-1.25a0,0,0,0,1,.06,0h0a.36.36,0,0,1,.11.13.46.46,0,0,1,0,.19v.95a1.42,1.42,0,0,1,0,.26.44.44,0,0,1-.1.15l-.72.66.72,1.49a1.18,1.18,0,0,1,.1.25,2.36,2.36,0,0,1,0,.3v.94a.18.18,0,0,1,0,.14.09.09,0,0,1-.11,0l0,0a.35.35,0,0,1-.06-.09l-1.37-2.82a.79.79,0,0,1-.09-.35Z"/><path class="cls-6" d="M469.38,165.16a.44.44,0,0,1,.1-.16s.12,0,.2,0l.51.29a.27.27,0,0,1,.11.14.41.41,0,0,1,.05.19.31.31,0,0,1,0,.08L468,173a.39.39,0,0,1-.1.16s-.11,0-.21,0l-.49-.29a.24.24,0,0,1-.1-.13.34.34,0,0,1-.05-.19.28.28,0,0,1,0-.09Z"/><path class="cls-6" d="M473,172.14a.27.27,0,0,1-.09.24l-1.36,1.25a.06.06,0,0,1-.07,0h0a.29.29,0,0,1-.11-.13.46.46,0,0,1,0-.19v-.95a1.42,1.42,0,0,1,0-.26.44.44,0,0,1,.1-.15l.72-.66-.72-1.49a1.18,1.18,0,0,1-.1-.25,2.36,2.36,0,0,1,0-.3v-.94a.18.18,0,0,1,0-.14.09.09,0,0,1,.11,0l0,0,.07.09,1.36,2.82a.79.79,0,0,1,.09.35Z"/><path class="cls-6" d="M476.78,175.86a.36.36,0,0,1,.13.16.53.53,0,0,1,.06.24v1a.22.22,0,0,1-.06.17.1.1,0,0,1-.13,0l-.64-.37A.35.35,0,0,1,476,177a.53.53,0,0,1-.06-.24v-1a.22.22,0,0,1,.06-.17.09.09,0,0,1,.13,0Z"/><path class="cls-6" d="M478.93,177.1a.43.43,0,0,1,.13.16.53.53,0,0,1,.06.24v1a.22.22,0,0,1-.06.17.09.09,0,0,1-.13,0l-.64-.37a.31.31,0,0,1-.13-.16.53.53,0,0,1-.06-.24v-1a.22.22,0,0,1,.06-.17.1.1,0,0,1,.13,0Z"/><path class="cls-6" d="M481.08,178.34a.43.43,0,0,1,.13.16.53.53,0,0,1,.06.24v1a.22.22,0,0,1-.06.17.09.09,0,0,1-.13,0l-.64-.37a.32.32,0,0,1-.14-.16.69.69,0,0,1-.05-.24v-1a.26.26,0,0,1,.05-.17.12.12,0,0,1,.14,0Z"/><path class="cls-6" d="M465,174.74l31.49,18.18a1.46,1.46,0,0,1,.67,1.12c0,.4-.3.56-.67.34L465,176.2a1.43,1.43,0,0,1-.67-1.12C464.3,174.68,464.6,174.53,465,174.74Z"/><path class="cls-2" d="M475.07,198.08l31.49,18.18a1.41,1.41,0,0,1,.68,1.11c0,.41-.3.56-.68.35l-31.49-18.19a1.43,1.43,0,0,1-.67-1.11C474.4,198,474.7,197.86,475.07,198.08Z"/><path class="cls-2" d="M475.07,209.74l15.08,8.71a1.46,1.46,0,0,1,.67,1.12c0,.4-.3.55-.67.34l-15.08-8.71a1.43,1.43,0,0,1-.67-1.12C474.4,209.68,474.7,209.53,475.07,209.74Z"/><path class="cls-6" d="M499.07,194.43l12.55,7.22a1.43,1.43,0,0,1,.67,1.11c0,.41-.3.56-.67.34l-12.55-7.21a1.46,1.46,0,0,1-.67-1.12C498.4,194.37,498.7,194.22,499.07,194.43Z"/><path class="cls-6" d="M465,238.9l31.49,18.18a1.46,1.46,0,0,1,.67,1.12c0,.4-.3.56-.67.34L465,240.36a1.43,1.43,0,0,1-.67-1.12C464.3,238.84,464.6,238.69,465,238.9Z"/><path class="cls-6" d="M499.07,258.59l12.55,7.22a1.43,1.43,0,0,1,.67,1.11c0,.41-.3.56-.67.35l-12.55-7.22a1.46,1.46,0,0,1-.67-1.12C498.4,258.53,498.7,258.38,499.07,258.59Z"/><path class="cls-6" d="M499.07,241.12l12.55,7.22a1.43,1.43,0,0,1,.67,1.12c0,.4-.3.55-.67.34l-12.55-7.22a1.43,1.43,0,0,1-.67-1.12C498.4,241.06,498.7,240.91,499.07,241.12Z"/><path class="cls-6" d="M499.07,247l12.55,7.22a1.46,1.46,0,0,1,.67,1.12c0,.4-.3.55-.67.34l-12.55-7.22a1.43,1.43,0,0,1-.67-1.12C498.4,246.89,498.7,246.74,499.07,247Z"/><path class="cls-6" d="M488.37,234.93l7.05,4.07a1.43,1.43,0,0,1,.67,1.12c0,.4-.3.55-.67.34l-7.05-4.07a1.46,1.46,0,0,1-.67-1.12C487.7,234.87,488,234.71,488.37,234.93Z"/><path class="cls-6" d="M465,180.59l18.37,10.6a1.43,1.43,0,0,1,.67,1.11c0,.41-.3.56-.67.34L465,182.05a1.46,1.46,0,0,1-.67-1.12C464.3,180.53,464.6,180.37,465,180.59Z"/><path class="cls-17" d="M465,180.59l18.37,10.6a1.43,1.43,0,0,1,.67,1.11c0,.41-.3.56-.67.34L465,182.05a1.46,1.46,0,0,1-.67-1.12C464.3,180.53,464.6,180.37,465,180.59Z"/><path class="cls-6" d="M465,186.41,471.2,190a1.46,1.46,0,0,1,.67,1.12c0,.41-.3.56-.67.34L465,187.87a1.45,1.45,0,0,1-.67-1.12C464.3,186.35,464.6,186.2,465,186.41Z"/><path class="cls-17" d="M465,186.41,471.2,190a1.46,1.46,0,0,1,.67,1.12c0,.41-.3.56-.67.34L465,187.87a1.45,1.45,0,0,1-.67-1.12C464.3,186.35,464.6,186.2,465,186.41Z"/><path class="cls-6" d="M465,192.24l6.23,3.6a1.43,1.43,0,0,1,.67,1.12c0,.4-.3.55-.67.34L465,193.7a1.43,1.43,0,0,1-.67-1.11C464.3,192.18,464.6,192,465,192.24Z"/><path class="cls-17" d="M465,192.24l6.23,3.6a1.43,1.43,0,0,1,.67,1.12c0,.4-.3.55-.67.34L465,193.7a1.43,1.43,0,0,1-.67-1.11C464.3,192.18,464.6,192,465,192.24Z"/><path class="cls-6" d="M465,198.08l6.23,3.59a1.46,1.46,0,0,1,.67,1.12c0,.4-.3.55-.67.34L465,199.54a1.46,1.46,0,0,1-.67-1.12C464.3,198,464.6,197.86,465,198.08Z"/><path class="cls-17" d="M465,198.08l6.23,3.59a1.43,1.43,0,0,1,.67,1.12c0,.4-.3.55-.67.34l-6.23-3.6a1.43,1.43,0,0,1-.67-1.11C464.3,198,464.6,197.86,465,198.08Z"/><path class="cls-22" d="M475.07,203.91l18.37,10.6a1.43,1.43,0,0,1,.67,1.11c0,.41-.3.56-.67.34l-18.37-10.59a1.46,1.46,0,0,1-.67-1.12C474.4,203.85,474.7,203.69,475.07,203.91Z"/><path class="cls-22" d="M496.05,216l8,4.63a1.43,1.43,0,0,1,.67,1.12c0,.4-.3.55-.67.34l-8-4.63a1.43,1.43,0,0,1-.67-1.12C495.38,216,495.68,215.8,496.05,216Z"/><path class="cls-17" d="M475.07,203.91l18.37,10.6a1.43,1.43,0,0,1,.67,1.11c0,.41-.3.56-.67.34l-18.37-10.59a1.46,1.46,0,0,1-.67-1.12C474.4,203.85,474.7,203.69,475.07,203.91Z"/><path class="cls-17" d="M496.05,216l8,4.63a1.43,1.43,0,0,1,.67,1.12c0,.4-.3.55-.67.34l-8-4.63a1.43,1.43,0,0,1-.67-1.12C495.38,216,495.68,215.8,496.05,216Z"/><path class="cls-6" d="M465,203.91l6.23,3.59a1.46,1.46,0,0,1,.67,1.12c0,.4-.3.56-.67.34L465,205.37a1.46,1.46,0,0,1-.67-1.12C464.3,203.85,464.6,203.7,465,203.91Z"/><path class="cls-17" d="M465,203.91l6.23,3.59a1.46,1.46,0,0,1,.67,1.12c0,.4-.3.56-.67.34L465,205.37a1.46,1.46,0,0,1-.67-1.12C464.3,203.85,464.6,203.7,465,203.91Z"/><path class="cls-6" d="M486,192.69l8,4.63a1.42,1.42,0,0,1,.68,1.12c0,.4-.3.55-.68.34l-8-4.63a1.44,1.44,0,0,1-.68-1.12C485.27,192.63,485.58,192.48,486,192.69Z"/><path class="cls-17" d="M486,192.69l8,4.63a1.42,1.42,0,0,1,.68,1.12c0,.4-.3.55-.68.34l-8-4.63a1.44,1.44,0,0,1-.68-1.12C485.27,192.63,485.58,192.48,486,192.69Z"/><path class="cls-14" d="M482.65,219.94,501,230.54a1.43,1.43,0,0,1,.67,1.12c0,.4-.3.55-.67.34l-18.37-10.6a1.43,1.43,0,0,1-.67-1.12C482,219.88,482.28,219.73,482.65,219.94Z"/><path class="cls-14" d="M493.25,231.92l18.37,10.59a1.46,1.46,0,0,1,.67,1.12c0,.4-.3.56-.67.34l-18.37-10.59a1.46,1.46,0,0,1-.67-1.12C492.58,231.85,492.88,231.7,493.25,231.92Z"/><path class="cls-14" d="M503.63,232.05l8,4.62a1.46,1.46,0,0,1,.67,1.12c0,.4-.3.55-.67.34l-8-4.63a1.43,1.43,0,0,1-.67-1.11C503,232,503.26,231.83,503.63,232.05Z"/><path class="cls-2" d="M503.63,255.15l8,4.62a1.46,1.46,0,0,1,.67,1.12c0,.41-.3.56-.67.34l-8-4.62a1.46,1.46,0,0,1-.67-1.12C503,255.09,503.26,254.93,503.63,255.15Z"/><path class="cls-6" d="M475.07,192.24l18.37,10.6a1.46,1.46,0,0,1,.67,1.12c0,.4-.3.55-.67.34l-18.37-10.6a1.43,1.43,0,0,1-.67-1.11C474.4,192.18,474.7,192,475.07,192.24Z"/><path class="cls-17" d="M475.07,192.24l18.37,10.6a1.46,1.46,0,0,1,.67,1.12c0,.4-.3.55-.67.34l-18.37-10.6a1.43,1.43,0,0,1-.67-1.11C474.4,192.18,474.7,192,475.07,192.24Z"/><path class="cls-6" d="M496.05,204.35l8,4.62a1.46,1.46,0,0,1,.67,1.12c0,.4-.3.56-.67.34l-8-4.62a1.46,1.46,0,0,1-.67-1.12C495.38,204.29,495.68,204.13,496.05,204.35Z"/><path class="cls-17" d="M496.05,204.35l8,4.62a1.46,1.46,0,0,1,.67,1.12c0,.4-.3.56-.67.34l-8-4.62a1.46,1.46,0,0,1-.67-1.12C495.38,204.29,495.68,204.13,496.05,204.35Z"/></g><g id="Mouse"><path class="cls-8" d="M370.85,271.18l11.26,6.49a12.38,12.38,0,0,0,12.42-.65l18.57-13.56c3.31-2.41,3.13-6-.42-8.08L407,252.11a15.33,15.33,0,0,0-13.05-.4l-22.93,12.43C367.4,266,367.31,269.13,370.85,271.18Z"/><path class="cls-10" d="M413.41,257.57l-12.85,10L391.08,275a8.32,8.32,0,0,1-3,.73,8.22,8.22,0,0,1-4.5-.95L373.49,269h0l-.06,0a7.13,7.13,0,0,1-2-10.2c.09-.14.19-.27.3-.41a13.37,13.37,0,0,1,8.1-5.13l5.1-1c8.26-1.67,15-2.49,15.83-2l12.63,7.31A.11.11,0,0,1,413.41,257.57Z"/><path class="cls-11" d="M406.23,263.19l.72-.57-11.33-6.54,9.91-3.07-1-.58-9.91,3.07-6.76-3.9-1.28.24Z"/><path class="cls-9" d="M392.19,274.42l.06,0a0,0,0,0,1,0,0l9-6.51,12.18-8.8v-1.38a.12.12,0,0,0-.06-.1.11.11,0,0,0-.07,0c-.91-.31-6.19,1.28-12.57,3.81L396.54,263a13.05,13.05,0,0,0-3.6,2.14,13.41,13.41,0,0,0-4.89,10.37v.22a8.32,8.32,0,0,0,3-.73Z"/></g></g><g id="Pot"><path class="cls-6" d="M414.55,454.65c-12.4-12.79-19.68-64.84-7.59-75h61.52c12.09,10.14,4.82,62.18-7.57,75l-.34.35-.43.42c-.35.34-.72.68-1.12,1l-.3.23c-.3.25-.6.49-.93.72a18.93,18.93,0,0,1-1.6,1c-10.2,5.95-26.73,5.95-36.93,0h0a17.72,17.72,0,0,1-1.61-1.05c-.31-.21-.59-.44-.87-.66l-.37-.29c-.39-.32-.74-.65-1.08-1-.17-.15-.33-.32-.49-.48Z"/><path class="cls-23" d="M414.55,454.65c-12.4-12.79-19.68-64.84-7.59-75h61.52c12.09,10.14,4.82,62.18-7.57,75l-.34.35-.43.42c-.35.34-.72.68-1.12,1l-.3.23c-.3.25-.6.49-.93.72a18.93,18.93,0,0,1-1.6,1c-10.2,5.95-26.73,5.95-36.93,0h0a17.72,17.72,0,0,1-1.61-1.05c-.31-.21-.59-.44-.87-.66l-.37-.29c-.39-.32-.74-.65-1.08-1-.17-.15-.33-.32-.49-.48Z"/><path class="cls-6" d="M463.14,375.58c14,8.19,14,21.48,0,29.67s-36.8,8.2-50.83,0-14-21.48,0-29.67S449.1,367.38,463.14,375.58Z"/><g class="cls-24"><path class="cls-14" d="M463.14,375.58c14,8.19,14,21.48,0,29.67s-36.8,8.2-50.83,0-14-21.48,0-29.67S449.1,367.38,463.14,375.58Z"/></g><path class="cls-6" d="M456.39,379.52c10.31,6,10.31,15.77,0,21.79s-27,6-37.33,0-10.31-15.77,0-21.79S446.08,373.5,456.39,379.52Z"/><g class="cls-25"><path d="M456.39,379.52c10.31,6,10.31,15.77,0,21.79s-27,6-37.33,0-10.31-15.77,0-21.79S446.08,373.5,456.39,379.52Z"/></g><path class="cls-1" d="M419.06,389.86c10.31-6,27-6,37.33,0a17.17,17.17,0,0,1,6.17,5.73,17.23,17.23,0,0,1-6.17,5.72c-10.31,6-27,6-37.33,0a17.23,17.23,0,0,1-6.17-5.72A17.17,17.17,0,0,1,419.06,389.86Z"/><g id="Plants"><path class="cls-6" d="M432.68,363.59a17.28,17.28,0,0,1-1.56-4.49c-.69-3.74.24-8,3.27-10.35,1.21-.91,2.78-1.59,3.29-3a4.74,4.74,0,0,0,0-2.48c-.56-3.2-1.64-6.49-.75-9.62a10.74,10.74,0,0,1,6-6.39,32.27,32.27,0,0,1,8.69-2.27,14,14,0,0,0,4.6-1.32c1.72-1,2.25-2.66,3.32-4.15a29,29,0,0,1,4.22-4.51c3.13-2.8,7.05-5.1,11.39-4.91,9.05.4,8.79,8.19,6.18,14.09s-3.3,7.83,2.35,14,5.67,13.73-1.08,18-11.13,4.8-8.46,13c2.39,7.3,3.86,13.53-2.88,21.32-4.36,5-10.32,8.64-17.77,8.33a29.51,29.51,0,0,1-8.72-2c-2-1-.67-2.61-1.36-4.64L438.94,379c-1.15-3.36-2-7.1-3.55-10.29C434.54,366.94,433.53,365.31,432.68,363.59Z"/><g class="cls-26"><path class="cls-27" d="M432.68,363.59a17.28,17.28,0,0,1-1.56-4.49c-.69-3.74.24-8,3.27-10.35,1.21-.91,2.78-1.59,3.29-3a4.74,4.74,0,0,0,0-2.48c-.56-3.2-1.64-6.49-.75-9.62a10.74,10.74,0,0,1,6-6.39,32.27,32.27,0,0,1,8.69-2.27,14,14,0,0,0,4.6-1.32c1.72-1,2.25-2.66,3.32-4.15a29,29,0,0,1,4.22-4.51c3.13-2.8,7.05-5.1,11.39-4.91,9.05.4,8.79,8.19,6.18,14.09s-3.3,7.83,2.35,14,5.67,13.73-1.08,18-11.13,4.8-8.46,13c2.39,7.3,3.86,13.53-2.88,21.32-4.36,5-10.32,8.64-17.77,8.33a29.51,29.51,0,0,1-8.72-2c-2-1-.67-2.61-1.36-4.64L438.94,379c-1.15-3.36-2-7.1-3.55-10.29C434.54,366.94,433.53,365.31,432.68,363.59Z"/></g><path class="cls-14" d="M445,396.67a.65.65,0,0,0,.44-.64c-.38-44.69,24.25-71.37,24.5-71.64a.67.67,0,0,0,0-.95.66.66,0,0,0-.94,0c-.26.27-25.26,27.32-24.87,72.58a.68.68,0,0,0,.67.67A.54.54,0,0,0,445,396.67Z"/><path class="cls-14" d="M452.16,355.1l.13-.06c8-5.05,22.32-8.81,22.46-8.85a.67.67,0,0,0,.48-.82.66.66,0,0,0-.81-.48c-.6.15-14.65,3.85-22.83,9a.67.67,0,0,0,.57,1.21Z"/><path class="cls-14" d="M454.63,349h0a.67.67,0,0,0,.36-.88,51.83,51.83,0,0,0-7.39-12.43.66.66,0,0,0-.94-.08.68.68,0,0,0-.08.95,51.14,51.14,0,0,1,7.18,12.07A.66.66,0,0,0,454.63,349Z"/><path class="cls-6" d="M438.71,401.52a37.68,37.68,0,0,1-19.63.72c-11.26-2.44-18.14-12.95-18.14-12.95s12.17-4.88,19.28-5.35c0,0-11-1.88-21.33.45,0,0-6.52-2.42-5.29-13.43,0,0,6.14-4.52,20.26-2.75,0,0-7.08-5-19.48-6.54-1,0,.34-14.33,1.53-20.72s3.53-5.4,8.6-4.85,20.07,4,22,7.65.05,13.06.05,13.06a21.48,21.48,0,0,0,4.14-12.28s5.65,2.06,8.66,4.73a20.06,20.06,0,0,1,5.4,6.76c-.7,5-3.07,12.71-6.39,17,0,0,7.48-4.82,9.19-13.72,0,0,6,7.64,5.92,17.5C453.4,388,448.39,396.39,438.71,401.52Z"/><path class="cls-11" d="M438.71,401.52a37.68,37.68,0,0,1-19.63.72c-11.26-2.44-18.14-12.95-18.14-12.95s12.17-4.88,19.28-5.35c0,0-11-1.88-21.33.45,0,0-6.52-2.42-5.29-13.43,0,0,6.14-4.52,20.26-2.75,0,0-7.08-5-19.48-6.54-1,0,.34-14.33,1.53-20.72s3.53-5.4,8.6-4.85,20.07,4,22,7.65.05,13.06.05,13.06a21.48,21.48,0,0,0,4.14-12.28s5.65,2.06,8.66,4.73a20.06,20.06,0,0,1,5.4,6.76c-.7,5-3.07,12.71-6.39,17,0,0,7.48-4.82,9.19-13.72,0,0,6,7.64,5.92,17.5C453.4,388,448.39,396.39,438.71,401.52Z"/><path class="cls-14" d="M440.19,400.52a.65.65,0,0,1-.4-.56c-1.71-21.32-25.57-54.64-36.12-61.33a.65.65,0,0,1-.2-.89.64.64,0,0,1,.88-.21c10.72,6.8,35,40.66,36.71,62.33a.64.64,0,0,1-.58.7A.92.92,0,0,1,440.19,400.52Z"/></g></g><g id="Character"><path class="cls-28" d="M224.39,387.18c0-.24-3.84-14.09-3.84-14.09s1.25,1.28,9.26-.83a45.73,45.73,0,0,0,8.71-3.66l2.28,10.12c2.13,3.9,9.2,2.11,16.95,1.23,1.3-.15,2.64-.37,4-.6h.08c4.18-.23,8.38,2.28,4,5.85s-11.52,4.91-18.13,6.11C239.76,392.74,225.81,395.07,224.39,387.18Z"/><path class="cls-9" d="M280,386a8.21,8.21,0,0,1,.57,4.26c-.15,1.54-4,6.78-10.7,10s-15.07,3.42-19,4.54-7.47,3.36-12.07,4.48-9.14,1.72-13.75-1.32c-.85-1.31-1.79-4.33-1.52-4.63C224.27,402.47,280,386,280,386Z"/><path class="cls-6" d="M242,380.07c3,2.05,9.1.63,15.73-.12,6.25-.72,13.29-2.91,17.54-1.44s7.8,6.48,2.06,12.89c-1.66,1.85-5.18,5.12-8,6.12-7.14,2.56-13.54,2.77-18.14,3.9-6,1.47-9.24,4.12-14.77,4.76-7.15.83-11.67-1-12.91-2.92s-2.38-17.3.68-17c0,0,1.29,5,13,.15C242.3,384.31,242.22,381.2,242,380.07Z"/><path class="cls-23" d="M242,380.07c3,2.05,9.1.63,15.73-.12,6.25-.72,13.29-2.91,17.54-1.44s7.8,6.48,2.06,12.89c-1.66,1.85-5.18,5.12-8,6.12-7.14,2.56-13.54,2.77-18.14,3.9-6,1.47-9.24,4.12-14.77,4.76-7.15.83-11.67-1-12.91-2.92s-2.38-17.3.68-17c0,0,1.29,5,13,.15C242.3,384.31,242.22,381.2,242,380.07Z"/><path class="cls-29" d="M261.84,388.34s-.67-6.51-5.47-8.23a2.53,2.53,0,0,0-2.65.35s4.46.65,5.92,8.28c0,0,.23.5,1.2.32C261.17,389,261.89,388.87,261.84,388.34Z"/><path class="cls-29" d="M249.62,381s0-.22,1.13-.43a2,2,0,0,1,1.32.14s3.58,1.56,4.25,8.35a1.22,1.22,0,0,1-1.1,1.05,1,1,0,0,1-1.28-.67S253.2,382.26,249.62,381Z"/><path class="cls-29" d="M245.78,381.11s.2-.41,1-.41c1.06,0,1.31.42,1.31.42s2.55,2.61,2.58,8.29c0,0,.11,1-1.23,1.07s-1.15-1-1.15-1S247.87,382.25,245.78,381.11Z"/><path class="cls-30" d="M219.44,293c5.85,17.6,21.38,78.19,21.38,78.19s-10.1,9.08-21.07,4.94L193.63,300.7Z"/><path class="cls-28" d="M264.58,406.74c-1.2-1.78-5.69-14.1-5.69-14.1s4.69,2.68,12.75.76c4.09-1,7.92-5.42,7.92-5.42L283,399.83c2,3.95,8.61,2.64,16.38,1.95,1.3-.12,2.65-.3,4-.5h.08c4.19-.13,8.32,2.49,3.89,6s-11.64,4.63-18.28,5.66C281.08,414.12,269.05,413.39,264.58,406.74Z"/><path class="cls-9" d="M324.8,406.37a8.68,8.68,0,0,1,.51,4.58c-.2,1.65-4.44,7.17-11.75,10.43s-16.28,3.28-20.49,4.38S285,429.17,280,430.25c-5.12,1.12-9.87,1.6-14.73-1.78-.88-1.43-1.81-4.7-1.51-5C264.56,422.63,324.8,406.37,324.8,406.37Z"/><path class="cls-6" d="M284.27,398.94a14.24,14.24,0,0,0,1.47.91,4.47,4.47,0,0,0,1.63.33,23.2,23.2,0,0,0,3.91.1c3.28-.16,6.54-.66,9.81-.95,6.73-.6,14.34-2.77,18.87-1.08s8.65,7.14,2.31,13.87c-1.83,1.95-5.6,5.24-8.49,6.44-7.51,3.15-15.3,2.56-20.26,3.65-6.46,1.43-10,4.18-16,4.73-7.7.7-12.51-1.39-13.79-3.48-.71-1.16.08-7.2-.89-11.88-.83-4-.61-6.79.84-6.61a7.33,7.33,0,0,0,1.13,1.43,5.12,5.12,0,0,0,1.71,1.35,13.2,13.2,0,0,0,2.88,1,16.68,16.68,0,0,0,5.37.74,2.68,2.68,0,0,0,1.46-.46,3.06,3.06,0,0,0,.84-1.82c.13-.6.25-1.19.38-1.79a2.48,2.48,0,0,1,.33-.92,2.42,2.42,0,0,1,.91-.73,7.79,7.79,0,0,0,2.93-2.24,6.76,6.76,0,0,0,.86-2.76.75.75,0,0,1,.2-.46c.22-.17.54,0,.77.13Z"/><path class="cls-23" d="M284.27,398.94a14.24,14.24,0,0,0,1.47.91,4.47,4.47,0,0,0,1.63.33,23.2,23.2,0,0,0,3.91.1c3.28-.16,6.54-.66,9.81-.95,6.73-.6,14.34-2.77,18.87-1.08s8.65,7.14,2.31,13.87c-1.83,1.95-5.6,5.24-8.49,6.44-7.51,3.15-15.3,2.56-20.26,3.65-6.46,1.43-10,4.18-16,4.73-7.7.7-12.51-1.39-13.79-3.48-.71-1.16.08-7.2-.89-11.88-.83-4-.61-6.79.84-6.61a7.33,7.33,0,0,0,1.13,1.43,5.12,5.12,0,0,0,1.71,1.35,13.2,13.2,0,0,0,2.88,1,16.68,16.68,0,0,0,5.37.74,2.68,2.68,0,0,0,1.46-.46,3.06,3.06,0,0,0,.84-1.82c.13-.6.25-1.19.38-1.79a2.48,2.48,0,0,1,.33-.92,2.42,2.42,0,0,1,.91-.73,7.79,7.79,0,0,0,2.93-2.24,6.76,6.76,0,0,0,.86-2.76.75.75,0,0,1,.2-.46c.22-.17.54,0,.77.13Z"/><path class="cls-29" d="M305.26,408.45s-.55-7-5.66-9a2.71,2.71,0,0,0-2.85.31s4.77.81,6.14,9c0,0,.23.55,1.28.38C304.52,409.15,305.3,409,305.26,408.45Z"/><path class="cls-29" d="M292.34,400.21s0-.23,1.22-.42A2.14,2.14,0,0,1,295,400s3.81,1.77,4.35,9.08a1.31,1.31,0,0,1-1.22,1.09,1,1,0,0,1-1.35-.74S296.14,401.7,292.34,400.21Z"/><path class="cls-29" d="M288.2,400.26s.23-.43,1.14-.4c1.14,0,1.39.48,1.39.48s2.67,2.87,2.55,9c0,0,.09,1-1.35,1.11s-1.21-1.09-1.21-1.09S290.42,401.54,288.2,400.26Z"/><path class="cls-7" d="M260.64,313.8C265.25,328,277,368.34,282.4,389.1c0,0-9.67,8.69-22.1,7.93l-30-77.71,11.94-7.39Z"/><path class="cls-3" d="M162,507.82a1.94,1.94,0,0,0,1.95-1.94V381a1.95,1.95,0,0,0-3.89,0V505.88A1.94,1.94,0,0,0,162,507.82Z"/><path class="cls-3" d="M84.67,462.35a1.94,1.94,0,0,0,1.8-1.23l38.31-97a1.94,1.94,0,1,0-3.61-1.43l-38.31,97A2,2,0,0,0,84,462.21,2,2,0,0,0,84.67,462.35Z"/><path class="cls-3" d="M89.27,450.7a1.9,1.9,0,0,0,1.41-.61L162,374.66l71.16,75.11a1.92,1.92,0,0,0,2.74.08,1.94,1.94,0,0,0,.08-2.75l-72.57-76.6a1.91,1.91,0,0,0-1.41-.61h0a2,2,0,0,0-1.41.61L87.86,447.43a1.93,1.93,0,0,0,.08,2.74A1.89,1.89,0,0,0,89.27,450.7Z"/><path class="cls-3" d="M239.25,462.35a2,2,0,0,0,.72-.14,1.93,1.93,0,0,0,1.09-2.52l-38.31-97a1.94,1.94,0,0,0-3.61,1.43l38.31,97A1.94,1.94,0,0,0,239.25,462.35Z"/><path class="cls-6" d="M240.19,338.11c1.4-7.84-5-13.95-17-22.06a282.73,282.73,0,0,0-34.8-19.55c-10-4.62-20.33-4.19-33.19,2.42-17.87,9.18-71.66,41.8-71.66,41.8s80.41,45.39,95.88,43.36,54.14-27.18,57.21-36S240.19,338.11,240.19,338.11Z"/><path class="cls-23" d="M240.19,338.11c1.4-7.84-5-13.95-17-22.06a282.73,282.73,0,0,0-34.8-19.55c-10-4.62-20.33-4.19-33.19,2.42-17.87,9.18-71.66,41.8-71.66,41.8s80.41,45.39,95.88,43.36,54.14-27.18,57.21-36S240.19,338.11,240.19,338.11Z"/><path class="cls-6" d="M171.66,374.53C183.2,385,195.27,376,214.35,363.6c21.61-14,25.84-25.49,25.84-25.49s0,8.59-1.61,12.62-5.1,8.6-20.68,19.34S191,386.19,180.56,388.18L172.3,387"/><path class="cls-31" d="M214.35,363.6c21.61-14,25.84-25.49,25.84-25.49s0,8.59-1.61,12.62-5.1,8.6-20.68,19.34S191,386.19,180.56,388.18L172.3,387l-.64-12.51C183.2,385,195.27,376,214.35,363.6Z"/><g class="cls-26"><path class="cls-27" d="M87.68,447.13l-5.92,13.65a1.35,1.35,0,0,0-.06.35,1,1,0,0,0,0,.25,1.57,1.57,0,0,0,.75.91,3.51,3.51,0,0,0,3.2.16,1.44,1.44,0,0,0,.66-.63s0,0,0,0l0-.19,5.5-12.79Z"/></g><path class="cls-11" d="M236.61,447.71l5.07,13.36a1.37,1.37,0,0,1,0,.34,1,1,0,0,1,0,.25,1.57,1.57,0,0,1-.76.84,3.41,3.41,0,0,1-3.08,0,1.33,1.33,0,0,1-.6-.63s0,0,0,0l0-.18-4.69-12.54Z"/><g class="cls-26"><path class="cls-27" d="M159.72,496.2v11.06a1.13,1.13,0,0,0,.66.92,3.54,3.54,0,0,0,3.17,0,1.14,1.14,0,0,0,.65-.92V496.2A4.8,4.8,0,0,0,159.72,496.2Z"/></g><path class="cls-30" d="M115.75,291.26c4.58,5.34,46.25-6.65,57.29-8.16,17.81-2.42,32.31-4.19,38.35-2.3s8.61,5,10.46,12.22c2.18,8.54,3.32,12.89,3.32,12.89S195.58,317.27,172.25,320,115.75,291.26,115.75,291.26Z"/><path class="cls-7" d="M108,299.08c-4.62,17.6-8.77,38.08,1.92,49.29,7.21,7.55,43.38,27.16,66.71,19.43,23-7.61,70.6-42.95,75.37-46.51s9.12-6,8.67-7.49c-6.42-21.31-15.8-23-33.2-19.15-21.28,4.68-68,23.74-68,23.74Z"/><polygon class="cls-28" points="213.67 185.91 197.62 204.06 171.7 191.76 189.82 166.68 213.67 185.91"/><path class="cls-32" d="M233.58,151.44s6.57,9.49,5.87,10.45-5.35,1.92-5.35,1.92Z"/><circle class="cls-33" cx="233.53" cy="149.85" r="7.14"/><path class="cls-28" d="M215.34,125.19c12.91,2.41,16.75,8,18.43,28.36,1.75,21.3-.27,28.06-3,31-1.85,2-12.35,2.57-17.68,1.23-6.68-1.67-21.8-6.65-29.07-17.21-8.56-12.44-11.12-29.49-2.43-36.71C193.8,121.68,210.09,124.2,215.34,125.19Z"/><path class="cls-32" d="M213.67,185.91c5.56,1.25,14,.5,16.51-.95a18.77,18.77,0,0,1-9.34-.34,30.58,30.58,0,0,1-8.56-3.77Z"/><path class="cls-34" d="M236.16,133.53l0,0c-3.6,2.49-8,3.52-12.32,4.2.34,3.45-.75,6.87-1.83,10.18-.74,2.28-3.43,9.46-6.35,5.52-2.11-2.85-4-5.44-8.08-4.74-6.66,1.15-7.37,9.7-3,14.78s8.22,3,8.22,3,.62,9.19-4.23,15.68c0,0-7.23,4.44-17.38,1.1-6.41-2.11-15.65-10.19-19.06-16.49-9.38-17.35-9.42-34,1.95-39.08,1.05-8.32,7.49-12.19,14.89-14.06,10.25-2.61,20.91,3.83,30.83-.42,2.09-.9,4-2.16,6.14-2.94a4.19,4.19,0,0,1,3.69,0,4.41,4.41,0,0,1,1.58,2.82c.48,2,.66,4.18-.39,5.93a16.9,16.9,0,0,1,4.66-1.72,5.88,5.88,0,0,1,4.72,1.06A6.09,6.09,0,0,1,242,122.5C242.41,126.84,239.75,131,236.16,133.53Z"/><path class="cls-34" d="M173.86,130.48l-7.79-4.35a4.46,4.46,0,1,1,7.79,4.35Z"/><line class="cls-35" x1="215.62" y1="153.45" x2="240.59" y2="148.79"/><path class="cls-28" d="M267.83,196.51c-.68-1.12-2.17-1.34-3.41-1.77-2.29-.8-4.08-2.63-6.29-3.64a12.31,12.31,0,0,0-7.95-.54,19.14,19.14,0,0,0-2.66.85,34.67,34.67,0,0,0-4.75,2.4c-6.32,3.75-11.08,12.21-17.3,16.1-2.31,1.44-4.48,2.76-6.61,4.06l14.85,13.25a88.18,88.18,0,0,1,7.33-5.58c3.66-2.18,7.35-2.23,11.46-2.82a56.75,56.75,0,0,0,8.38-2.1,3.58,3.58,0,0,0,2.46-1.61c.53-1.17-.39-2.58-1.59-3.06s-3-.37-4.34-.59c-1.07-.17-3.94.47-4.57-.61-.34-.57.08-1.27.49-1.78,2.57-3.21,5.83-6.66,10-7.62a8.71,8.71,0,0,0,3.62-1.44A2.87,2.87,0,0,0,267.83,196.51Z"/><path class="cls-23" d="M179,181.7c-15.78-8.61-30.15-3.08-35.32,8-4.69,10-14.53,48.78-14.53,48.78C133.85,247.35,179,181.7,179,181.7Z"/><path class="cls-6" d="M176.6,184.81,179,181.7c-17.82-8.47-33.77,2.65-47.81,24.5C116,229.75,108.07,263.57,108,299.26c0,0,3,16,23.29,24.06,21.5,8.51,51.49,4.91,60.84-17.38,0,0,.19-22.26,7-33.22,4.38-7.09,14.59-22.85,22.19-34.16,6.62-9.84,11.76-32.24-2.06-40.43A115.08,115.08,0,0,0,208,192.4C195.4,196.55,175,189.8,176.6,184.81Z"/><path class="cls-11" d="M176.66,184.89,179,181.7c-17.82-8.47-33.77,2.65-47.81,24.5C116,229.75,108.07,263.57,108,299.26c0,0,3,16,23.29,24.06,21.5,8.51,51.49,4.91,60.84-17.38,0,0,.19-22.26,7-33.22,4.38-7.09,14.59-22.85,22.19-34.16,6.62-9.84,11.76-32.24-2.06-40.43A115.08,115.08,0,0,0,208,192.4C195.4,196.55,175,189.88,176.66,184.89Z"/><path class="cls-36" d="M227,224.29a36,36,0,0,0,.56-13h0a69.61,69.61,0,0,1-13.45,20.54c-7.25,7.64-16.21,13.58-22.93,21.68-7.12,8.58-12.24,19-18.21,28.32-2.39,3.76-5.66,11-10.11,11.31-5.42.35-10.6-6.26-13.56-10.82-4.72-7.27-8.77-16.35-14.63-22.73-5.12-5.58-13-12.72-20-9.49h0q-.78,2.79-1.48,5.62c-.46,1.92-.9,3.84-1.3,5.77,0,.07,0,.15,0,.22q-.6,2.91-1.1,5.84l-.06.31q-.49,2.89-.89,5.8A189.31,189.31,0,0,0,108,299.26s3,16,23.29,24.06c21.5,8.51,51.49,4.91,60.84-17.38,0,0,.19-22.26,7-33.22.68-1.1,1.51-2.43,2.44-3.9h0c.05-.09.11-.17.16-.25.77-1.23,1.62-2.55,2.52-3.95l.16-.26.07-.11c1.93-3,4.1-6.37,6.35-9.81l1-1.57c2.17-3.32,4.38-6.67,6.48-9.84l0,0,2.08-3.13c.29-.43.59-.87.87-1.3h0c.24-.35.47-.73.71-1.11l.2-.36c.17-.29.34-.58.51-.89l.21-.4c.19-.34.36-.69.54-1l.13-.27c.23-.47.45-.95.66-1.45l0-.05,0-.09c.19-.44.38-.9.56-1.36,0-.11.08-.22.13-.33l.48-1.33,0-.11a.78.78,0,0,1,.05-.14q.42-1.26.78-2.55v0c.24-.87.46-1.76.65-2.65v-.1Z"/><path class="cls-28" d="M309.67,246a34.23,34.23,0,0,1-3.7,3.82c-5.45,4.94-11.82,7.3-19.22,12.11-6,3.89-15.21,9.55-23,14.39a116.24,116.24,0,0,1-25,11.57c-7.22,2.12-11.27,2.21-15.54-9.36-2.09-5.68-3.75-11.5-5.56-17.27q-4-12.89-7.93-25.81s-9.61-23.69,11.88-35.58c9.35,5.35,12.92,7.52,15.85,18.72,3.51,13.4,9.19,39.87,9.19,39.87A186.23,186.23,0,0,0,268.84,249c2.73-1.36,6.08-2.3,8-4.72a38.52,38.52,0,0,0,3.42-5.32c.91-1.65,1.57-3.45,2.58-5,1.87-2.93,4.57-5.39,7.06-7.78a3,3,0,0,1,1.71-1,2,2,0,0,1,1.74,1.06c.79,1.38.05,2.73-.35,4.14q-.7,2.42-1.39,4.83a42.11,42.11,0,0,0,13.71-12.85,6.94,6.94,0,0,1,1.08-1.37,2.11,2.11,0,0,1,1.6-.59c1.44.18,2.86,2.5,2.93,3.83s-.23,2.73.11,4,1.17,2.28,1.56,3.5a20.18,20.18,0,0,1,.82,3.87,13.34,13.34,0,0,1-2.18,8.1A20.38,20.38,0,0,1,309.67,246Z"/><path class="cls-23" d="M220.31,198.85c8.19,3.31,14.08,7.05,17.82,19.54s7.78,32.54,7.78,32.54S246,255.12,236,261a24.47,24.47,0,0,1-19.24,2.59l-7.5-24.12S196,207.18,220.31,198.85Z"/><path class="cls-6" d="M172.3,387c-6.58-.33-11.72-5.16-27.35-11.67-28.86-12-50.5-21.64-58.75-36.76s-14.08-58.74-12-77.64a24.84,24.84,0,0,1,1.41-6.26l-2-.3,5.26-4.48v0c5.39-4.41,14.17-.48,20.78,3.12,18.89,10.28,33.67,20.27,45.35,56.34,8.78,27.13,14.58,51.88,26.71,65.12"/><path class="cls-31" d="M75.59,254.71l-2-.3,5.26-4.48v0c5.39-4.41,14.17-.48,20.78,3.12,18.89,10.28,33.67,20.27,45.35,56.34,8.78,27.13,14.58,51.88,26.71,65.12L172.3,387c-6.58-.33-11.72-5.16-27.35-11.67-28.86-12-50.5-21.64-58.75-36.76s-14.08-58.75-12-77.64A24.84,24.84,0,0,1,75.59,254.71Z"/><path class="cls-27" d="M94.13,257.71C113,268,127.79,278,139.47,314.06s18.07,67.94,41.09,74.12c0,0-10.41,4.14-42.3-9.35-10.15-4.29-22.46-12.12-30.55-16.66-15.85-8.9-25.46-16.19-27-18.91-8.38-15.05-14.09-58.75-12-77.64S84.66,252.56,94.13,257.71Z"/></g><g id="Speech_Bubble" data-name="Speech Bubble"><path class="cls-6" d="M200.31,97.73l-5.21-9.81,4.19-12.12V68.38L186.45,75.8v7.42L192,92.78a.8.8,0,0,0,.37.34h0Z"/><path class="cls-23" d="M200.31,97.73l-5.21-9.81,4.19-12.12V68.38L186.45,75.8v7.42L192,92.78a.8.8,0,0,0,.37.34h0Z"/><path class="cls-11" d="M231,9.4a8.54,8.54,0,0,0-3.85-6.67L224,.92a8.52,8.52,0,0,0-7.71,0L168.2,28.74a8.52,8.52,0,0,0-3.85,6.68V88.34A8.52,8.52,0,0,0,168.2,95l3.14,1.81a8.5,8.5,0,0,0,7.7,0l15.47-8.94L200,97.44a.82.82,0,0,0,1.49-.14l5.82-16.82L227.15,69A8.51,8.51,0,0,0,231,62.33Z"/><path class="cls-23" d="M164.35,88.34A8.52,8.52,0,0,0,168.2,95l3.14,1.81a8.62,8.62,0,0,0,7,.31c-1.81.68-3.19-.34-3.19-2.54V41.68a7.86,7.86,0,0,1,1.13-3.8l-10.84-6.26a7.86,7.86,0,0,0-1.13,3.8Z"/><path class="cls-37" d="M230.87,8.31c-.45-1.64-1.94-2.16-3.72-1.13L179,35a7.59,7.59,0,0,0-2.71,2.87l-10.84-6.25a7.78,7.78,0,0,1,2.71-2.88L216.3.92a8.58,8.58,0,0,1,7.71,0l3.14,1.82A8.49,8.49,0,0,1,230.87,8.31Z"/><g id="_" data-name="&lt;/&gt;"><path class="cls-14" d="M182.26,62.46a2.77,2.77,0,0,1,.2-1.1,7.22,7.22,0,0,1,.56-1l10.46-16.91.17-.2a.42.42,0,0,1,.12-.08.3.3,0,0,1,.39,0,.71.71,0,0,1,.16.51v6.53a2.85,2.85,0,0,1-.3,1.36,8.2,8.2,0,0,1-.54.89l-5.39,8.22,5.39,2.48a2.18,2.18,0,0,1,.54.26c.2.12.3.46.3,1V69a1.67,1.67,0,0,1-.16.7,1.11,1.11,0,0,1-.39.47l-.12,0a.24.24,0,0,1-.17,0L183,65.4a1.49,1.49,0,0,1-.56-.38,1.38,1.38,0,0,1-.2-.87Z"/><path class="cls-14" d="M205.06,36.34a5.59,5.59,0,0,1,.39-1.05,1.89,1.89,0,0,1,.76-.82l3.51-2a.3.3,0,0,1,.4,0,.73.73,0,0,1,.17.53,2.08,2.08,0,0,1,0,.39L201.4,71.06a5,5,0,0,1-.36,1,1.94,1.94,0,0,1-.79.86l-3.42,2a.31.31,0,0,1-.41,0,.73.73,0,0,1-.17-.53,2.3,2.3,0,0,1,.05-.39Z"/><path class="cls-14" d="M224.28,42.43a2.77,2.77,0,0,1-.2,1.1,6.78,6.78,0,0,1-.56,1L213.06,61.47a1.31,1.31,0,0,1-.17.2l-.11.09a.31.31,0,0,1-.4,0,.71.71,0,0,1-.15-.51V54.71a2.75,2.75,0,0,1,.3-1.35c.2-.35.38-.64.53-.87l4.58-7.07-4.58-1.74a2.12,2.12,0,0,1-.53-.28c-.2-.14-.3-.48-.3-1V35.87a1.69,1.69,0,0,1,.15-.7,1.05,1.05,0,0,1,.4-.47l.11,0a.32.32,0,0,1,.17,0l10.46,4.83a1.42,1.42,0,0,1,.56.38,1.38,1.38,0,0,1,.2.87Z"/></g></g><g id="Text_Box" data-name="Text Box"><g id="_2" data-name="{}"><g id="Speech_Bubble-2" data-name="Speech Bubble"><g id="Speach_Bubble" data-name="Speach Bubble"><path class="cls-7" d="M84.64,2.78,20.27,39.86a3.53,3.53,0,0,0-1.59,2.77V78.56a3.49,3.49,0,0,0,1.6,2.75l6.36,3.61a3.57,3.57,0,0,0,3.2,0L94.21,47.83a3.53,3.53,0,0,0,1.59-2.77V9.13a3.49,3.49,0,0,0-1.6-2.75L87.84,2.77A3.57,3.57,0,0,0,84.64,2.78Z"/><path class="cls-4" d="M95.78,8.84C95.66,8,95,7.75,94.2,8.21L29.84,45.29a3.32,3.32,0,0,0-1.13,1.19L19.18,41a3.17,3.17,0,0,1,1.1-1.14L84.64,2.78a3.56,3.56,0,0,1,3.21,0L94.2,6.38A3.51,3.51,0,0,1,95.78,8.84Z"/><path class="cls-3" d="M94.21,8.21,29.84,45.29a3.54,3.54,0,0,0-1.6,2.76V84c0,1,.72,1.44,1.6.93L94.21,47.83a3.53,3.53,0,0,0,1.59-2.77V9.13C95.8,8.11,95.09,7.7,94.21,8.21Z"/></g></g></g><g class="cls-26"><path class="cls-27" d="M44.15,54.5c0,.28,0,.67,0,1.16s0,1,0,1.5,0,1,0,1.52,0,.87,0,1.13a8,8,0,0,0,.18,1.29,2,2,0,0,0,.46.91,1.1,1.1,0,0,0,.78.36A2.32,2.32,0,0,0,46.74,62a4.48,4.48,0,0,0,1.15-.92,5.7,5.7,0,0,0,.74-1A5.55,5.55,0,0,0,49.07,59q.15-.54.24-1a4.39,4.39,0,0,1,.22-.85,1.09,1.09,0,0,1,.48-.47l2.69-1.56a.25.25,0,0,1,.32,0,.57.57,0,0,1,.13.42,12.77,12.77,0,0,1-.51,3.33,15.2,15.2,0,0,1-1.36,3.25,16,16,0,0,1-2,2.83,10.52,10.52,0,0,1-2.52,2.07,5.43,5.43,0,0,1-2.64.85,3,3,0,0,1-2-.71,4.37,4.37,0,0,1-1.26-2,10.4,10.4,0,0,1-.5-3c0-.85-.05-1.77-.05-2.76s0-1.95.05-2.87a16.22,16.22,0,0,1,.49-3.6,17,17,0,0,1,1.26-3.46,14,14,0,0,1,2-3,10.3,10.3,0,0,1,2.65-2.21,5.68,5.68,0,0,1,2.52-.84,3.47,3.47,0,0,1,2,.49,3.64,3.64,0,0,1,1.36,1.69,7.2,7.2,0,0,1,.51,2.74,1.31,1.31,0,0,1-.13.57.86.86,0,0,1-.32.39L50,50.86c-.24.14-.39.16-.48.07a1.46,1.46,0,0,1-.22-.58,5.7,5.7,0,0,0-.24-.69,1.27,1.27,0,0,0-.44-.55,1.29,1.29,0,0,0-.74-.19,2.58,2.58,0,0,0-1.15.41,4.18,4.18,0,0,0-1.17,1,5.11,5.11,0,0,0-.78,1.26A6.29,6.29,0,0,0,44.33,53,12.78,12.78,0,0,0,44.15,54.5Z"/><path class="cls-27" d="M61.64,35.67a5.33,5.33,0,0,1,2.41-.81,3.55,3.55,0,0,1,1.91.4,3.26,3.26,0,0,1,1.25,1.3,4,4,0,0,1,.47,1.85,1.31,1.31,0,0,1-.13.57.87.87,0,0,1-.3.38l-2.69,1.55a.78.78,0,0,1-.47.14.75.75,0,0,1-.35-.17c-.05,0-.11-.11-.2-.2a1,1,0,0,0-.38-.24,1.2,1.2,0,0,0-.62-.06,2.48,2.48,0,0,0-.9.35,6.19,6.19,0,0,0-.75.51,4.71,4.71,0,0,0-.64.62,3.55,3.55,0,0,0-.45.75,2.26,2.26,0,0,0-.18.9.94.94,0,0,0,.2.67.87.87,0,0,0,.66.21,5.58,5.58,0,0,0,1.22-.18l1.89-.49a6.17,6.17,0,0,1,2-.26A2.33,2.33,0,0,1,67,44a2.8,2.8,0,0,1,.84,1.42,8.43,8.43,0,0,1,.28,2.41A10.57,10.57,0,0,1,67.62,51a12.65,12.65,0,0,1-1.33,2.93,13,13,0,0,1-2,2.54,12.77,12.77,0,0,1-2.54,1.94,6.13,6.13,0,0,1-2.55.9,3.33,3.33,0,0,1-2-.36,3.16,3.16,0,0,1-1.31-1.35,4.59,4.59,0,0,1-.49-2.08,1.47,1.47,0,0,1,.13-.57.81.81,0,0,1,.3-.38L58.54,53a.79.79,0,0,1,.45-.16.7.7,0,0,1,.33.15l.24.27a1.64,1.64,0,0,0,.45.33,1.42,1.42,0,0,0,.69.12,2.66,2.66,0,0,0,1-.38,7.61,7.61,0,0,0,1.82-1.42,2.47,2.47,0,0,0,.73-1.73.69.69,0,0,0-.27-.64,1.33,1.33,0,0,0-.8-.12,7.23,7.23,0,0,0-1.37.27l-2,.5q-2.12.53-3.09-.54a5.66,5.66,0,0,1-1-3.79,11,11,0,0,1,.4-2.83,13.65,13.65,0,0,1,1.16-2.85,13.25,13.25,0,0,1,1.84-2.57A10.17,10.17,0,0,1,61.64,35.67Z"/><path class="cls-27" d="M76.52,27.07a5.43,5.43,0,0,1,2.41-.8,3.46,3.46,0,0,1,1.91.4A3.2,3.2,0,0,1,82.09,28a4,4,0,0,1,.47,1.85,1.31,1.31,0,0,1-.13.57.78.78,0,0,1-.3.37l-2.69,1.56a.76.76,0,0,1-.46.14.74.74,0,0,1-.36-.17l-.2-.21a1.13,1.13,0,0,0-.38-.24,1.34,1.34,0,0,0-.62-.05,2.48,2.48,0,0,0-.9.35,6.19,6.19,0,0,0-.75.51,4.71,4.71,0,0,0-.64.62,3.11,3.11,0,0,0-.45.75,2.24,2.24,0,0,0-.17.89,1,1,0,0,0,.19.68.87.87,0,0,0,.66.21,5.13,5.13,0,0,0,1.22-.19c.51-.12,1.14-.28,1.89-.49a6.49,6.49,0,0,1,2-.25,2.33,2.33,0,0,1,1.4.53,2.89,2.89,0,0,1,.85,1.41A9,9,0,0,1,83,39.23a10.57,10.57,0,0,1-.47,3.16,13,13,0,0,1-1.32,2.93,13.43,13.43,0,0,1-2,2.54,12.49,12.49,0,0,1-2.54,1.94,6.13,6.13,0,0,1-2.55.9,3.53,3.53,0,0,1-2-.36A3.09,3.09,0,0,1,70.79,49a4.61,4.61,0,0,1-.5-2.09,1.25,1.25,0,0,1,.14-.56.81.81,0,0,1,.29-.38l2.7-1.56a.84.84,0,0,1,.45-.15.61.61,0,0,1,.33.15l.24.26a1.32,1.32,0,0,0,.45.33,1.23,1.23,0,0,0,.69.12,2.47,2.47,0,0,0,1-.37,7.61,7.61,0,0,0,1.82-1.42,2.47,2.47,0,0,0,.73-1.73A.69.69,0,0,0,78.9,41a1.31,1.31,0,0,0-.8-.12,7,7,0,0,0-1.36.26c-.56.16-1.21.32-2,.51q-2.11.52-3.09-.54a5.68,5.68,0,0,1-1-3.79,11,11,0,0,1,.4-2.83,13,13,0,0,1,1.17-2.85A12.45,12.45,0,0,1,74.11,29,10.22,10.22,0,0,1,76.52,27.07Z"/></g></g><g id="Text_Box-2" data-name="Text Box"><g id="_3" data-name="{}"><g id="Speech_Bubble-3" data-name="Speech Bubble"><g id="Speach_Bubble-2" data-name="Speach Bubble"><path class="cls-7" d="M84.64,77.45,20.27,114.53a3.53,3.53,0,0,0-1.59,2.77v35.93a3.49,3.49,0,0,0,1.6,2.75l6.36,3.61a3.57,3.57,0,0,0,3.2,0L94.21,122.5a3.53,3.53,0,0,0,1.59-2.77V83.8a3.49,3.49,0,0,0-1.6-2.75l-6.36-3.61A3.57,3.57,0,0,0,84.64,77.45Z"/><path class="cls-4" d="M95.78,83.51c-.12-.8-.78-1.09-1.58-.64L29.84,120a3.32,3.32,0,0,0-1.13,1.19l-9.53-5.48a3.09,3.09,0,0,1,1.1-1.14L84.64,77.45a3.59,3.59,0,0,1,3.21,0l6.35,3.62A3.51,3.51,0,0,1,95.78,83.51Z"/><path class="cls-3" d="M94.21,82.88,29.84,120a3.53,3.53,0,0,0-1.6,2.76v35.93c0,1,.72,1.43,1.6.92L94.21,122.5a3.53,3.53,0,0,0,1.59-2.77V83.8C95.8,82.78,95.09,82.37,94.21,82.88Z"/></g></g></g><path class="cls-11" d="M44.46,120.57a.29.29,0,0,1,.39,0,.68.68,0,0,1,.16.51v20.44a1.58,1.58,0,0,1-.16.69,1,1,0,0,1-.39.48l-2.7,1.56a.3.3,0,0,1-.39,0,.68.68,0,0,1-.16-.51V136l-4.56,2.63v7.76a1.59,1.59,0,0,1-.17.69,1,1,0,0,1-.39.48l-2.69,1.56a.33.33,0,0,1-.39,0,.69.69,0,0,1-.17-.53V128.13a1.67,1.67,0,0,1,.17-.7,1,1,0,0,1,.39-.47l2.69-1.56a.29.29,0,0,1,.39,0,.66.66,0,0,1,.17.51v7.62l4.56-2.63V123.3a1.65,1.65,0,0,1,.16-.7,1,1,0,0,1,.39-.47Z"/><path class="cls-11" d="M59.48,111.9a.3.3,0,0,1,.39,0,.7.7,0,0,1,.17.51v3.36a1.59,1.59,0,0,1-.17.69,1.08,1.08,0,0,1-.39.48l-3.62,2.09v16.23a1.59,1.59,0,0,1-.16.7,1.08,1.08,0,0,1-.39.48L52.62,138a.29.29,0,0,1-.39,0,.66.66,0,0,1-.17-.5V121.24l-3.62,2.09a.3.3,0,0,1-.39,0,.69.69,0,0,1-.16-.51v-3.36a1.58,1.58,0,0,1,.16-.69,1.08,1.08,0,0,1,.39-.48Z"/><path class="cls-11" d="M68.92,123a1.54,1.54,0,0,1-.27-.36l-1.94-4.11V129a1.58,1.58,0,0,1-.16.69,1,1,0,0,1-.39.48l-2.69,1.56a.31.31,0,0,1-.39,0,.68.68,0,0,1-.17-.51V110.77a1.67,1.67,0,0,1,.17-.7,1,1,0,0,1,.39-.47l2.38-1.38c.28-.16.48-.16.62,0a2.21,2.21,0,0,1,.27.35l3.32,6.85,3.34-10.69a5.91,5.91,0,0,1,.26-.66,1.49,1.49,0,0,1,.62-.71L76.66,102a.29.29,0,0,1,.39,0,.66.66,0,0,1,.17.5V123a1.6,1.6,0,0,1-.17.7,1.08,1.08,0,0,1-.39.48L74,125.68a.29.29,0,0,1-.39,0,.65.65,0,0,1-.16-.5V114.67L71.48,121a6.83,6.83,0,0,1-.27.68,1.2,1.2,0,0,1-.49.55l-1.31.76C69.2,123.12,69,123.12,68.92,123Z"/><path class="cls-11" d="M91.19,110.67a.31.31,0,0,1,.39,0,.7.7,0,0,1,.17.51v3.35a1.6,1.6,0,0,1-.17.7,1,1,0,0,1-.39.48l-9.51,5.49a.29.29,0,0,1-.39,0,.66.66,0,0,1-.17-.5V100.26a1.64,1.64,0,0,1,.17-.7,1.08,1.08,0,0,1,.39-.48l2.69-1.55a.29.29,0,0,1,.39,0,.66.66,0,0,1,.17.5v16.23Z"/></g><g id="Text_Box-3" data-name="Text Box"><g id="_4" data-name="{}"><g id="Speech_Bubble-4" data-name="Speech Bubble"><g id="Speach_Bubble-3" data-name="Speach Bubble"><path class="cls-7" d="M84.64,152.12,20.27,189.2A3.53,3.53,0,0,0,18.68,192V227.9a3.49,3.49,0,0,0,1.6,2.75l6.36,3.61a3.57,3.57,0,0,0,3.2,0l64.37-37.08a3.52,3.52,0,0,0,1.59-2.76V158.47a3.49,3.49,0,0,0-1.6-2.75l-6.36-3.61A3.54,3.54,0,0,0,84.64,152.12Z"/><path class="cls-4" d="M95.78,158.18c-.12-.81-.78-1.09-1.58-.64L29.84,194.63a3.24,3.24,0,0,0-1.13,1.19l-9.53-5.48a3.09,3.09,0,0,1,1.1-1.14l64.36-37.08a3.59,3.59,0,0,1,3.21,0l6.35,3.61A3.55,3.55,0,0,1,95.78,158.18Z"/><path class="cls-3" d="M94.21,157.55,29.84,194.63a3.53,3.53,0,0,0-1.6,2.76v35.93c0,1,.72,1.43,1.6.92l64.37-37.08a3.52,3.52,0,0,0,1.59-2.76V158.47C95.8,157.45,95.09,157,94.21,157.55Z"/></g></g></g><g class="cls-26"><path class="cls-27" d="M45.4,203.11c0,.29,0,.67,0,1.16s0,1,0,1.51,0,1,0,1.51,0,.87,0,1.14a6.77,6.77,0,0,0,.19,1.28,1.86,1.86,0,0,0,.45.91,1.1,1.1,0,0,0,.78.36A2.2,2.2,0,0,0,48,210.6a4.29,4.29,0,0,0,1.15-.91,5.76,5.76,0,0,0,.74-1.05,6,6,0,0,0,.45-1.06,9.36,9.36,0,0,0,.23-1,3.43,3.43,0,0,1,.23-.84,1,1,0,0,1,.47-.48L54,203.75a.23.23,0,0,1,.32,0,.53.53,0,0,1,.13.41,12.31,12.31,0,0,1-.51,3.33,15.28,15.28,0,0,1-1.36,3.26,15.46,15.46,0,0,1-2,2.83A10.56,10.56,0,0,1,48,215.67a5.27,5.27,0,0,1-2.64.84,3,3,0,0,1-2-.7,4.5,4.5,0,0,1-1.27-2,10.83,10.83,0,0,1-.5-3c0-.85,0-1.77,0-2.76s0-2,0-2.87a17,17,0,0,1,1.76-7.06,14.44,14.44,0,0,1,2-3A10.47,10.47,0,0,1,48,192.88a5.57,5.57,0,0,1,2.52-.83,3.38,3.38,0,0,1,2,.49,3.57,3.57,0,0,1,1.36,1.68A7,7,0,0,1,54.4,197a1.28,1.28,0,0,1-.13.57.81.81,0,0,1-.32.39l-2.69,1.56c-.23.13-.39.15-.47.06a1.25,1.25,0,0,1-.23-.58,3.9,3.9,0,0,0-.23-.68,1.4,1.4,0,0,0-.45-.56,1.29,1.29,0,0,0-.74-.19A2.66,2.66,0,0,0,48,198a4.3,4.3,0,0,0-1.17,1,5.5,5.5,0,0,0-.78,1.26,6,6,0,0,0-.45,1.43A11,11,0,0,0,45.4,203.11Z"/><path class="cls-27" d="M64.27,198.9v5.22a1.73,1.73,0,0,1-.16.69,1,1,0,0,1-.4.48l-2.59,1.5a.3.3,0,0,1-.39,0,.68.68,0,0,1-.16-.51V201l-3.19,1.84a.29.29,0,0,1-.39,0,.65.65,0,0,1-.16-.5v-3.2a1.58,1.58,0,0,1,.16-.69,1,1,0,0,1,.39-.48l3.19-1.84v-5.22a1.59,1.59,0,0,1,.16-.7,1.08,1.08,0,0,1,.39-.48l2.59-1.49a.31.31,0,0,1,.4,0,.74.74,0,0,1,.16.51V194l3.16-1.83a.33.33,0,0,1,.4,0,.69.69,0,0,1,.16.51v3.19a1.59,1.59,0,0,1-.16.7,1,1,0,0,1-.4.48Z"/><path class="cls-27" d="M77.9,191v5.22a1.67,1.67,0,0,1-.17.7,1,1,0,0,1-.39.47l-2.59,1.5a.29.29,0,0,1-.39,0,.65.65,0,0,1-.16-.5v-5.23L71,195a.3.3,0,0,1-.39,0,.69.69,0,0,1-.16-.51v-3.2a1.58,1.58,0,0,1,.16-.69,1.08,1.08,0,0,1,.39-.48l3.19-1.84V183a1.62,1.62,0,0,1,.16-.7,1.08,1.08,0,0,1,.39-.48l2.59-1.49a.29.29,0,0,1,.39,0,.66.66,0,0,1,.17.5v5.22l3.16-1.82a.3.3,0,0,1,.39,0,.7.7,0,0,1,.17.51V188a1.59,1.59,0,0,1-.17.69,1.08,1.08,0,0,1-.39.48Z"/></g></g></g></g></svg>