<svg xmlns="http://www.w3.org/2000/svg" viewBox="0 0 723.82 585.76"><defs><style>.cls-1{fill:#00ccc2;}.cls-2{fill:#263238;}.cls-3{fill:#003348;}.cls-4{fill:#455a64;}.cls-5{fill:#e0e0e0;}.cls-6{fill:#00807d;}.cls-7{fill:#002338;}.cls-8{fill:#ffbf9d;}.cls-9{fill:#ff9a6c;}.cls-10{opacity:0.3;}.cls-11{fill:#fff;}.cls-12{fill:#00cac3;}.cls-13{fill:#e0eef7;}.cls-14{fill:none;stroke:#999;stroke-miterlimit:10;stroke-width:6.9px;}.cls-15{fill:#004456;}.cls-16{fill:#001926;}</style></defs><title>TECHNICAL CONSULTATION</title><g id="Layer_2" data-name="Layer 2"><g id="Layer_1-2" data-name="Layer 1"><path class="cls-1" d="M79.5,442.19c7.22-3.72,15.72-4.2,23.74-2.88,4.3.71,8.79,2,11.72,5.23s3.49,8.93.12,11.71c-2,1.65-4.79,1.91-7.39,1.88-6.27-.08-13.23-1.18-18.25,2.59-2.86,2.16-4.76,5.74-8.18,6.8s-7.12-.94-8.89-4-1.84-6.79-1-10.2A15.58,15.58,0,0,1,79.5,442.19Z"/><path class="cls-1" d="M63,410.27c4.42,6.3,13,4.21,17,.36s5.66-9.42,7.19-14.74c3.49-12.15,7-24.9,4.42-37.28-.78-3.7-2.16-7.39-4.76-10.13s-6.6-4.38-10.26-3.42c-4.32,1.15-7,5.38-9,9.41a88.72,88.72,0,0,0-8.78,38.14c0,6.14.7,12.58,4.16,17.66"/><path class="cls-1" d="M50.84,419.31c4.79-5.69,5.7-14,3.57-21.11S47.46,385,41.91,380.06a67.38,67.38,0,0,0-22.39-13.21,23.81,23.81,0,0,0-10.07-1.71c-3.42.33-6.86,2.07-8.46,5.11-2.35,4.5-.09,9.95,2.35,14.4A171.06,171.06,0,0,0,18.05,407c4.41,5.68,9.46,11.29,16.17,13.86s13.7,2.26,17.26-2.39"/><path class="cls-2" d="M62.66,505.37a12.72,12.72,0,0,0,.4-2.86c.21-2.09.46-4.7.77-7.82a112.9,112.9,0,0,1,1.75-11.47,89.6,89.6,0,0,1,4.17-13.53,50.1,50.1,0,0,1,6.91-12.25,26,26,0,0,1,8.74-7.27,24.62,24.62,0,0,1,7.36-2.29,13.28,13.28,0,0,0,2.85-.41,13.73,13.73,0,0,0-2.9,0,22.17,22.17,0,0,0-7.67,2,25.85,25.85,0,0,0-9.22,7.33,48.66,48.66,0,0,0-7.16,12.49A82.32,82.32,0,0,0,64.52,483,96.82,96.82,0,0,0,63,494.61c-.25,3.32-.34,6-.39,7.87A13.53,13.53,0,0,0,62.66,505.37Z"/><path class="cls-2" d="M63.2,499.36a5.51,5.51,0,0,0,.08-1.33c0-1,0-2.26,0-3.8,0-3.3,0-8.08.17-14,.29-11.79,1.31-24.48,3.27-42.37,1.85-16.83,4.35-36.4,7-49.13.56-2.9,1.13-5.5,1.66-7.78s1-4.26,1.37-5.86.65-2.72.89-3.69a5.55,5.55,0,0,0,.23-1.31,5.44,5.44,0,0,0-.46,1.24L76.27,375c-.49,1.58-1,3.54-1.56,5.81s-1.22,4.87-1.84,7.76a432.51,432.51,0,0,0-7.34,45.59c-2,17.93-2.85,34.25-2.93,46.07-.07,5.91.06,10.7.21,14,.09,1.54.17,2.8.23,3.8A6,6,0,0,0,63.2,499.36Z"/><path class="cls-2" d="M63.28,467.87a25.1,25.1,0,0,0,0-4A107.63,107.63,0,0,0,62,453.14a142.56,142.56,0,0,0-3.5-15.67A127.62,127.62,0,0,0,52,418.92c-5.43-12.9-12.82-23.44-19.25-30a46.75,46.75,0,0,0-4.52-4.21c-.7-.59-1.31-1.18-1.94-1.64l-1.76-1.21a23.92,23.92,0,0,0-3.34-2.14c-.19.26,4.74,3.16,11,9.77S45.51,406.6,50.9,419.39a146.9,146.9,0,0,1,6.59,18.38,158.55,158.55,0,0,1,3.72,15.52c.82,4.47,1.3,8.12,1.59,10.65A25.3,25.3,0,0,0,63.28,467.87Z"/><polygon class="cls-3" points="32.85 523.41 36.01 566.63 91.53 566.63 94.69 523.41 32.85 523.41"/><rect class="cls-3" x="27.49" y="506.38" width="73.82" height="17.04"/><polygon class="cls-4" points="27.49 564.98 27.49 569.7 30.96 569.7 100.09 569.7 100.09 564.98 27.49 564.98"/><polygon class="cls-4" points="34.36 578.01 30.96 569.7 97.45 569.7 93.48 578.01 34.36 578.01"/><path class="cls-5" d="M93.65,537.54s-.07.14-.25.39L92.57,539l-3.24,4.13-.14.19-.14-.19c-2-2.82-4.75-6.57-8-11h.46l-7.82,11.07-.25.35-.27-.33c-2.89-3.43-6-7.16-9.28-11h.53l-.51.64-8.3,10.4-.27.35-.26-.36c-2.81-4-5.45-7.71-7.82-11.08l.45,0-9.64,11-.17.19-.13-.22-3-5.07c-.32-.55-.57-1-.77-1.35a2,2,0,0,1-.24-.48,2.72,2.72,0,0,1,.32.43L35,538c.77,1.21,1.83,2.88,3.17,5l-.3,0,9.48-11.12.24-.28.22.3,7.9,11h-.54l8.28-10.42.51-.64.27-.33.27.32,9.25,11.06-.52,0,7.9-11,.23-.32.23.32L89.34,543h-.28l3.36-4,.9-1A1.93,1.93,0,0,1,93.65,537.54Z"/><path class="cls-4" d="M95.46,523.13c0,.19-13.91.34-31.07.34s-31.08-.15-31.08-.34,13.91-.35,31.08-.35S95.46,522.94,95.46,523.13Z"/><path class="cls-2" d="M98.26,570.17c0,.19-15.12.34-33.76.34s-33.78-.15-33.78-.34,15.12-.35,33.78-.35S98.26,570,98.26,570.17Z"/><path class="cls-6" d="M478,395.67H607a20.87,20.87,0,0,1,20.87,20.87V578.8a0,0,0,0,1,0,0H457.09a0,0,0,0,1,0,0V416.54A20.87,20.87,0,0,1,478,395.67Z"/><path class="cls-2" d="M613.48,396.61c.2,0,.36,40.77.36,91s-.16,91.05-.36,91.05-.36-40.75-.36-91.05S613.29,396.61,613.48,396.61Z"/><path class="cls-7" d="M529.36,196.88a144.75,144.75,0,0,1,26,76.33c.8,18.35-1.67,37.9,7,54.07,12.49,23.2,39.52,22.41,47.79,47.43,3.6,10.88-3,34.82-4.82,46.14-2,12.86,5.84,23.66,3.8,36.53-1.86,11.79-10.69,20.21-21.29,25.7-9.43,4.89-18.15,5-28,.95-18.7-7.74-34.26-15.91-47.58-31.14-18.7-21.38-24.35-51-27.54-79.22A695.06,695.06,0,0,1,489,186.4"/><path class="cls-4" d="M569.35,486.66l.6-.15c.4-.09,1-.19,1.77-.42a29.6,29.6,0,0,0,6.46-2.58,28.72,28.72,0,0,0,8.53-6.84,17.87,17.87,0,0,0,3.33-5.92,32.08,32.08,0,0,0,1.17-7.58,74.15,74.15,0,0,0-1.79-17.58c-1.2-6.26-2.83-12.94-3.22-20.17a41.17,41.17,0,0,1,.78-11.06,72,72,0,0,1,3.5-11c1.41-3.65,2.88-7.34,3.95-11.2a28.59,28.59,0,0,0,1-12A27.33,27.33,0,0,0,590.92,369a51.9,51.9,0,0,0-7.83-8.86c-5.7-5.32-11.87-9.71-17.14-14.64a97.06,97.06,0,0,1-22.31-30.82,93.2,93.2,0,0,1-5.14-13.76c-.67-2.06-1-4-1.52-5.83s-.68-3.47-1-5c-.44-3-.76-5.35-.84-6.95-.06-.78-.11-1.38-.14-1.82s0-.62,0-.62,0,.21.1.61l.21,1.81c.13,1.6.5,3.93,1,6.92.31,1.49.65,3.14,1,4.95s.88,3.74,1.56,5.79a96.18,96.18,0,0,0,5.22,13.66A97.34,97.34,0,0,0,566.4,345c5.24,4.88,11.42,9.27,17.17,14.62a52.29,52.29,0,0,1,7.94,9A27.75,27.75,0,0,1,596.1,380a29.2,29.2,0,0,1-1,12.29c-1.08,3.92-2.58,7.63-4,11.28a71.27,71.27,0,0,0-3.49,10.89,40.63,40.63,0,0,0-.79,10.89c.37,7.15,2,13.81,3.15,20.09s2,12.25,1.71,17.72a32.8,32.8,0,0,1-1.24,7.69,18.4,18.4,0,0,1-3.46,6,28.61,28.61,0,0,1-8.71,6.84,27.8,27.8,0,0,1-6.56,2.47A16.88,16.88,0,0,1,569.35,486.66Z"/><path class="cls-1" d="M312.5,536l66.2-31.45s25.79-125.18,30.66-134.58,25.25-17.52,25.25-17.52L431.2,521.92,425.15,561l-93.36,8.85Z"/><path class="cls-8" d="M256,565.61c-.36,0-2.21,1.14-.66,4s12.75,12.52,16,9.17-1.74-7.44-1.74-7.44Z"/><path class="cls-8" d="M270.12,571.52s13.54,1.71,18.75,3.69c5.67,2.15,12.56.69,17.2-2.46a48.57,48.57,0,0,0,7.34-6l17.27-.27a20.74,20.74,0,0,0,3.37-21.4,22.93,22.93,0,0,0-4-6.74c-2-2.22-5.29-4-10.88-5l-20.52,4.43s-31.79-2.27-37.44.4c0,0-7.1,4.22-9.3,6-.83.67-3.34,8.76,1.83,13,0,0-4.51,3.58-2.07,6.79l1.17,1.43s-3,3.92-1.47,5.62,15.15,9.68,20,7.78.84-6.41-1.31-7.24"/><path class="cls-9" d="M257.18,550.15a16.86,16.86,0,0,1,1.68.6c1.07.41,2.63,1,4.58,1.61,1,.31,2.05.63,3.21.94s2.43.56,3.75,1a8,8,0,0,1,3.72,2.25,4.58,4.58,0,0,1,1,4.54,3.6,3.6,0,0,1-1.68,1.8,6.29,6.29,0,0,1-2.26.63,18.36,18.36,0,0,1-4.31-.23,38.24,38.24,0,0,1-7-1.82c-1.94-.69-3.48-1.34-4.53-1.79a10.35,10.35,0,0,1-1.62-.77,12.28,12.28,0,0,1,1.7.56c1.08.39,2.63,1,4.58,1.62a41.07,41.07,0,0,0,7,1.69,18.66,18.66,0,0,0,4.18.19,5.91,5.91,0,0,0,2.06-.57,3.07,3.07,0,0,0,1.42-1.53,4.09,4.09,0,0,0-.9-4,7.68,7.68,0,0,0-3.47-2.11c-1.27-.42-2.53-.69-3.7-1s-2.24-.67-3.22-1c-1.94-.67-3.48-1.31-4.53-1.78A8.3,8.3,0,0,1,257.18,550.15Z"/><path class="cls-9" d="M258.4,540.37a12.34,12.34,0,0,1,1.67.6c1.06.41,2.61,1,4.54,1.65s4.27,1.35,6.89,2a9.35,9.35,0,0,1,4,1.62,3.4,3.4,0,0,1,1.18,2.08,4.26,4.26,0,0,1-.35,2.41,5.79,5.79,0,0,1-3.54,3,9.45,9.45,0,0,1-4.32.34,40.74,40.74,0,0,1-6.93-2l-4.58-1.6a10.15,10.15,0,0,1-1.65-.66,9.85,9.85,0,0,1,1.72.45l4.63,1.43a44.68,44.68,0,0,0,6.88,1.87,8.89,8.89,0,0,0,4.07-.35,5.28,5.28,0,0,0,3.21-2.72,3.2,3.2,0,0,0-.68-3.84,9.19,9.19,0,0,0-3.77-1.54,70.48,70.48,0,0,1-6.9-2.1c-1.93-.7-3.45-1.35-4.5-1.82A9.69,9.69,0,0,1,258.4,540.37Z"/><path class="cls-9" d="M264.92,543.16a16.93,16.93,0,0,1-.61-2.72,15.6,15.6,0,0,1-.69-2.7,4.76,4.76,0,0,1,1.23,2.57A4.69,4.69,0,0,1,264.92,543.16Z"/><path class="cls-8" d="M312.69,543.57l-12.07-4.65s-33.51-15.64-34.07-14.79-2.39.75-2,4.84,19.93,12.32,20.54,13.73-.41,8.58,6.8,13.7,12.42,5.24,12.42,5.24"/><path class="cls-9" d="M304.32,561.64a.81.81,0,0,1-.29,0c-.19,0-.47,0-.83-.08a19.19,19.19,0,0,1-3.14-.76,30.36,30.36,0,0,1-10.23-5.88,14.48,14.48,0,0,1-4.11-7.06,32.88,32.88,0,0,1-.72-4.51,2.4,2.4,0,0,0-.11-.51,1.21,1.21,0,0,0-.32-.33c-.3-.22-.64-.43-1-.63-.69-.4-1.4-.79-2.13-1.18-2.9-1.55-6-3.11-9.12-4.91a52.88,52.88,0,0,1-4.65-2.93,17.67,17.67,0,0,1-2.18-1.82,5.59,5.59,0,0,1-.92-1.17,2.33,2.33,0,0,1-.28-.75,4.86,4.86,0,0,1-.07-.74,5.35,5.35,0,0,1,.51-2.92,3.38,3.38,0,0,1,1.07-1.06,2.39,2.39,0,0,0,.46-.4s0,0,.12-.12a.3.3,0,0,1,.23-.07,1.63,1.63,0,0,1,.24,0l.37.09c1.81.56,3.47,1.29,5.14,2,3.31,1.4,6.48,2.81,9.49,4.16,6,2.71,11.4,5.21,15.92,7.33,1.13.52,2.2,1.06,3.22,1.5L304,540l4.73,1.87,3,1.2.77.33a1.19,1.19,0,0,1,.26.13l-.28-.08-.79-.27-3-1.11-4.77-1.78-3-1.12c-1.05-.43-2.11-1-3.25-1.46l-16-7.22c-3-1.34-6.18-2.74-9.48-4.13-1.66-.67-3.35-1.41-5.08-1.94l-.31-.07h-.11s0,0,0,0,0-.09,0-.14,0,0,0,0c.38.26.09.09.18.15l0,0a2.29,2.29,0,0,1-.58.52,2.9,2.9,0,0,0-.91.9,4.86,4.86,0,0,0-.44,2.6,2.48,2.48,0,0,0,.28,1.25,5.83,5.83,0,0,0,.83,1,17,17,0,0,0,2.11,1.76c1.5,1.07,3.05,2,4.6,2.91,3.1,1.79,6.18,3.37,9.09,4.93.73.4,1.44.79,2.14,1.2.35.21.69.42,1,.67a1.49,1.49,0,0,1,.47.54,2.57,2.57,0,0,1,.14.63,33.5,33.5,0,0,0,.68,4.47,14.17,14.17,0,0,0,3.94,6.88,27.39,27.39,0,0,0,5.43,3.86,29,29,0,0,0,4.59,2.11,20.74,20.74,0,0,0,3.09.84l.82.14Z"/><path class="cls-9" d="M267.36,563.21a4.16,4.16,0,0,1,1.28.38,12.49,12.49,0,0,1,3.16,1.82,11.27,11.27,0,0,1,1.83,1.78,3.79,3.79,0,0,1,1,2.82,3.11,3.11,0,0,1-2.23,2.41,6.09,6.09,0,0,1-3.51-.11,65.08,65.08,0,0,1-11.11-4.46,34.39,34.39,0,0,1-3.12-1.85,5.53,5.53,0,0,1-1.07-.8,6.59,6.59,0,0,1,1.18.61c.74.42,1.82,1,3.19,1.68A76.23,76.23,0,0,0,269,571.76a5.56,5.56,0,0,0,3.19.14,2.62,2.62,0,0,0,1.89-2,3.4,3.4,0,0,0-.83-2.46,11.39,11.39,0,0,0-1.71-1.75A19.47,19.47,0,0,0,267.36,563.21Z"/><g class="cls-10"><path d="M424.68,561.06c-10.85-36.57-20.41-83.67-31.25-120.24-4,33.76,1,78.33,7.21,111.76.73,3.91,1.06,7.75,4.1,10.33l19.94-1.85"/></g><path class="cls-2" d="M406.92,536c-.15,0-.6-2.39-2.07-6a42.85,42.85,0,0,0-3.11-6.15,42.6,42.6,0,0,0-11.42-12.3,42.44,42.44,0,0,0-5.91-3.56c-3.53-1.73-5.91-2.37-5.86-2.51a7.54,7.54,0,0,1,1.68.39,16.5,16.5,0,0,1,1.92.64,26.3,26.3,0,0,1,2.48,1,38.68,38.68,0,0,1,6.07,3.48,40.39,40.39,0,0,1,11.6,12.49,38.88,38.88,0,0,1,3,6.31c.38.92.6,1.8.84,2.56a15.49,15.49,0,0,1,.49,2A7.85,7.85,0,0,1,406.92,536Z"/><path class="cls-1" d="M427.6,350.7s-34.68,77.46-34.68,91.68,26,113,26,113c-.24,3.92-1.26,23.62-1.26,23.62l145.67.5h0l2.21-31.31-11.37-29.84L565.51,434s7.65-49,8.33-62.67c.85-17.14-57.2-37-55.62-39.38l-10-13.42L450.76,365.2l-11.35-32.78-13.59,12.85Z"/><path class="cls-1" d="M523,371.3c-15.76,26.68-44.61,75.29-44.61,75.29l-51.71,59s-3.38,30,3.39,39.14,18.36,15.47,18.36,15.47,13.65,0,31-14.5,65.18-74.41,65.18-74.41L561,451.43s19.58-48.13,15.92-72.62c-1.41-9.44-5.43-13.37-10.79-17.7C552.65,350.24,531.8,356.39,523,371.3Z"/><path class="cls-2" d="M567.07,434.7a3.65,3.65,0,0,1-.24.55l-.77,1.57c-.68,1.37-1.73,3.38-3.17,5.92C560,447.83,555.6,455,549.8,463.69c-2.91,4.34-6.16,9-9.72,14s-7.63,10.14-11,16.15-6.37,12.59-10,19.16a119.48,119.48,0,0,1-13.13,19.19,77,77,0,0,1-17.42,15.39,54.6,54.6,0,0,1-20.17,7.81,45.32,45.32,0,0,1-19.54-.82,37.42,37.42,0,0,1-8.26-3.36,37.84,37.84,0,0,1-6.8-4.6,30.7,30.7,0,0,1-5.14-5.43,30.24,30.24,0,0,1-3.39-5.74,35.7,35.7,0,0,1-2.78-10.26,46,46,0,0,1-.24-6.72c0-.75.08-1.32.1-1.75a4.54,4.54,0,0,1,.06-.59,3.3,3.3,0,0,1,0,.59c0,.43,0,1,0,1.75a50.92,50.92,0,0,0,.36,6.68,36.48,36.48,0,0,0,2.87,10.13,31.74,31.74,0,0,0,8.49,11,37.61,37.61,0,0,0,6.75,4.51A36.81,36.81,0,0,0,449,554a44.73,44.73,0,0,0,19.27.75,54.12,54.12,0,0,0,19.9-7.75,76.52,76.52,0,0,0,17.25-15.27,120.7,120.7,0,0,0,13.07-19.06c3.65-6.53,6.61-13.16,10.07-19.14s7.53-11.19,11.07-16.18,6.85-9.65,9.78-14c5.85-8.62,10.34-15.77,13.27-20.81,1.47-2.51,2.56-4.5,3.28-5.85.36-.65.63-1.16.83-1.54A4,4,0,0,1,567.07,434.7Z"/><path class="cls-2" d="M424.07,502.88c.07.11-.73.56-1.68,1.62a8.36,8.36,0,0,0-.94,10.16c.74,1.21,1.44,1.8,1.36,1.89s-.88-.39-1.78-1.61a8.14,8.14,0,0,1,1-10.8A4.21,4.21,0,0,1,424.07,502.88Z"/><path class="cls-2" d="M433.58,518.53a4.53,4.53,0,0,1,.81.19c.26.07.58.18,1,.27l1.34.24a19.17,19.17,0,0,0,8.53-.79,31.49,31.49,0,0,0,11-6.45c3.62-3.21,6.88-7.48,10.28-11.94s6.82-8.7,10.6-11.85c1.88-1.58,3.72-3,5.25-4.47a14.59,14.59,0,0,0,3.45-4.76,8.64,8.64,0,0,0-.79-8.14A6.43,6.43,0,0,0,482.5,469a3.58,3.58,0,0,1,.8.23,5.51,5.51,0,0,1,1.91,1.46,8.86,8.86,0,0,1,1.05,8.5,15.08,15.08,0,0,1-3.51,5c-1.55,1.55-3.39,3-5.24,4.55a74.86,74.86,0,0,0-10.46,11.78c-3.4,4.47-6.7,8.76-10.42,12a31.19,31.19,0,0,1-11.26,6.44,18.59,18.59,0,0,1-8.72.59l-1.35-.32c-.38-.11-.7-.24-.95-.33A3.12,3.12,0,0,1,433.58,518.53Z"/><path class="cls-2" d="M530,363.11a5.28,5.28,0,0,1-.58.84l-1.77,2.29c-1.57,2-3.73,4.89-6.37,8.53a279.89,279.89,0,0,0-18.4,29.9c-6.5,12.08-11.89,23.3-16,31.3-2.05,4-3.73,7.24-4.95,9.45l-1.4,2.53a5,5,0,0,1-.53.86,4.26,4.26,0,0,1,.4-.93c.33-.65.75-1.52,1.28-2.59l4.75-9.55c4-8.06,9.31-19.3,15.83-31.42a252.11,252.11,0,0,1,18.62-29.85c2.69-3.61,4.92-6.49,6.57-8.4l1.87-2.22A5.47,5.47,0,0,1,530,363.11Z"/><g class="cls-10"><path d="M422.36,516.15c6.73,3.64,14.11,3.26,21.62,1.78a33.53,33.53,0,0,0,19.3-11.55c-1.3,6.55-4.11,13-8.89,17.63s-11.71,7.39-18.28,6.18-13.21-7.38-13.75-14"/></g><g class="cls-10"><path d="M486,476.34a29.67,29.67,0,0,1,4.1,22.24c5.69-8.73,7-19.77,5.5-30.07s-5.72-20-10.38-29.34c0,0-5.15,8.68-5.19,9.64-.25,5,1.59,14.46,2.56,19.39a10.79,10.79,0,0,1,3.14,9.73"/></g><g class="cls-10"><path d="M445.16,552.24c13.7,10.68,34,11.19,49,2.41,14.44-8.46,23.34-23.68,31.59-38.25,12.78-22.54,28.38-50.41,37.51-74.66,0,0-25.6,34.91-33.31,50a250,250,0,0,1-17.45,29.4c-14.41,21.21-40.48,33.91-66.06,32.18"/></g><path class="cls-2" d="M417.64,579a2.06,2.06,0,0,1,0-.43c0-.34,0-.75,0-1.26.05-1.17.11-2.77.18-4.78.19-4.2.46-10.08.79-17.16v.1c-2.48-8.28-5.38-18.31-8.38-29.16-4-14.37-7.33-27.45-9.58-37-1.13-4.75-2-8.6-2.56-11.28-.26-1.29-.47-2.31-.63-3.08a7.69,7.69,0,0,1-.17-1.09,6,6,0,0,1,.31,1.05c.19.77.45,1.78.76,3.06.68,2.72,1.62,6.54,2.78,11.22,2.38,9.47,5.81,22.52,9.79,36.89,3,10.84,5.84,20.89,8.25,29.18v.1c-.43,7.07-.79,13-1,17.15-.14,2-.25,3.6-.34,4.77,0,.5-.08.92-.11,1.25A1.4,1.4,0,0,1,417.64,579Z"/><path class="cls-2" d="M563.37,360.28c0,.11-1.49-.4-3.89-1A45.94,45.94,0,0,0,550,358a45.31,45.31,0,0,0-9.57.75c-2.43.44-3.9.87-3.94.76a3.25,3.25,0,0,1,1-.44,26.33,26.33,0,0,1,2.83-.82,37.68,37.68,0,0,1,19.32.58,24,24,0,0,1,2.78,1A3.32,3.32,0,0,1,563.37,360.28Z"/><path class="cls-2" d="M517.23,334.85a3.64,3.64,0,0,1-.37.71l-1.17,2c-1,1.71-2.58,4.16-4.52,7.15-3.9,6-9.49,14.13-16.09,22.8-5.31,7-10.46,13.27-14.67,18.18l-.3.35-.19-.41-4.86-10.67-1.3-3a5.13,5.13,0,0,1-.41-1.07,5.51,5.51,0,0,1,.56,1c.37.75.85,1.71,1.45,2.9l5.09,10.56-.49-.06c4.15-5,9.24-11.26,14.55-18.24,6.59-8.66,12.23-16.75,16.24-22.65l4.7-7,1.29-1.9A3.69,3.69,0,0,1,517.23,334.85Z"/><path class="cls-2" d="M550.76,557.29c-.2,0,.44-7.18,1.41-16s1.93-15.94,2.13-15.92-.44,7.18-1.41,16S551,557.31,550.76,557.29Z"/><path class="cls-2" d="M450.92,555.41c.19,0,.93,5.36,1.64,12s1.13,12.08.93,12.1-.93-5.36-1.64-12S450.72,555.43,450.92,555.41Z"/><path class="cls-11" d="M524.6,397.85a1.76,1.76,0,0,0-2.68-1.06l-.09.08a1.67,1.67,0,1,0,2.77,1Z"/><path class="cls-11" d="M510.21,362.79a1.76,1.76,0,0,0-2.67-1.06l-.1.08a1.67,1.67,0,1,0,2.77,1Z"/><path class="cls-11" d="M477.2,391a1.76,1.76,0,0,0-2.67-1.06l-.1.08a1.67,1.67,0,1,0,2.77,1Z"/><path class="cls-11" d="M441.52,376.85a1.77,1.77,0,0,0-2.68-1.07l-.09.08a1.68,1.68,0,1,0,2.77,1Z"/><path class="cls-11" d="M435.2,362.87a1.76,1.76,0,0,0-2.67-1.06l-.09.08a1.67,1.67,0,1,0,2.76,1Z"/><path class="cls-11" d="M437.94,346.73a1.76,1.76,0,0,0-2.67-1.07l-.09.08a1.67,1.67,0,1,0,2.76,1Z"/><path class="cls-11" d="M418.18,368.94a1.76,1.76,0,0,0-2.67-1.07l-.1.08a1.67,1.67,0,1,0,2.77,1Z"/><path class="cls-11" d="M464,375.34a1.76,1.76,0,0,0-2.67-1.06l-.1.07a1.67,1.67,0,1,0,2.77,1Z"/><path class="cls-11" d="M425.2,404.12a1.76,1.76,0,0,0-2.67-1.06l-.09.08a1.67,1.67,0,1,0,2.76,1Z"/><path class="cls-11" d="M389.72,486.92a1.76,1.76,0,0,0-2.67-1.06l-.09.08a1.67,1.67,0,1,0,2.76,1Z"/><path class="cls-11" d="M402.38,439.17a1.76,1.76,0,0,0-2.67-1.06l-.09.08a1.67,1.67,0,1,0,2.76,1Z"/><path class="cls-11" d="M495.69,355.32a1.76,1.76,0,0,0-2.67-1.06l-.1.07a1.67,1.67,0,1,0,2.77,1Z"/><path class="cls-11" d="M540.22,450.4a1.76,1.76,0,0,0-2.67-1.06l-.1.08a1.67,1.67,0,1,0,2.77,1Z"/><path class="cls-11" d="M557.57,368.58a1.76,1.76,0,0,0-2.67-1.07l-.09.08a1.67,1.67,0,1,0,2.76,1Z"/><path class="cls-11" d="M550.76,422.16a1.76,1.76,0,0,0-2.67-1.06l-.1.08a1.67,1.67,0,1,0,2.77,1Z"/><path class="cls-11" d="M511.85,460.86a1.77,1.77,0,0,0-2.68-1.07l-.09.08a1.67,1.67,0,1,0,2.77,1Z"/><path class="cls-11" d="M513.49,428.65a1.76,1.76,0,0,0-2.68-1.06l-.09.07a1.68,1.68,0,1,0,2.77,1Z"/><path class="cls-11" d="M537,368.86a1.76,1.76,0,0,0-2.67-1.07l-.09.08a1.67,1.67,0,1,0,2.76,1Z"/><path class="cls-11" d="M505.36,337.65a1.76,1.76,0,0,0-2.67-1.07l-.1.08a1.67,1.67,0,1,0,2.77,1Z"/><path class="cls-11" d="M504.21,388a1.76,1.76,0,0,0-2.67-1.07l-.09.08a1.67,1.67,0,1,0,2.76,1Z"/><path class="cls-11" d="M463.87,541.43a1.77,1.77,0,0,0-2.68-1.07l-.09.08a1.67,1.67,0,1,0,2.77,1Z"/><path class="cls-11" d="M417.59,516.19a1.76,1.76,0,0,0-2.68-1.06l-.09.07a1.67,1.67,0,1,0,2.77,1Z"/><path class="cls-11" d="M380.17,528.56a1.76,1.76,0,0,0-2.68-1.06l-.09.07a1.68,1.68,0,1,0,2.77,1Z"/><path class="cls-11" d="M376.16,549.87a1.76,1.76,0,0,0-2.67-1.06l-.09.07a1.67,1.67,0,1,0,2.76,1Z"/><path class="cls-11" d="M411.25,557a1.76,1.76,0,0,0-2.68-1.06l-.09.07a1.68,1.68,0,1,0,2.77,1Z"/><path class="cls-11" d="M399.52,509.28a1.77,1.77,0,0,0-2.68-1.06l-.09.08a1.67,1.67,0,1,0,2.77,1Z"/><path class="cls-11" d="M442.56,521.41a1.76,1.76,0,0,0-2.67-1.06l-.1.07a1.67,1.67,0,1,0,2.77,1Z"/><path class="cls-11" d="M544.88,509.2a1.76,1.76,0,0,0-2.67-1.06l-.09.08a1.67,1.67,0,1,0,2.76,1Z"/><path class="cls-11" d="M481.57,569.87a1.76,1.76,0,0,0-2.67-1.07l-.1.08a1.67,1.67,0,1,0,2.77,1Z"/><path class="cls-11" d="M508.57,536.1A1.76,1.76,0,0,0,505.9,535l-.09.08a1.67,1.67,0,1,0,2.76,1Z"/><path class="cls-11" d="M524.61,563.56a1.76,1.76,0,0,0-2.67-1.06l-.09.08a1.67,1.67,0,1,0,2.76,1Z"/><path class="cls-11" d="M480,419.73a1.77,1.77,0,0,0-2.68-1.06l-.09.08a1.67,1.67,0,1,0,2.77,1Z"/><path class="cls-11" d="M516.3,489.85a1.76,1.76,0,0,0-2.67-1.07l-.1.08a1.67,1.67,0,1,0,2.77,1Z"/><path class="cls-11" d="M504.52,516.41a1.76,1.76,0,0,0-2.67-1.07l-.09.08a1.67,1.67,0,1,0,2.76,1Z"/><path class="cls-11" d="M543.25,537.74a1.77,1.77,0,0,0-2.68-1.07l-.09.08a1.67,1.67,0,1,0,2.77,1Z"/><path class="cls-11" d="M437.29,568.53a1.76,1.76,0,0,0-2.68-1.06l-.09.08a1.67,1.67,0,1,0,2.77,1Z"/><path class="cls-11" d="M349,560.48a1.77,1.77,0,0,0-2.68-1.07l-.09.08a1.67,1.67,0,1,0,2.77,1Z"/><path class="cls-11" d="M426.75,546a1.77,1.77,0,0,0-2.68-1.06L424,545a1.67,1.67,0,1,0,2.77,1Z"/><path class="cls-11" d="M352.27,530.2a1.76,1.76,0,0,0-2.67-1.07l-.1.08a1.67,1.67,0,1,0,2.77,1Z"/><path class="cls-11" d="M476.71,480.13a1.76,1.76,0,0,0-2.67-1.07l-.1.08a1.67,1.67,0,1,0,2.77,1Z"/><path class="cls-11" d="M450.67,404.12a1.77,1.77,0,0,0-2.68-1.06l-.09.08a1.67,1.67,0,1,0,2.77,1Z"/><path class="cls-11" d="M444.16,470a1.76,1.76,0,0,0-2.67-1.06l-.1.08a1.67,1.67,0,1,0,2.77,1Z"/><path class="cls-11" d="M433.57,448.53a1.77,1.77,0,0,0-2.68-1.06l-.09.08a1.67,1.67,0,1,0,2.77,1Z"/><path class="cls-11" d="M480.42,516.11a1.76,1.76,0,0,0-2.67-1.06l-.09.07a1.67,1.67,0,1,0,2.76,1Z"/><path class="cls-11" d="M447.39,502.85a1.76,1.76,0,0,0-2.67-1.06l-.09.07a1.67,1.67,0,1,0,2.76,1Z"/><path class="cls-11" d="M461.53,430.07a1.76,1.76,0,0,0-2.67-1.06l-.09.08a1.67,1.67,0,1,0,2.76,1Z"/><path class="cls-11" d="M411.25,481.6a1.77,1.77,0,0,0-2.68-1.06l-.09.08a1.67,1.67,0,1,0,2.77,1Z"/><path class="cls-11" d="M488.86,458a1.76,1.76,0,0,0-2.67-1.06l-.09.08a1.67,1.67,0,1,0,2.76,1Z"/><path class="cls-11" d="M560.85,396.21a1.77,1.77,0,0,0-2.68-1.06l-.09.08a1.67,1.67,0,1,0,2.77,1Z"/><path class="cls-11" d="M531.62,349.46A1.76,1.76,0,0,0,529,348.4l-.1.08a1.67,1.67,0,1,0,2.77,1Z"/><path class="cls-11" d="M475,355.32a1.76,1.76,0,0,0-2.67-1.06l-.1.07a1.67,1.67,0,1,0,2.77,1Z"/><path class="cls-2" d="M417.19,187.5c-10.86,6.92-15.2,21.41-13.13,30,1.05,4.31,3,8.66,2.15,13-.74,3.77-3.45,6.78-5.47,10a30.24,30.24,0,0,0,37.79,43.67"/><path class="cls-7" d="M410.76,244.05c-26.43-58.14,36.44-87.34,70.75-77.65,32.24,9.1,46,25.15,51.29,46.71s5.06,44.94-3.4,65.48c-4.17,10.13-11.67,20.43-22.56,21.69"/><path class="cls-8" d="M441.73,386c-.46-27.77-.78-65.92-.79-65.76,0,0-23.87-4-28.82-35.12-2.46-15.49-1.68-40.89-.37-61.65,1.17-18.69,13.55-41.62,32.17-39.65l58.15,14.7a11,11,0,0,1,9.8,11.11h0L508.08,329.9"/><path class="cls-2" d="M422.14,242.5a4,4,0,0,0,3.78,4.05,3.79,3.79,0,0,0,4.14-3.53,4,4,0,0,0-3.78-4.05A3.8,3.8,0,0,0,422.14,242.5Z"/><path class="cls-2" d="M463.42,242.5a4,4,0,0,0,3.78,4.05,3.79,3.79,0,0,0,4.13-3.53,4,4,0,0,0-3.77-4.05A3.79,3.79,0,0,0,463.42,242.5Z"/><path class="cls-2" d="M417.84,235.25c.48.53,3.58-1.61,7.87-1.45s7.38,2.41,7.86,1.9c.24-.23-.24-1.19-1.57-2.23a10.94,10.94,0,0,0-6.27-2.16,10.46,10.46,0,0,0-6.29,1.8C418.08,234.08,417.61,235,417.84,235.25Z"/><path class="cls-2" d="M458.64,236.27c.5.52,3.52-1.73,7.81-1.74s7.46,2.13,7.93,1.6c.22-.23-.28-1.17-1.66-2.17a11,11,0,0,0-6.35-1.92,10.42,10.42,0,0,0-6.21,2C458.84,235.1,458.4,236,458.64,236.27Z"/><path class="cls-2" d="M443.91,269.38c0-.25-2.65-.71-7-1.26-1.1-.12-2.14-.34-2.32-1.08s.2-2,.73-3.26q1.55-4,3.25-8.36c4.5-11.9,7.77-21.68,7.29-21.86s-4.53,9.32-9,21.22q-1.62,4.41-3.11,8.41c-.41,1.25-1.13,2.67-.57,4.31a2.77,2.77,0,0,0,1.81,1.61,8,8,0,0,0,1.86.26C441.19,269.6,443.89,269.62,443.91,269.38Z"/><path class="cls-9" d="M440.94,320.25a79.25,79.25,0,0,0,41.72-11.13s-10.54,21.67-41.72,18.75Z"/><path class="cls-2" d="M457.58,230.16c.42,1.17,4.71.61,9.76,1.22s9.12,2,9.79.94c.3-.51-.41-1.6-2.06-2.74a17.07,17.07,0,0,0-14.89-1.64C458.33,228.69,457.4,229.6,457.58,230.16Z"/><path class="cls-2" d="M418.84,224.44c.75,1,3.71,0,7.27-.08s6.58.65,7.28-.37c.3-.49-.18-1.47-1.49-2.4a10.53,10.53,0,0,0-11.73.37C418.92,223,418.5,224,418.84,224.44Z"/><path class="cls-8" d="M506.53,250.65c.45-.22,16.67-7.39,16.86,11.26s-18.57,15-18.61,14.45S506.53,250.65,506.53,250.65Z"/><path class="cls-9" d="M510.41,269.24c.08-.06.32.23.87.47a3.26,3.26,0,0,0,2.43,0c2-.75,3.59-3.89,3.65-7.25a10.71,10.71,0,0,0-1-4.65,3.73,3.73,0,0,0-2.47-2.46,1.64,1.64,0,0,0-1.9.91c-.25.52-.13.89-.23.92s-.4-.3-.26-1.08a2.08,2.08,0,0,1,.73-1.17,2.48,2.48,0,0,1,1.79-.5c1.44.09,2.74,1.4,3.42,2.86a11,11,0,0,1,1.18,5.19c-.08,3.76-2,7.29-4.66,8.1a3.5,3.5,0,0,1-3-.46C510.44,269.69,510.34,269.28,510.41,269.24Z"/><path class="cls-7" d="M437.72,174.64c-10.38,5.36-14.65,26.58-10.36,37.45s15.86,16.16,27.27,18.66,22.59,2.8,33.85-.33c.78,7.56,5.31,15.33,12.66,17.33,9.71,2.64,19.51-6.26,21.67-16.1s-1.08-20-4.28-29.52"/><path class="cls-2" d="M520,242.31a7.39,7.39,0,0,1-1.44,1.35,47.08,47.08,0,0,1-4.3,3.25,26.33,26.33,0,0,1-7.25,3.51,15.7,15.7,0,0,1-9.9-.15,15.35,15.35,0,0,1-7.49-6.47,20.93,20.93,0,0,1-2.68-7.62,26.92,26.92,0,0,1-.29-5.4,6.08,6.08,0,0,1,.24-2c.2,0,0,2.83.8,7.23a21,21,0,0,0,2.78,7.22,14.66,14.66,0,0,0,7,6,15.08,15.08,0,0,0,9.24.19,27.82,27.82,0,0,0,7.11-3.19C517.66,243.88,519.89,242.15,520,242.31Z"/><path class="cls-9" d="M445.18,281.35a17.86,17.86,0,0,0,2.32,4.54,6,6,0,0,0,4.29,2.49,5.38,5.38,0,0,0,4.57-2.49,8.61,8.61,0,0,0,1.28-5.21c-.07-1.64-.82-3.6-2.46-3.79a4.2,4.2,0,0,0-2,.43l-8.57,3.48"/><path class="cls-2" d="M448.61,288.41c0-.27,1.92.49,4.57-.57a6.52,6.52,0,0,0,3.46-3.14,6.91,6.91,0,0,0,.11-5.61,6,6,0,0,0-.75-1.28c-.34-.36-.27-.34-.65-.29s-.91.36-1.37.54l-1.41.58c-1.83.74-3.5,1.39-4.9,1.91-2.81,1.05-4.59,1.6-4.67,1.41s1.55-1.1,4.25-2.4c1.35-.66,3-1.41,4.77-2.22l1.39-.62a15.79,15.79,0,0,1,1.56-.65,2.09,2.09,0,0,1,1.28,0,2.3,2.3,0,0,1,.94.75,7.81,7.81,0,0,1,1,1.62,8.05,8.05,0,0,1-.27,6.86,7.3,7.3,0,0,1-4.35,3.52,6.87,6.87,0,0,1-3.72.15C449,288.78,448.57,288.49,448.61,288.41Z"/><path class="cls-6" d="M527.44,237.88c-1.91-.13-17.31,1.86-16.1,30.5,1.13,26.74,19.9,20.85,25.88,10.78C542.89,269.62,546.17,239.2,527.44,237.88Z"/><path class="cls-4" d="M537,241.27a4.12,4.12,0,0,1-.07-.76c0-.55,0-1.28-.09-2.18,0-2-.13-4.73-.23-8.15-.14-7-.33-16.8-.56-28.08l.35.34h-8l.36-.37c.06,2.13.12,4.38.18,6.66.27,10.75.52,20.76.72,29.13v.25l-.24,0a14.48,14.48,0,0,0-8.18,5.27,19.23,19.23,0,0,0-3.26,6.91,29.16,29.16,0,0,0-.85,4.89c0,.57-.07,1-.09,1.3a3.09,3.09,0,0,1,0,.45,1.22,1.22,0,0,1,0-.45q0-.45,0-1.32a25.32,25.32,0,0,1,.69-5,19.24,19.24,0,0,1,3.21-7.12,14.86,14.86,0,0,1,8.43-5.55l-.23.3c-.24-8.38-.53-18.38-.84-29.13-.06-2.28-.12-4.53-.17-6.66v-.37h8.65v.34c.12,11.28.23,21,.31,28.08,0,3.43,0,6.18,0,8.16,0,.9,0,1.62,0,2.18A3.44,3.44,0,0,1,537,241.27Z"/><path class="cls-6" d="M527.44,202.09s-8.06-18.85-27.25-28.15a114.09,114.09,0,0,0-23-8.53s11.2-2.66,29.32,5.41c8.24,3.66,16.53,8.43,22,15.58,3.48,4.54,7.83,13.42,7.83,15.69Z"/><path class="cls-11" d="M477.75,430.35a3,3,0,0,1,.34-.37c.23-.25.6-.59,1-1.08a50.07,50.07,0,0,0,3.73-4.42,72.47,72.47,0,0,0,5-7.72c1.8-3.13,3.66-6.82,5.7-10.94,4.07-8.25,8.78-18.24,13.65-29.7,2.44-5.72,4.92-11.81,7.39-18.21.62-1.61,1.23-3.23,1.86-4.86a27.39,27.39,0,0,1,2.22-4.89,10,10,0,0,1,4-3.81,5.67,5.67,0,0,1,2.81-.72,2.93,2.93,0,0,1,1.46.54,3,3,0,0,1,.93,1.24l.05.09,0,.11a4.7,4.7,0,0,1-.74,1.84,2.85,2.85,0,0,1-1.72,1.12,6.12,6.12,0,0,1-3.85-.7,6.05,6.05,0,0,1-3.4-6.69,5.39,5.39,0,0,1,2.23-3.37,6.36,6.36,0,0,1,3.93-1.11,4.32,4.32,0,0,1,3.62,2,2.09,2.09,0,0,1-.15,2.25,4,4,0,0,1-1.75,1.28,5.76,5.76,0,0,1-6.61-1.87,4.89,4.89,0,0,1-.89-3.48,5.83,5.83,0,0,1,1.43-3.25,5,5,0,0,1,3.11-1.72,4,4,0,0,1,3.35,1.15,2.48,2.48,0,0,1,.66,1.76,2.38,2.38,0,0,1-.79,1.7,3.92,3.92,0,0,1-3.38.91,4.23,4.23,0,0,1-2.68-2.16,8.76,8.76,0,0,1-1-3.18,11.25,11.25,0,0,1,.73-6.43,4.8,4.8,0,0,1,2.35-2.33,4.38,4.38,0,0,1,3.28.11,3.11,3.11,0,0,1,2,2.55,2.86,2.86,0,0,1-1.75,2.7,3.53,3.53,0,0,1-3.18-.05,4.37,4.37,0,0,1-2-2.42,6,6,0,0,1-.18-3,13.29,13.29,0,0,1,.63-2.86,5.18,5.18,0,0,1,1.68-2.44,6.72,6.72,0,0,1,2.59-1.29,2.89,2.89,0,0,1,1.52,0,3.4,3.4,0,0,1,1.27.8,3.82,3.82,0,0,1,.81,1.23,2,2,0,0,1,0,1.52,2.47,2.47,0,0,1-2.46,1.37,4.6,4.6,0,0,1-2.59-.87,7,7,0,0,1-2.77-4.34,7.36,7.36,0,0,1,.58-4.92,5.56,5.56,0,0,1,1.55-1.89,5,5,0,0,1,2.2-1,3.56,3.56,0,0,1,2.35.33,2.44,2.44,0,0,1,1.26,1.95,3.44,3.44,0,0,1-2.6,3.31,3.8,3.8,0,0,1-3.75-1.41,6.06,6.06,0,0,1-1.41-3.53c-.12-2.51.87-4.62,1.35-6.6s1.07-3.8,1.54-5.43c.92-3.24,1.65-5.76,2.15-7.51l.57-1.95c.14-.43.22-.65.22-.65s0,.23-.15.68-.29,1.12-.5,2l-2,7.54q-.67,2.46-1.48,5.45c-.47,2-1.42,4.12-1.28,6.48a5.63,5.63,0,0,0,1.34,3.28,3.34,3.34,0,0,0,3.31,1.25,3,3,0,0,0,2.23-2.83,2,2,0,0,0-1-1.56,3.05,3.05,0,0,0-2-.26,4.56,4.56,0,0,0-2,.86,5.26,5.26,0,0,0-1.39,1.73,6.82,6.82,0,0,0-.51,4.55,6.46,6.46,0,0,0,2.55,4,4,4,0,0,0,2.27.76,1.88,1.88,0,0,0,1.91-1,2.16,2.16,0,0,0-.73-2.1,2.73,2.73,0,0,0-1-.65,2.25,2.25,0,0,0-1.2,0,5.2,5.2,0,0,0-3.81,3.34,12.88,12.88,0,0,0-.6,2.73,5.31,5.31,0,0,0,.16,2.72,3.65,3.65,0,0,0,1.67,2.06,2.86,2.86,0,0,0,2.58,0A2.18,2.18,0,0,0,527,326a2.43,2.43,0,0,0-1.62-2,3.72,3.72,0,0,0-2.76-.1,4.18,4.18,0,0,0-2,2,10.56,10.56,0,0,0-.65,6,8.37,8.37,0,0,0,.92,2.93,3.55,3.55,0,0,0,2.23,1.82,3.2,3.2,0,0,0,2.74-.73,1.72,1.72,0,0,0,.09-2.47,3.28,3.28,0,0,0-2.75-.92,4.21,4.21,0,0,0-2.64,1.48,4.76,4.76,0,0,0-.5,5.83,5,5,0,0,0,5.76,1.63,3.31,3.31,0,0,0,1.44-1,1.35,1.35,0,0,0,.09-1.49,3.65,3.65,0,0,0-3-1.62,5.19,5.19,0,0,0-5.42,3.92,5.36,5.36,0,0,0,3,5.9,5.5,5.5,0,0,0,3.38.66,2.72,2.72,0,0,0,1.94-2.41l0,.2a2,2,0,0,0-1.8-1.35A4.91,4.91,0,0,0,523,345a9.47,9.47,0,0,0-3.74,3.55,27.71,27.71,0,0,0-2.17,4.77l-1.87,4.87c-2.49,6.4-5,12.49-7.46,18.21-4.91,11.45-9.67,21.43-13.8,29.66-2.06,4.11-4,7.79-5.8,10.92a69.25,69.25,0,0,1-5.14,7.69A36.73,36.73,0,0,1,477.75,430.35Z"/><path class="cls-4" d="M544.16,224.46a18.42,18.42,0,0,0-1.26-5.1,20,20,0,0,0-9.9-9.92,26.71,26.71,0,0,0-9.55-2.34,45.06,45.06,0,0,0-11.32.87c-7.9,1.45-16.21,4.87-25.51,6.27a51.6,51.6,0,0,1-13.66,0,54.83,54.83,0,0,1-12.28-3.33,54.07,54.07,0,0,1-17.87-11.81,48.29,48.29,0,0,1-8.67-11.58,15.85,15.85,0,0,1-1-2l-.67-1.53-.4-.94a1.17,1.17,0,0,1-.11-.33s.07.09.18.3l.46.91.73,1.49a15.35,15.35,0,0,0,1.07,2,50,50,0,0,0,8.77,11.36,54.38,54.38,0,0,0,17.77,11.56,55.23,55.23,0,0,0,12.13,3.25,51.82,51.82,0,0,0,13.46,0c9.18-1.38,17.49-4.77,25.49-6.21a45.21,45.21,0,0,1,11.49-.81,26.78,26.78,0,0,1,9.72,2.47,20.1,20.1,0,0,1,9.94,10.27,14.92,14.92,0,0,1,1,3.83c0,.42,0,.75,0,1A1.88,1.88,0,0,1,544.16,224.46Z"/><path class="cls-4" d="M523.34,194.73a6.27,6.27,0,0,1-1,.17c-.65.09-1.61.23-2.84.45-2.46.41-6,1.19-10.31,2.27a110.52,110.52,0,0,1-15.43,3,77.83,77.83,0,0,1-19.24-.42,81.49,81.49,0,0,1-18.58-5A78.88,78.88,0,0,1,442,188c-1.85-1.26-3.52-2.42-4.91-3.52s-2.6-2.05-3.51-2.91l-2.1-2a4.5,4.5,0,0,1-.69-.72,4.94,4.94,0,0,1,.79.62l2.18,1.86c.94.83,2.19,1.71,3.57,2.81s3.09,2.19,4.94,3.41a83.29,83.29,0,0,0,32.37,12,79,79,0,0,0,19.07.47,113.62,113.62,0,0,0,15.37-2.83c4.35-1,7.91-1.72,10.39-2.05,1.24-.17,2.21-.27,2.86-.31A5.14,5.14,0,0,1,523.34,194.73Z"/><path class="cls-2" d="M525.39,287.16a1.71,1.71,0,0,1-.54-.16,8.6,8.6,0,0,1-1.43-.74,12.58,12.58,0,0,1-4-4.31,20.64,20.64,0,0,1-2.47-8.39,61.51,61.51,0,0,1,0-10.7,64.39,64.39,0,0,1,1.78-10.55,30.41,30.41,0,0,1,3.07-8.19,12.62,12.62,0,0,1,4.07-4.29,8.2,8.2,0,0,1,1.43-.72,1.52,1.52,0,0,1,.55-.15c0,.06-.71.32-1.83,1.11a13.27,13.27,0,0,0-3.78,4.3,31.37,31.37,0,0,0-2.87,8.1,69.35,69.35,0,0,0-1.7,10.45,64.45,64.45,0,0,0,0,10.57,20.74,20.74,0,0,0,2.25,8.21,13.08,13.08,0,0,0,3.76,4.33C524.69,286.83,525.42,287.09,525.39,287.16Z"/><rect class="cls-6" x="445.94" y="284.19" width="22.29" height="8.4" rx="3.93" transform="translate(-46.98 93.42) rotate(-11.1)"/><path class="cls-6" d="M466.05,285l65.46-20.53a3.09,3.09,0,0,1,3.86,2h0a3.08,3.08,0,0,1-2.14,3.92L466.3,288.48Z"/><path class="cls-2" d="M514.43,276a13.93,13.93,0,0,1,2.17-.77l6-1.82c2.51-.78,5.6-1.59,8.86-2.66a6.06,6.06,0,0,0,2.14-1.32,3.27,3.27,0,0,0,.92-2.28,2,2,0,0,0-1.35-1.87,5,5,0,0,0-2.73.08l-19.63,6.31-6,1.85a15.82,15.82,0,0,1-2.23.59,13.86,13.86,0,0,1,2.14-.85l5.9-2.07c5-1.7,11.89-4.05,19.61-6.53a5.71,5.71,0,0,1,3.15-.06,2.71,2.71,0,0,1,1.82,2.54,4,4,0,0,1-1.14,2.77,6.74,6.74,0,0,1-2.39,1.46c-3.39,1.07-6.4,1.81-9,2.53l-6,1.6A14.81,14.81,0,0,1,514.43,276Z"/><path class="cls-7" d="M407.41,225.84c2.24,7.87-5.76,14.61-8.57,22.29-2.72,7.43-.41,15.75,2.94,22.91s7.76,14,9.48,21.68c4.23,19-13,39.55-9.7,58.77,1.19,7,4,14.31,6.45,21s2.28,12.77,0,19.5c-3.71,11-10,16.2-14.48,26.93-2.27,5.49-2.09,11.64-2,17.59s.07,12.13-2.57,17.45-8.7,9.44-14.44,7.9a21.17,21.17,0,0,0,25.28,4.81c7.55-4,11.77-12.2,15.38-19.95C432.7,409.16,442,406,441.47,364.58c0-2.67-.53-44.14-.53-44.14s-6.55-1.75-10.33-4.36c-19.54-13.48-20.25-37.52-20.09-56.15"/><path class="cls-8" d="M446.51,351.49v15.63s-12,61.31-15.63,95.38-4.22,43-4.22,43,8.63,13.46,26.66-9.38,21.24-26.45,28.45-26.85c0,0-8.81-95.78-8.41-99.38a14.54,14.54,0,0,1,3.2-6.82Z"/><path class="cls-8" d="M470.15,316.23s-19.64,26-21.24,29.65-2.4,5.61-2.4,5.61l30.05,11.62,29.26-32.06,10.82-28.45-3.21-33.66s-6.41-.4-7.61,5.21A42,42,0,0,0,505,285l-9-7.21-14.47-4.41s-3.4,5.61,2.21,8.41,7.21,2.81,7.21,2.81l5.05,8.81-2.21,9.88-10.23-9.59a5.86,5.86,0,0,0-7.46-.46l-6.61,4.8-6.19-2.77-12,10.57-4.81,4.41s3.2,6,9.62,3.2l6.41-2.8Z"/><path class="cls-9" d="M446.51,356.77a6.74,6.74,0,0,1,0-.84c0-.55.07-1.37.2-2.44a28,28,0,0,1,.75-3.93,17.38,17.38,0,0,1,2.11-5.05c4.49-6.9,11.57-16.5,20.39-28.43l.05.35-7.62-5.6.27,0-4,1.75a26.43,26.43,0,0,1-4.22,1.64,6.84,6.84,0,0,1-4.69-.53,8.7,8.7,0,0,1-3.53-3.36l-.12-.2.18-.17c5.17-4.85,10.92-9.76,16.82-15l.18-.16.21.12,5.33,3.15h-.35l6.24-4.11c1.08-.69,2.07-1.4,3.25-2.09a3.87,3.87,0,0,1,4,.35l12.17,10.28-.57.19c.66-3,1.37-6.19,2.1-9.43l0,.25-5.05-8.81.31.18a11.08,11.08,0,0,1-2.49-.67c-.79-.3-1.58-.63-2.36-1s-1.56-.72-2.34-1.11c-.39-.19-.78-.44-1.17-.67a6.86,6.86,0,0,1-1-.9,5.13,5.13,0,0,1-1.39-3.69,8.09,8.09,0,0,1,1.07-3.75l.13-.24.28.08,14.46,4.42.07,0,.05,0,9,7.21-.58.31a43,43,0,0,1,.77-10.67,6.45,6.45,0,0,1,2.92-4.44,9.29,9.29,0,0,1,5.1-1.29h.29l0,.3c1.12,12,2.19,23.24,3.17,33.66v.07l0,.07-10.87,28.43,0,.05,0,0L483.28,356l-6.16,6.65-1.61,1.72c-.36.38-.56.56-.56.56s.16-.21.51-.61l1.56-1.76,6.06-6.75,22.55-24.87,0,.08,10.76-28.48v.14c-1-10.42-2.09-21.69-3.25-33.66l.32.31a8.6,8.6,0,0,0-4.69,1.19,5.75,5.75,0,0,0-2.61,4,41.5,41.5,0,0,0-.74,10.47l0,.79-.62-.49-9-7.21.12.07-14.46-4.41.41-.16a7.37,7.37,0,0,0-1,3.39,4.38,4.38,0,0,0,1.2,3.19,6.36,6.36,0,0,0,.91.8c.37.21.7.43,1.09.62.77.38,1.54.76,2.31,1.1a20.49,20.49,0,0,0,4.56,1.58l.23,0,.08.15,5.05,8.82.06.12,0,.13c-.72,3.25-1.44,6.46-2.11,9.43l-.12.57-.45-.37q-6.18-5.23-12.12-10.26a3.2,3.2,0,0,0-3.3-.3c-1,.61-2.12,1.38-3.17,2.05l-6.25,4.1-.18.11-.18-.1-5.33-3.16.38,0c-5.91,5.22-11.66,10.12-16.84,14.95l.06-.37a8.08,8.08,0,0,0,3.26,3.12,6.26,6.26,0,0,0,4.31.5,26.52,26.52,0,0,0,4.12-1.59l4-1.73.14-.06.13.09,7.6,5.62.2.15-.15.21c-8.87,11.88-16,21.45-20.56,28.28a17.41,17.41,0,0,0-2.14,4.95,32.19,32.19,0,0,0-.81,3.9c-.15,1.06-.22,1.88-.27,2.43S446.51,356.77,446.51,356.77Z"/><path class="cls-9" d="M483.7,322.26c-.14,0,.39-2.13.61-5.54a12.55,12.55,0,0,0-.95-5.79,15.3,15.3,0,0,0-4.79-5.38A119.23,119.23,0,0,0,467.45,298l-3.52-2.08a6.4,6.4,0,0,1-1.27-.81,6,6,0,0,1,1.4.56c.87.42,2.13,1.05,3.64,1.89A89.32,89.32,0,0,1,479,305a15.33,15.33,0,0,1,4.95,5.66,12.45,12.45,0,0,1,.85,6.1,27.55,27.55,0,0,1-.67,4.06A5.56,5.56,0,0,1,483.7,322.26Z"/><path class="cls-9" d="M504.73,309.75a27.08,27.08,0,0,1,.51-3.6,54.81,54.81,0,0,0-.15-17.4,30.94,30.94,0,0,1-.57-3.59,13,13,0,0,1,1.07,3.5,42.68,42.68,0,0,1,.15,17.58A13.32,13.32,0,0,1,504.73,309.75Z"/><path class="cls-12" d="M454.08,17.31H569.66a26.16,26.16,0,0,1,26.16,26.16v59.61a26.16,26.16,0,0,1-26.16,26.16H494.08l-27.18,24v-24H454.08a26.16,26.16,0,0,1-26.16-26.16V43.47A26.16,26.16,0,0,1,454.08,17.31Z"/><path class="cls-6" d="M470.9,54.2h82a3.28,3.28,0,0,0,0-6.56h-82a3.28,3.28,0,1,0,0,6.56Z"/><path class="cls-6" d="M470.9,76.06h82a3.28,3.28,0,0,0,0-6.56h-82a3.28,3.28,0,1,0,0,6.56Z"/><path class="cls-6" d="M540.83,97.91h12a3.28,3.28,0,0,0,0-6.56h-12a3.28,3.28,0,0,0,0,6.56Z"/><path class="cls-6" d="M513.51,97.91h12a3.28,3.28,0,0,0,0-6.56h-12a3.28,3.28,0,1,0,0,6.56Z"/><path class="cls-6" d="M470.9,97.91h27.31a3.28,3.28,0,1,0,0-6.56H470.9a3.28,3.28,0,1,0,0,6.56Z"/><path class="cls-1" d="M247.62,126.48H336.1a15.76,15.76,0,0,1,15.75,15.76v51A15.74,15.74,0,0,1,337.25,209l18.24,29.9L307.41,209H247.62a15.75,15.75,0,0,1-15.75-15.75v-51A15.76,15.76,0,0,1,247.62,126.48Z"/><circle class="cls-6" cx="291.86" cy="155.37" r="10.47" transform="translate(-24.38 251.88) rotate(-45)"/><path class="cls-6" d="M267.1,190.6h49.52a15.88,15.88,0,0,0-15.87-15.87H283A15.88,15.88,0,0,0,267.1,190.6Z"/><path class="cls-6" d="M69.1,182.08a43.22,43.22,0,0,1-8.72-.89,2.16,2.16,0,0,1-1.68-2.55A2.2,2.2,0,0,1,61.26,177a38.94,38.94,0,0,0,13.57.37,2.18,2.18,0,0,1,2.46,1.82,2.15,2.15,0,0,1-1.82,2.46A43.43,43.43,0,0,1,69.1,182.08ZM88.73,177a2.16,2.16,0,0,1-1-4.06,38.32,38.32,0,0,0,10.53-8.56,2.16,2.16,0,1,1,3.28,2.82,42.87,42.87,0,0,1-11.71,9.53A2.25,2.25,0,0,1,88.73,177Zm-41.21-1.16a2.21,2.21,0,0,1-1.15-.33,42.76,42.76,0,0,1-11.16-10.17,2.16,2.16,0,1,1,3.42-2.64,38.72,38.72,0,0,0,10,9.15,2.16,2.16,0,0,1-1.15,4Zm59.62-20.23a2.21,2.21,0,0,1-.75-.14,2.17,2.17,0,0,1-1.28-2.78,38.13,38.13,0,0,0,2.39-13.36,2.17,2.17,0,0,1,4.33,0,42.59,42.59,0,0,1-2.66,14.86A2.18,2.18,0,0,1,107.14,155.64Zm-76.8-2.15A2.16,2.16,0,0,1,28.27,152a42.79,42.79,0,0,1-1.89-12.6c0-.8,0-1.6.07-2.39a2.21,2.21,0,0,1,2.28-2,2.16,2.16,0,0,1,2,2.28c0,.71-.06,1.43-.06,2.15a38.92,38.92,0,0,0,1.7,11.33,2.16,2.16,0,0,1-1.43,2.7A2,2,0,0,1,30.34,153.49Zm78.13-21.75a2.15,2.15,0,0,1-2.09-1.65,38.07,38.07,0,0,0-5.56-12.38,2.16,2.16,0,0,1,3.57-2.44,42.36,42.36,0,0,1,6.18,13.78,2.16,2.16,0,0,1-1.57,2.62A2,2,0,0,1,108.47,131.74ZM31.91,125.3a2.16,2.16,0,0,1-2-3,42.57,42.57,0,0,1,8.4-12.55,2.16,2.16,0,0,1,3.11,3A38.33,38.33,0,0,0,33.89,124,2.14,2.14,0,0,1,31.91,125.3Zm60.64-16.88a2.09,2.09,0,0,1-1.25-.4A38,38,0,0,0,79,102.25a2.16,2.16,0,1,1,1.11-4.18,42.33,42.33,0,0,1,13.67,6.43,2.16,2.16,0,0,1-1.26,3.92ZM51.49,105a2.16,2.16,0,0,1-.94-4.11A42.5,42.5,0,0,1,65.1,96.82a2.19,2.19,0,0,1,2.35,2,2.16,2.16,0,0,1-2,2.35,38.31,38.31,0,0,0-13.07,3.63A2.15,2.15,0,0,1,51.49,105Z"/><path class="cls-6" d="M69.1,118.82c-15.65,0-28.34,8.39-28.34,18.74v.05c0,2.7,2.14,4.56,4.13,3.7l7.44-3.17c1.8-.76,2.66-3.37,1.86-5.57l-.92-2.49a112.62,112.62,0,0,0,31.56,0l-.93,3.2c-.58,2,.18,4.29,1.72,5.13l7.36,4c1.79,1,3.88-.34,4.29-2.78a12.12,12.12,0,0,0,.18-2.09C97.45,127.21,84.76,118.82,69.1,118.82Z"/><path class="cls-1" d="M88.74,159.9H49.45l5.82-18.24a8.25,8.25,0,0,1,7.86-5.74H75.06a8.24,8.24,0,0,1,7.85,5.74Z"/><path class="cls-6" d="M255.32,85.27a43.17,43.17,0,0,1-8.73-.89,2.17,2.17,0,0,1,.88-4.24,38.71,38.71,0,0,0,13.57.38,2.16,2.16,0,0,1,.64,4.28A44.6,44.6,0,0,1,255.32,85.27Zm19.63-5a2.16,2.16,0,0,1-1.06-4,38.58,38.58,0,0,0,10.54-8.57,2.16,2.16,0,1,1,3.27,2.82A42.75,42.75,0,0,1,276,80,2.18,2.18,0,0,1,275,80.22Zm-41.21-1.16a2.19,2.19,0,0,1-1.15-.33,42.93,42.93,0,0,1-11.16-10.17,2.16,2.16,0,0,1,3.43-2.64,38.69,38.69,0,0,0,10,9.15,2.16,2.16,0,0,1-1.15,4Zm59.62-20.23a2.27,2.27,0,0,1-.76-.14,2.16,2.16,0,0,1-1.27-2.78,38.36,38.36,0,0,0,2.39-13.36,2.16,2.16,0,0,1,4.32,0,42.46,42.46,0,0,1-2.66,14.87A2.16,2.16,0,0,1,293.36,58.83Zm-76.81-2.16a2.17,2.17,0,0,1-2.07-1.52,42.88,42.88,0,0,1-1.88-12.6c0-.8,0-1.6.06-2.39a2.28,2.28,0,0,1,2.28-2,2.17,2.17,0,0,1,2,2.28c0,.71-.06,1.43-.06,2.15a38.56,38.56,0,0,0,1.69,11.32,2.15,2.15,0,0,1-1.43,2.7A2,2,0,0,1,216.55,56.67ZM294.7,34.93a2.17,2.17,0,0,1-2.1-1.64,38.17,38.17,0,0,0-5.55-12.38,2.16,2.16,0,1,1,3.56-2.44,42.22,42.22,0,0,1,6.18,13.77,2.15,2.15,0,0,1-1.57,2.62A1.91,1.91,0,0,1,294.7,34.93Zm-76.57-6.44a2.16,2.16,0,0,1-2-3,42.64,42.64,0,0,1,8.4-12.55,2.16,2.16,0,0,1,3.11,3,38.41,38.41,0,0,0-7.55,11.28A2.15,2.15,0,0,1,218.13,28.49Zm60.65-16.87a2.14,2.14,0,0,1-1.25-.4,37.87,37.87,0,0,0-12.28-5.77,2.16,2.16,0,0,1,1.11-4.18A42.22,42.22,0,0,1,280,7.7a2.16,2.16,0,0,1-1.25,3.92ZM237.71,8.16a2.16,2.16,0,0,1-.94-4.11,42.39,42.39,0,0,1,14.55-4,2.16,2.16,0,1,1,.4,4.31,38.07,38.07,0,0,0-13.07,3.62A2.09,2.09,0,0,1,237.71,8.16Z"/><rect class="cls-1" x="229.84" y="34.85" width="50.28" height="28.51"/><path class="cls-6" d="M273.23,32.59V29.1a4.65,4.65,0,0,1,4.65-4.65h0a4.65,4.65,0,0,1,4.65,4.65v5.79h-9.3"/><path class="cls-13" d="M273.32,29V58.67H239V29a4.65,4.65,0,0,1,4.65-4.65h33.89l-.94.19A4.65,4.65,0,0,0,273.32,29Z"/><rect class="cls-1" x="241.17" y="29.21" width="7.6" height="7.8"/><line class="cls-1" x1="251.1" y1="29.17" x2="270.42" y2="29.17"/><line class="cls-1" x1="251.1" y1="31.8" x2="270.42" y2="31.8"/><line class="cls-1" x1="251.1" y1="34.42" x2="270.42" y2="34.42"/><line class="cls-1" x1="251.28" y1="37.05" x2="270.61" y2="37.05"/><line class="cls-1" x1="241.17" y1="39.64" x2="270.42" y2="39.64"/><line class="cls-1" x1="241.17" y1="42.27" x2="270.42" y2="42.27"/><line class="cls-1" x1="241.17" y1="44.84" x2="270.42" y2="44.84"/><line class="cls-1" x1="241.17" y1="47.47" x2="255.39" y2="47.47"/><polygon class="cls-6" points="267.77 63.37 229.84 63.37 229.84 34.85 267.77 63.37"/><polygon class="cls-6" points="242.19 63.37 280.12 63.37 280.12 34.85 242.19 63.37"/><path class="cls-6" d="M280.12,63.37H229.84l22.58-12.06a4.48,4.48,0,0,1,5.12,0Z"/><path class="cls-14" d="M642,582c0,.2-140.24.36-313.19.36S15.62,582.15,15.62,582s140.21-.36,313.23-.36S642,581.75,642,582Z"/><path class="cls-15" d="M464.79,579.53s9.35-16,29.5-16.67,30.23,16.67,30.23,16.67Z"/><path class="cls-2" d="M503.4,579a25.81,25.81,0,0,1-.59-3,19.27,19.27,0,0,0-8-11.75,25.62,25.62,0,0,1-2.58-1.66,6.91,6.91,0,0,1,2.91,1.13,17.06,17.06,0,0,1,8.26,12.17A6.77,6.77,0,0,1,503.4,579Z"/><path class="cls-15" d="M452.32,578.8v-.13a7.74,7.74,0,0,0-7.73-7.61H273a7.73,7.73,0,0,0-7.73,7.74h187Z"/><path class="cls-16" d="M123.94,278.32c0,3.61,2.7,219,2.7,219l160,38.5h13.24L291.46,235.1h-12Z"/><path class="cls-15" d="M157.78,488.34l-49.59,90.89h45.32c-8.1-.8,71.78,0,71.78,0l-71.78-19,22.44-51L174,488.34Z"/><polygon class="cls-15" points="158.88 505.12 153.51 335.73 202.23 331.05 208.24 511.93 190.84 512.81 158.88 505.12"/><path class="cls-4" d="M215.05,518.63s0-.26,0-.78,0-1.32,0-2.33c0-2.06,0-5.08-.06-9,0-7.87-.05-19.31-.1-33.69,0-28.79-.07-69.31-.12-116.3l.34.35H157.56l.36-.36v7.82c0,45.82,0,88.46-.06,124v.08l0,.07c-14.93,27.36-27.31,50-36,65.93L111.8,572.78q-1.76,3.15-2.67,4.82c-.61,1.09-.94,1.63-.94,1.63s.28-.57.86-1.68l2.59-4.86,9.92-18.44c8.61-15.9,20.91-38.64,35.74-66.05l0,.14c0-35.53,0-78.17-.06-124v-8.18h.36l57.49,0h.34v.34c0,47-.09,87.51-.12,116.3-.05,14.38-.08,25.82-.1,33.69,0,3.92,0,6.94-.06,9,0,1,0,1.78,0,2.33S215.05,518.63,215.05,518.63Z"/><path class="cls-4" d="M176,509.23c.19.08-6.71,16-15.41,35.63s-15.88,35.42-16.07,35.34,6.72-16,15.42-35.64S175.77,509.15,176,509.23Z"/><path class="cls-4" d="M286.64,535.86s0-.26,0-.78,0-1.29,0-2.27c0-2-.06-5-.11-8.74-.05-7.59-.22-18.58-.49-32.15-.52-27.15-1.74-64.63-3.25-106s-2.64-78.92-3-106.07c-.2-13.57-.3-24.56-.27-32.15,0-3.78,0-6.72,0-8.75,0-1,0-1.73,0-2.27s0-.77,0-.77,0,.26,0,.77,0,1.3,0,2.27c0,2,.06,5,.1,8.74.06,7.6.23,18.58.5,32.15.51,27.15,1.74,64.64,3.24,106.05s2.65,78.9,3,106.05c.2,13.58.29,24.56.26,32.16,0,3.77,0,6.71,0,8.74,0,1,0,1.74,0,2.27S286.64,535.86,286.64,535.86Z"/><path class="cls-4" d="M206.32,355.28c.2,0,.36,36,.36,80.46s-.16,80.47-.36,80.47-.36-36-.36-80.47S206.12,355.28,206.32,355.28Z"/><path class="cls-4" d="M120.11,565.05a7.67,7.67,0,0,1-.69-1l-.79-1.2a12.45,12.45,0,0,1-1-1.68,41.88,41.88,0,0,1-4.38-11.66,57.15,57.15,0,0,1-.85-18.44,73.38,73.38,0,0,1,6-21.8,45.09,45.09,0,0,1,6.26-9.95,25.43,25.43,0,0,1,1.83-2.16c.63-.68,1.24-1.38,1.88-2,1.33-1.26,2.57-2.54,3.94-3.63a63.84,63.84,0,0,1,8-5.81c1.36-.75,2.64-1.53,3.93-2.16s2.52-1.27,3.77-1.72a43.48,43.48,0,0,1,12-3.21,25,25,0,0,1,3.38-.2,7.6,7.6,0,0,1,1.18,0,6.6,6.6,0,0,1-1.18.13,33.43,33.43,0,0,0-3.35.34,45.67,45.67,0,0,0-11.87,3.4c-1.22.45-2.41,1.14-3.71,1.74s-2.53,1.43-3.87,2.18a64.87,64.87,0,0,0-7.9,5.8c-1.35,1.08-2.57,2.36-3.88,3.61-.63.65-1.23,1.34-1.85,2a23.26,23.26,0,0,0-1.8,2.13,44.45,44.45,0,0,0-6.15,9.81,73.88,73.88,0,0,0-6,21.57,57.86,57.86,0,0,0,.7,18.26,44.31,44.31,0,0,0,4.12,11.64,15.14,15.14,0,0,0,.93,1.7l.73,1.23A7.62,7.62,0,0,1,120.11,565.05Z"/><path class="cls-12" d="M666,195.12c-10.25.89-18.53,9.27-18,19.83A20.28,20.28,0,0,0,668.24,234C694.77,234.3,692,192,666,195.12Zm2.22,35.66a17,17,0,0,1-17-15.83c-.52-8.68,6.29-15.85,14.77-16.59C687.75,195.75,690.63,230.72,668.24,230.78Z"/><path class="cls-12" d="M723.55,215.54c-.09-2.75.88-8.25-1.58-10.31s-7.94-1.53-11.45-1.58a84.29,84.29,0,0,0-2.53-8.23c-.43-1-2.19-3.13-1.86-4.11.47-1.44,5.22-3.61,6.27-5.13a4.68,4.68,0,0,0,1-4c-.66-2.59-3.82-4.59-5.61-6.26s-4.11-4.86-6.49-5.82c-3.82-1.54-7.58,3.7-10.12,6.61-3.08-1.8-6.19-2.78-9.41-4.29-2.29-1.07-2.72-1.12-3.2-3.43-.39-1.88.32-4-.14-6-1.33-5.75-7.34-4-11.87-3.65s-9.85-.49-10.09,5.29c-.08,1.85.87,4.27.22,6.05-.56,1.52-1,1.13-3.07,1.89a46.58,46.58,0,0,0-9,4.38c-2.23-2.74-4.8-6.52-8.57-6.34-4,.19-7.85,5.31-10.38,7.91-5.2,5.33.24,9,4.19,13a37,37,0,0,0-5.92,12.51c-3.55-.68-8.54-1.18-11,1.29s-1.37,9.17-1.13,12.31c.21,2.74.1,6.28,2.73,7.77s6.9.78,10,.34a55.16,55.16,0,0,0,2.82,8.36c.27.64,1.52,2.38,1.43,3,0,.17-.74.7-1,1.17-1.51,2.65-6.84,5.07-5.53,9,1.23,3.66,8.85,10.21,12.5,11.62,4.05,1.57,7.45-2.76,10.18-5.58a28.32,28.32,0,0,0,12.61,5.11c-.19,3.59-1.57,8.58.64,11.17,1.65,1.93,5.56,1.51,7.69,1.56,2.85.07,6.5.48,9.21-.6a4.9,4.9,0,0,0,3.39-3.94c.44-2.11-1.45-5.94-.5-7.64.79-1.42,5.54-2.27,7.28-3.19,2.9-1.54,5.31-4.38,8.34-1.67,3.2,2.87,4.63,7.82,9.21,5a30.75,30.75,0,0,0,9.12-9.3c2.26-3.74.61-5.19-2.33-7.84s-4.13-2.53-2.36-6.56a95,95,0,0,0,3.54-10.14c3.45.18,8.53,1,11.22-.71S723.64,218.17,723.55,215.54ZM718.28,222c-2.35.74-6.3,0-8.76.06a1.52,1.52,0,0,0-1.21.56,1.83,1.83,0,0,0-.36.63c-1.44,4.58-3.53,8.8-5.15,13.22a4.07,4.07,0,0,0,.79,4.66c1.41,1.81,4.82,3,5.67,5.09s-3.5,6-4.89,7.39c-.72.73-2,2.29-3,2.56-2,.53-2.68-.88-4.09-2.51s-2.89-4.29-5.32-4.59c-1.7-.2-3.55,1.14-5,1.93-3.67,2-6.84,3.68-11,4.38a1.57,1.57,0,0,0-1.13,1.14c-.29,2.08.19,4,.2,6.06,0,5.51-4.79,5.47-9.21,5.36-3.94-.1-5.43-.1-5.28-4.21a59.8,59.8,0,0,0,.2-6.69,1.67,1.67,0,0,0-1.62-1.62A24.71,24.71,0,0,1,645.85,250a1.86,1.86,0,0,0-.64-.33,1.56,1.56,0,0,0-1.66.33c-1.42,1.29-4.08,4.87-5.89,5.4-3.15.92-6-2.75-8-4.67-1.6-1.53-4.48-3.39-3.66-5.9.57-1.74,3.17-3.45,4.48-4.69s2-1.77,1.51-3.71c-.5-2.17-2.06-4.28-2.84-6.4a61.6,61.6,0,0,1-1.88-6.49,1.61,1.61,0,0,0-1.57-1.19c-1.7.2-3.4.38-5.11.43-3.08.11-4.73.46-5.37-3a27.93,27.93,0,0,1-.42-8.05c.18-1.4.3-3.72,1.69-4.6,1.58-1,6.58,0,8.15.33a1.64,1.64,0,0,0,2-1.13,35.55,35.55,0,0,1,6.66-14.15,1.64,1.64,0,0,0-.25-2c-2.34-2.68-7.68-5.68-5.14-9.48,1-1.4,3.94-4.48,5.47-5.2,4.81-2.25,6.72,1.13,9.38,4.22a1.44,1.44,0,0,0,2.21.71c3.56-2.44,7.3-3.84,11.29-5.37a7.32,7.32,0,0,0,2.72-1.35c.92-1,1-2.72,1.06-4s-.59-3-.28-4.31c.63-2.71,3.41-2.63,5.8-2.82,1.54-.13,3.39-.29,5-.4a6.36,6.36,0,0,1,4,.73c1.4.78.76,2.3.9,4.12.25,2-.75,3.94.35,5.79.82,1.38,1.88,1.66,3.33,2.17,4,1.41,7.67,2.63,11.28,4.95a2,2,0,0,0,.4.18,1.48,1.48,0,0,0,1.79-.29c1.73-1.72,3.74-4.76,5.88-5.84,2.67-1.34,4.15,1.44,6.27,3.43s6.2,4.37,4,7.75c-1.06,1.66-3.59,2.28-4.94,3.75s-1.39,2.26-.76,4,1.74,3.17,2.34,4.92c.87,2.54,1.49,5.16,2.33,7.71a1.69,1.69,0,0,0,1.56,1.19c2.52.19,5.63,0,8.06.62,3.86,1.07,2.84,4.72,2.95,8.07C720.4,218.27,721.2,221,718.28,222Z"/><path class="cls-12" d="M660.06,187a19,19,0,0,1,6-.92,1.63,1.63,0,0,0,0-3.25,22,22,0,0,0-6.88,1C657.22,184.55,658.07,187.69,660.06,187Z"/><path class="cls-12" d="M678.11,188a11.42,11.42,0,0,1,4.6,2.37c1.57,1.35,3.88-.93,2.29-2.29a15,15,0,0,0-6-3.21C677,184.32,676.09,187.45,678.11,188Z"/><path class="cls-12" d="M697.31,202.9a20.61,20.61,0,0,0-3-5.61,1.67,1.67,0,0,0-2.22-.58,1.63,1.63,0,0,0-.58,2.22,17.67,17.67,0,0,1,2.66,4.83C694.87,205.72,698,204.87,697.31,202.9Z"/><path class="cls-12" d="M696,216.21a35.63,35.63,0,0,1-1,5.63c-.51,2,2.62,2.89,3.13.86a43.11,43.11,0,0,0,1.09-6.49C699.47,214.13,696.23,214.15,696,216.21Z"/><path class="cls-12" d="M691.67,232a1.63,1.63,0,0,0-2.22.58,8.18,8.18,0,0,1-3.5,3.83c-1.82,1-.19,3.82,1.64,2.8a11,11,0,0,0,4.66-5A1.66,1.66,0,0,0,691.67,232Z"/><path class="cls-12" d="M674.83,242q-2.79.51-5.59.75c-2.07.18-2.08,3.43,0,3.24s4.31-.47,6.45-.86S676.87,241.66,674.83,242Z"/><path class="cls-12" d="M657.37,240.94a16.1,16.1,0,0,1-5.27-2.59,1.62,1.62,0,0,0-2.21.59,1.66,1.66,0,0,0,.58,2.22,18.56,18.56,0,0,0,6,2.91A1.62,1.62,0,0,0,657.37,240.94Z"/><path class="cls-12" d="M641.06,224.83a1.62,1.62,0,0,0-3.13.86,17.29,17.29,0,0,0,3.24,6.27,1.63,1.63,0,0,0,2.29,0,1.65,1.65,0,0,0,0-2.29A13.48,13.48,0,0,1,641.06,224.83Z"/><path class="cls-12" d="M639.58,213a33.13,33.13,0,0,1,.44-5.88c.34-2.05-2.79-2.92-3.13-.87a38.2,38.2,0,0,0-.56,6.75C636.36,215.08,639.6,215.08,639.58,213Z"/><path class="cls-12" d="M648,190a19.93,19.93,0,0,0-5.16,4.52,1.66,1.66,0,0,0,0,2.29,1.62,1.62,0,0,0,2.29,0,17.62,17.62,0,0,1,4.51-4C651.42,191.73,649.79,188.93,648,190Z"/><path class="cls-12" d="M31.79,245.81a7.88,7.88,0,0,0-7.38,8.12,8.3,8.3,0,0,0,8.29,7.81C43.56,261.86,42.41,244.53,31.79,245.81Zm.91,14.6a7,7,0,0,1-7-6.48,6.52,6.52,0,0,1,6.05-6.79C40.69,246.07,41.87,260.39,32.7,260.41Z"/><path class="cls-12" d="M55.35,254.17c0-1.12.36-3.38-.64-4.22s-3.25-.62-4.69-.65c-.34-1.12-.6-2.29-1-3.37-.18-.43-.9-1.28-.76-1.68.19-.59,2.13-1.48,2.56-2.11a1.85,1.85,0,0,0,.4-1.63c-.27-1.06-1.57-1.88-2.3-2.57s-1.68-2-2.66-2.38c-1.56-.63-3.1,1.52-4.14,2.71-1.26-.74-2.54-1.14-3.86-1.76-.93-.44-1.11-.46-1.31-1.41-.16-.77.13-1.64-.06-2.45-.54-2.35-3-1.64-4.86-1.49s-4-.2-4.13,2.16c0,.76.35,1.75.09,2.48s-.41.47-1.26.78a18.85,18.85,0,0,0-3.7,1.79c-.91-1.12-2-2.67-3.51-2.6S16.26,238,15.23,239c-2.13,2.19.09,3.68,1.71,5.35a15.07,15.07,0,0,0-2.42,5.12C13.06,249.2,11,249,10,250s-.56,3.75-.46,5c.08,1.12,0,2.57,1.12,3.18s2.82.32,4.11.14a23,23,0,0,0,1.15,3.43c.11.26.63,1,.59,1.21,0,.07-.31.29-.42.48-.61,1.09-2.8,2.08-2.26,3.68s3.62,4.18,5.12,4.76c1.66.64,3.05-1.13,4.17-2.29a11.56,11.56,0,0,0,5.17,2.09c-.08,1.47-.65,3.52.26,4.58.67.79,2.28.62,3.15.64a10,10,0,0,0,3.77-.25,2,2,0,0,0,1.39-1.61c.18-.87-.6-2.43-.21-3.13s2.27-.93,3-1.31c1.18-.63,2.17-1.79,3.41-.68s1.9,3.2,3.78,2.06a12.44,12.44,0,0,0,3.73-3.81c.93-1.53.25-2.12-1-3.21s-1.68-1-1-2.68a41,41,0,0,0,1.45-4.16c1.42.08,3.49.41,4.6-.29S55.39,255.25,55.35,254.17ZM53.2,256.8a14.36,14.36,0,0,1-3.59,0,.6.6,0,0,0-.5.23.71.71,0,0,0-.15.26c-.59,1.87-1.44,3.6-2.1,5.41a1.66,1.66,0,0,0,.32,1.91c.57.74,2,1.23,2.32,2.09s-1.44,2.46-2,3c-.3.3-.82.94-1.24,1.05-.81.22-1.1-.36-1.67-1s-1.18-1.75-2.18-1.88a3.91,3.91,0,0,0-2,.79,13.43,13.43,0,0,1-4.52,1.8.63.63,0,0,0-.46.46,17.23,17.23,0,0,0,.08,2.49c0,2.25-2,2.24-3.77,2.19-1.62,0-2.23,0-2.16-1.72,0-.91.14-1.84.08-2.74a.7.7,0,0,0-.67-.67,10.08,10.08,0,0,1-5.43-2.19.91.91,0,0,0-.26-.13.65.65,0,0,0-.68.13c-.58.54-1.67,2-2.41,2.22-1.29.37-2.46-1.13-3.28-1.92-.66-.62-1.84-1.39-1.51-2.41.24-.72,1.31-1.41,1.84-1.92s.8-.73.62-1.52a25.35,25.35,0,0,0-1.16-2.63,22.29,22.29,0,0,1-.77-2.65.67.67,0,0,0-.65-.49c-.69.08-1.39.15-2.09.18-1.26,0-1.94.18-2.2-1.22a11.43,11.43,0,0,1-.17-3.3c.07-.57.12-1.52.69-1.88s2.69,0,3.34.14a.68.68,0,0,0,.82-.47,14.36,14.36,0,0,1,2.72-5.79.67.67,0,0,0-.1-.81c-1-1.09-3.15-2.32-2.1-3.88a8.68,8.68,0,0,1,2.23-2.13c2-.92,2.76.46,3.85,1.73a.59.59,0,0,0,.9.29,21.37,21.37,0,0,1,4.63-2.2,3,3,0,0,0,1.11-.55,2.72,2.72,0,0,0,.44-1.65,9.59,9.59,0,0,1-.12-1.76c.26-1.11,1.4-1.08,2.38-1.16l2-.16a2.62,2.62,0,0,1,1.66.29c.57.33.31.95.37,1.69s-.31,1.62.14,2.38a2.11,2.11,0,0,0,1.37.88,21.13,21.13,0,0,1,4.62,2l.16.08a.62.62,0,0,0,.74-.12c.7-.71,1.52-2,2.4-2.4,1.1-.55,1.7.6,2.57,1.41s2.54,1.79,1.66,3.17c-.43.68-1.47.94-2,1.54A1.3,1.3,0,0,0,47,245c.25.7.72,1.3,1,2,.36,1,.61,2.11,1,3.16a.69.69,0,0,0,.64.48,18.14,18.14,0,0,1,3.3.26c1.58.44,1.16,1.93,1.2,3.3C54.06,255.29,54.39,256.43,53.2,256.8Z"/><path class="cls-12" d="M29.35,242.5a7.62,7.62,0,0,1,2.46-.38.67.67,0,0,0,0-1.33,8.74,8.74,0,0,0-2.82.43C28.18,241.48,28.53,242.76,29.35,242.5Z"/><path class="cls-12" d="M36.74,242.88a4.76,4.76,0,0,1,1.88,1c.65.56,1.59-.38.94-.94a6.08,6.08,0,0,0-2.47-1.31A.66.66,0,0,0,36.74,242.88Z"/><path class="cls-12" d="M44.6,249a8.33,8.33,0,0,0-1.22-2.3.68.68,0,0,0-.91-.24.67.67,0,0,0-.24.91,7.09,7.09,0,0,1,1.09,2C43.61,250.15,44.89,249.8,44.6,249Z"/><path class="cls-12" d="M44.09,254.45a16.27,16.27,0,0,1-.4,2.3.67.67,0,0,0,1.28.36,17.16,17.16,0,0,0,.44-2.66C45.49,253.6,44.16,253.6,44.09,254.45Z"/><path class="cls-12" d="M42.3,260.93a.67.67,0,0,0-.91.24A3.4,3.4,0,0,1,40,262.73a.67.67,0,0,0,.67,1.15,4.54,4.54,0,0,0,1.91-2A.68.68,0,0,0,42.3,260.93Z"/><path class="cls-12" d="M35.4,265c-.76.13-1.53.23-2.29.3s-.86,1.4,0,1.33,1.76-.2,2.64-.35S36.23,264.87,35.4,265Z"/><path class="cls-12" d="M28.24,264.58a6.45,6.45,0,0,1-2.15-1.06.66.66,0,0,0-.91.24.68.68,0,0,0,.24.91,7.53,7.53,0,0,0,2.47,1.19A.66.66,0,0,0,28.24,264.58Z"/><path class="cls-12" d="M21.56,258a.66.66,0,0,0-1.28.35,7.17,7.17,0,0,0,1.33,2.57.67.67,0,0,0,.94,0,.68.68,0,0,0,0-.94A5.51,5.51,0,0,1,21.56,258Z"/><path class="cls-12" d="M21,253.13a13,13,0,0,1,.18-2.41c.14-.84-1.14-1.2-1.29-.35a15.89,15.89,0,0,0-.22,2.76A.67.67,0,0,0,21,253.13Z"/><path class="cls-12" d="M24.41,243.72a8.33,8.33,0,0,0-2.12,1.85.69.69,0,0,0,0,.94.67.67,0,0,0,.94,0,7.42,7.42,0,0,1,1.85-1.64C25.81,244.42,25.14,243.27,24.41,243.72Z"/></g></g></svg>